<svg xmlns="http://www.w3.org/2000/svg" xmlns:xlink="http://www.w3.org/1999/xlink" viewBox="0 0 227.35 79.84"><defs><style>.cls-1{fill:none;}.cls-2{fill:#a6ce39;}.cls-3{clip-path:url(#clip-path);}.cls-4{clip-path:url(#clip-path-2);}.cls-5{fill:#00a34b;}.cls-6{fill:#2376bc;}.cls-7{fill:#2cace3;}</style><clipPath id="clip-path"><rect class="cls-1" x="15.74" y="18.68" width="47.56" height="47.55"/></clipPath><clipPath id="clip-path-2"><rect class="cls-1" x="17.38" y="13.07" width="41.14" height="47.59"/></clipPath></defs><title>logo-contugas</title><g id="Capa_2" data-name="Capa 2"><g id="Capa_1-2" data-name="Capa 1"><path class="cls-2" d="M19.16,62a.43.43,0,0,1-.25-.09,24,24,0,0,1,.23-37.27.4.4,0,0,1,.57.07.41.41,0,0,1-.07.57,23.22,23.22,0,0,0-.22,36,.41.41,0,0,1-.26.72"/><g class="cls-3"><path class="cls-2" d="M39.54,66.23A23.82,23.82,0,0,1,18.09,52.8a23.67,23.67,0,0,1-2.35-9.3.41.41,0,0,1,.81,0,23,23,0,0,0,2.27,9,23,23,0,1,0,21.64-33,.4.4,0,0,1-.38-.42.41.41,0,0,1,.42-.39,23.79,23.79,0,0,1-1,47.55"/></g><g class="cls-4"><path class="cls-5" d="M41.18,60.65a23.79,23.79,0,0,1-8.87-45.86,23.61,23.61,0,0,1,18.21.2,23.45,23.45,0,0,1,7.89,5.47.41.41,0,0,1,0,.57.4.4,0,0,1-.57,0,23.83,23.83,0,0,0-3.31-2.87,23.31,23.31,0,0,0-4.31-2.41A23,23,0,1,0,55.54,54.8a.41.41,0,0,1,.51.63,23.79,23.79,0,0,1-14.87,5.22"/></g><path class="cls-5" d="M10.43,34.22a10.71,10.71,0,1,1,10.7,10.7,10.7,10.7,0,0,1-10.7-10.7"/><path class="cls-5" d="M34.64,28.66a10.71,10.71,0,1,1,10.7,10.71,10.71,10.71,0,0,1-10.7-10.71"/><path class="cls-2" d="M43.18,58.88a8.15,8.15,0,1,1,9,7.25,8.15,8.15,0,0,1-9-7.25"/><path class="cls-2" d="M35.93,13.87A8.16,8.16,0,1,1,44.08,22a8.15,8.15,0,0,1-8.15-8.16"/><path class="cls-2" d="M16.14,68.18a8.16,8.16,0,1,1,8.16,8.15,8.15,8.15,0,0,1-8.16-8.15"/><path class="cls-6" d="M32,50.91a2.79,2.79,0,1,1,2.78,2.78A2.78,2.78,0,0,1,32,50.91"/><path class="cls-7" d="M68.55,21.39a.4.4,0,0,1-.4-.35A23.22,23.22,0,0,0,46.29.81.4.4,0,0,1,45.9.39.41.41,0,0,1,46.32,0,24,24,0,0,1,69,20.94a.4.4,0,0,1-.35.45h0"/><path class="cls-7" d="M53.7,50.56a9.3,9.3,0,1,1,9.3,9.3,9.3,9.3,0,0,1-9.3-9.3"/><path class="cls-7" d="M61.07,17.58a6.2,6.2,0,1,1,6.2,6.2,6.2,6.2,0,0,1-6.2-6.2"/><path class="cls-7" d="M20.2,13.87A2.79,2.79,0,1,1,23,16.66a2.79,2.79,0,0,1-2.79-2.79"/><path class="cls-5" d="M47.13,79.69a2,2,0,0,1,1.49-3.64,2,2,0,1,1-1.49,3.64"/><path class="cls-6" d="M37.06,65a6.2,6.2,0,1,1,6.2,6.2,6.2,6.2,0,0,1-6.2-6.2"/><path class="cls-6" d="M5.29,53.74a6.2,6.2,0,1,1,6.2,6.2,6.2,6.2,0,0,1-6.2-6.2"/><path class="cls-5" d="M1.24,22.18a2,2,0,1,1,2.6-1.09,2,2,0,0,1-2.6,1.09"/><path d="M95.65,61H97.9c.33,0,.37,0,.37.4v3.2c0,.28,0,.36-.27.45a6.72,6.72,0,0,1-2.79.55c-3.1,0-4.42-1.83-4.42-4.43s1.28-4.52,4.47-4.52a4.41,4.41,0,0,1,2.61.66.79.79,0,0,1,.33.63c0,.17,0,.26-.18.2a5.11,5.11,0,0,0-2.72-.71c-2.64,0-3.56,1.49-3.56,3.74s.86,3.64,3.47,3.64a5.13,5.13,0,0,0,2.18-.43V61.76H96a.57.57,0,0,1-.63-.59c0-.17.08-.18.32-.18"/><path d="M100.65,62.83v2.26c0,.3-.05.34-.34.34h-.18c-.28,0-.34,0-.34-.34v-5c0-.23,0-.3.17-.3.49,0,.69.2.69.68v.39a1.54,1.54,0,0,1,1.57-1.21c.7,0,.9.27.9.66,0,.2,0,.25-.2.21a2.72,2.72,0,0,0-.67-.1c-1.07,0-1.58.91-1.6,2.42"/><path d="M107.88,64.8v-.16a2.18,2.18,0,0,1-1.88.87c-1.41,0-2-.82-2-2.14V60.08c0-.23,0-.3.17-.3.49,0,.69.2.69.68v2.9a1.19,1.19,0,0,0,1.32,1.35,1.53,1.53,0,0,0,1.67-1.46V60.08c0-.23,0-.3.17-.3.49,0,.7.2.7.68v4.72c0,.23,0,.3-.17.3-.49,0-.7-.2-.7-.68"/><path d="M111.28,64.54V67.9c0,.3,0,.34-.34.34h-.18c-.28,0-.34,0-.34-.34V60.08c0-.23,0-.3.17-.3.49,0,.69.2.69.68v.29a2.33,2.33,0,0,1,2.1-1c1.72,0,2.68,1.2,2.68,2.94a2.58,2.58,0,0,1-2.69,2.89,2.34,2.34,0,0,1-2.09-1m1.9.2a1.88,1.88,0,0,0,2-2.1,1.92,1.92,0,0,0-1.94-2.16,1.94,1.94,0,0,0-2,2.16,1.89,1.89,0,0,0,2,2.1"/><path d="M120,59.69a2.7,2.7,0,0,1,2.92,2.93A2.93,2.93,0,1,1,120,59.69m0,5.07a1.92,1.92,0,0,0,2-2.14,2,2,0,1,0-2,2.14"/><path class="cls-5" d="M124.33,65.1V57.2c0-.36.06-.42.4-.42h4.18c.21,0,.27,0,.27.16,0,.32-.25.61-.83.61h-3.14v3h3c.21,0,.27,0,.27.15,0,.32-.24.62-.83.62h-2.43v3.34h3.58c.27,0,.32,0,.32.3v.18c0,.25-.05.29-.32.29h-4.11c-.29,0-.35,0-.35-.33"/><path class="cls-5" d="M134.66,65.43h-.18c-.28,0-.34,0-.34-.34V62c0-.88-.36-1.5-1.38-1.5a1.51,1.51,0,0,0-1.6,1.55v3.09c0,.3,0,.34-.34.34h-.18c-.28,0-.34,0-.34-.34v-5c0-.23,0-.3.17-.3.49,0,.69.2.69.68v.09a2.09,2.09,0,0,1,1.83-.86c1.43,0,2,.86,2,2.2v3.2c0,.3-.06.34-.35.34"/><path class="cls-5" d="M137.27,63c.09,1.32.84,1.74,2,1.74a5.09,5.09,0,0,0,2.17-.48c.17-.07.25,0,.25.14a.73.73,0,0,1-.49.7,4.79,4.79,0,0,1-2,.42c-1.72,0-2.82-.77-2.82-2.79s1-3,2.74-3,2.64,1.14,2.64,2.81c0,.27-.08.5-.47.5Zm0-.69h3.6c0-1.15-.58-1.89-1.79-1.89s-1.7.72-1.81,1.89"/><path class="cls-5" d="M144,62.83v2.26c0,.3,0,.34-.34.34h-.17c-.28,0-.34,0-.34-.34v-5c0-.23,0-.3.17-.3.49,0,.68.2.68.68v.39a1.56,1.56,0,0,1,1.58-1.21c.69,0,.89.27.89.66,0,.2,0,.25-.2.21a2.59,2.59,0,0,0-.67-.1c-1.06,0-1.57.91-1.6,2.42"/><path class="cls-5" d="M147.37,67.82a.68.68,0,0,1-.46-.64c0-.22.1-.26.29-.16a4.76,4.76,0,0,0,2.15.48c1,0,2.19-.33,2.19-2.42v-.57a2.37,2.37,0,0,1-2.11,1,2.59,2.59,0,0,1-2.69-2.88,2.64,2.64,0,0,1,2.68-3,2.37,2.37,0,0,1,2.11,1.05v-.22c0-.51.19-.74.68-.74.16,0,.17.07.17.34v5.07c0,2.48-1.45,3-3,3a4.37,4.37,0,0,1-2.06-.41m2.24-7.35a2.14,2.14,0,1,0,2,2.17,2,2,0,0,0-2-2.17"/><path class="cls-5" d="M154.83,57a.42.42,0,0,1,.45-.23h.45c.18,0,.23.11.07.27l-1.18,1.25a.41.41,0,0,1-.33.12h-.39c-.1,0-.14,0-.06-.15Zm.14,3.51v4.63c0,.3-.05.34-.33.34h-.18c-.28,0-.34,0-.34-.34v-5c0-.23,0-.3.17-.3.49,0,.68.2.68.68"/><path class="cls-5" d="M158.42,62.35a16.14,16.14,0,0,1,1.77.11v-.73c0-1.2-.94-1.31-1.65-1.31a5.86,5.86,0,0,0-1.54.22c-.31.09-.35,0-.35-.11a.56.56,0,0,1,.42-.61,5.78,5.78,0,0,1,1.62-.23c.83,0,2.37.2,2.37,1.92v3.57c0,.23,0,.3-.17.3-.46,0-.66-.17-.7-.56a3.27,3.27,0,0,1-2.08.59c-1.27,0-1.88-.55-1.88-1.64s.73-1.52,2.19-1.52m1.77.79a10,10,0,0,0-1.6-.1c-.93,0-1.5.11-1.5.83s.46.94,1.23.94a2.8,2.8,0,0,0,1.87-.56Z"/><path class="cls-5" d="M163.35,65.43c-.28,0-.34,0-.34-.31V57.19c0-.35.06-.41.39-.41h2.39c1.69,0,2.39,1,2.39,2.14a1.83,1.83,0,0,1-1.27,2,2,2,0,0,1,1.88,2.17c0,1.42-.85,2.38-2.76,2.38Zm.52-7.9v3h1.85A1.38,1.38,0,0,0,167.26,59c0-.84-.41-1.5-1.68-1.5Zm0,3.77v3.39h2c1.44,0,2-.69,2-1.7s-.7-1.69-2-1.69Z"/><path class="cls-5" d="M172.78,59.69a2.71,2.71,0,0,1,2.92,2.93,2.93,2.93,0,1,1-2.92-2.93m0,5.07a1.92,1.92,0,0,0,2-2.14,2,2,0,1,0-2,2.14"/><path class="cls-5" d="M177.33,67.82a.68.68,0,0,1-.46-.64c0-.22.1-.26.29-.16a4.76,4.76,0,0,0,2.15.48c1,0,2.19-.33,2.19-2.42v-.57a2.37,2.37,0,0,1-2.11,1,2.59,2.59,0,0,1-2.69-2.88,2.64,2.64,0,0,1,2.68-3,2.37,2.37,0,0,1,2.11,1.05v-.22c0-.51.19-.74.68-.74.16,0,.17.07.17.34v5.07c0,2.48-1.45,3-3,3a4.37,4.37,0,0,1-2.06-.41m2.24-7.35a2.14,2.14,0,1,0,2,2.17,2,2,0,0,0-2-2.17"/><path class="cls-5" d="M186.68,59.69a2.7,2.7,0,0,1,2.92,2.93,2.93,2.93,0,1,1-2.92-2.93m0,5.07a1.92,1.92,0,0,0,2-2.14,2,2,0,1,0-2,2.14"/><path class="cls-5" d="M192.12,58.43v1.35h1.48c.23,0,.27,0,.27.28v.18c0,.26,0,.28-.27.28h-1.48V63.7c0,.83.44,1,.8,1a1.82,1.82,0,0,0,.85-.22c.13,0,.19,0,.19.19a.66.66,0,0,1-.08.36,1.33,1.33,0,0,1-1.19.44c-1,0-1.44-.59-1.44-1.8V60.52h-.68c-.24,0-.27,0-.27-.28v-.18c0-.25,0-.28.27-.28h.68v-.41c0-.88.28-1.24.68-1.24.18,0,.19.06.19.3"/><path class="cls-5" d="M196.77,62.35a15.85,15.85,0,0,1,1.77.11v-.73c0-1.2-.94-1.31-1.65-1.31a6,6,0,0,0-1.54.22c-.3.09-.35,0-.35-.11a.57.57,0,0,1,.43-.61,5.76,5.76,0,0,1,1.61-.23c.83,0,2.37.2,2.37,1.92v3.57c0,.23,0,.3-.17.3-.45,0-.66-.17-.7-.56a3.26,3.26,0,0,1-2.07.59c-1.27,0-1.88-.55-1.88-1.64s.73-1.52,2.18-1.52m1.77.79a10,10,0,0,0-1.6-.1c-.93,0-1.5.11-1.5.83s.46.94,1.23.94a2.78,2.78,0,0,0,1.87-.56ZM197.38,57a.44.44,0,0,1,.46-.23h.45c.18,0,.23.11.07.27l-1.18,1.25a.42.42,0,0,1-.33.12h-.39c-.1,0-.14,0-.07-.15Z"/><path class="cls-5" d="M89.6,38.57q0-6,3.05-9.27T101.29,26a10.63,10.63,0,0,1,5.58,1.27,2.23,2.23,0,0,1,1.33,2.09c0,.24,0,.39-.13.43a.93.93,0,0,1-.57-.1,4.15,4.15,0,0,1-.51-.25l-.58-.3-.59-.25a6.26,6.26,0,0,0-.71-.26l-.75-.2a8.29,8.29,0,0,0-.91-.19l-1-.09a11.21,11.21,0,0,0-1.17-.05q-4.65,0-6.94,2.77a11.56,11.56,0,0,0-2.29,7.59q0,4.68,2.24,7.26t7,2.57a15.25,15.25,0,0,0,2.71-.22,12.91,12.91,0,0,0,1.91-.44c.44-.16,1.08-.4,1.92-.73.27-.11.45-.14.54-.07a.68.68,0,0,1,.13.5,2,2,0,0,1-1,1.72,11.71,11.71,0,0,1-6.22,1.33q-5.67,0-8.7-3T89.6,38.57Z"/><path class="cls-5" d="M111.42,42.35a8,8,0,0,1,2.09-5.83,7.85,7.85,0,0,1,5.88-2.14,7.77,7.77,0,0,1,5.85,2.16,8,8,0,0,1,2.09,5.81,8,8,0,1,1-15.91,0Zm3.89-4.28a6.12,6.12,0,0,0-1.46,4.28,6,6,0,0,0,1.46,4.24,5.28,5.28,0,0,0,4.08,1.58,5.22,5.22,0,0,0,4.06-1.58,6.09,6.09,0,0,0,1.42-4.24,6.21,6.21,0,0,0-1.44-4.28,5.1,5.1,0,0,0-4-1.63A5.17,5.17,0,0,0,115.31,38.07Z"/><path class="cls-5" d="M144.47,49.06a1.13,1.13,0,0,1-.18.77,1.18,1.18,0,0,1-.75.16H143a1.17,1.17,0,0,1-.74-.16,1.07,1.07,0,0,1-.19-.77V40.52q0-4.08-3.75-4.08a4.05,4.05,0,0,0-3.07,1.13A5,5,0,0,0,134,40.66v8.4a1.2,1.2,0,0,1-.17.77,1.16,1.16,0,0,1-.76.16h-.47a1.17,1.17,0,0,1-.74-.16,1.07,1.07,0,0,1-.19-.77V35.44a1.94,1.94,0,0,1,.07-.68c0-.1.18-.15.4-.15a1.93,1.93,0,0,1,1.43.45,2,2,0,0,1,.43,1.41v.24a5.61,5.61,0,0,1,5-2.33c3.66,0,5.48,2,5.48,6Z"/><path class="cls-5" d="M152.38,30.13c.22,0,.36.05.41.15a1.66,1.66,0,0,1,.08.68v3.65h4a.9.9,0,0,1,.6.14c.09.08.13.29.13.63v.5a.58.58,0,0,1-.73.76h-4v8.63a3,3,0,0,0,.65,2.18,2.12,2.12,0,0,0,1.55.65,4.84,4.84,0,0,0,2.29-.6c.18-.09.31-.09.4,0s.13.26.13.55a1.86,1.86,0,0,1-.23,1c-.51.79-1.59,1.19-3.22,1.19-2.62,0-3.92-1.63-3.92-4.88V36.64h-1.86a.58.58,0,0,1-.73-.76v-.5c0-.34,0-.55.13-.63a.9.9,0,0,1,.6-.14h1.86V33.52Q150.52,30.13,152.38,30.13Z"/><path class="cls-5" d="M173.8,50.12a2,2,0,0,1-1.44-.44,1.94,1.94,0,0,1-.45-1.42v-.43a5.82,5.82,0,0,1-5.12,2.36c-3.56,0-5.35-1.94-5.35-5.81V35.44a2.22,2.22,0,0,1,.07-.68c.05-.1.18-.15.4-.15a1.93,1.93,0,0,1,1.43.45,2,2,0,0,1,.43,1.41v7.87q0,3.69,3.59,3.69A4.48,4.48,0,0,0,170.58,47a4.55,4.55,0,0,0,1.33-2.9V35.44a2.34,2.34,0,0,1,.06-.68c.05-.1.18-.15.4-.15a2,2,0,0,1,1.45.45,1.93,1.93,0,0,1,.45,1.41V49.29a1.61,1.61,0,0,1-.09.67C174.13,50.07,174,50.12,173.8,50.12Z"/><path class="cls-5" d="M185.83,57.6a11.85,11.85,0,0,1-5.59-1.13A1.92,1.92,0,0,1,179,54.74c0-.55.27-.7.8-.43a13.21,13.21,0,0,0,5.85,1.3,8.51,8.51,0,0,0,2.12-.25,6.11,6.11,0,0,0,1.86-.9,4.19,4.19,0,0,0,1.45-2,9.86,9.86,0,0,0,.51-3.4l0-1.56c-1.2,1.84-3.12,2.75-5.75,2.75a6.89,6.89,0,0,1-5.37-2.14,8.18,8.18,0,0,1-1.94-5.69,8.47,8.47,0,0,1,1.94-5.8,6.77,6.77,0,0,1,5.34-2.21,6.36,6.36,0,0,1,5.74,2.86v-.6a2.35,2.35,0,0,1,.43-1.55,1.85,1.85,0,0,1,1.43-.48c.2,0,.33.06.38.19a2,2,0,0,1,.09.74V49.33Q193.9,57.6,185.83,57.6Zm5.87-15.21a6.47,6.47,0,0,0-1.36-4.17,5.57,5.57,0,0,0-7.94-.09A6.4,6.4,0,0,0,181,42.35a6.19,6.19,0,0,0,1.36,4.15,5.7,5.7,0,0,0,8-.06A6.32,6.32,0,0,0,191.7,42.39Z"/><path class="cls-5" d="M198.12,45.74a3.51,3.51,0,0,1,1.44-3.17,8.37,8.37,0,0,1,4.5-1,38.74,38.74,0,0,1,4.82.3v-2a4,4,0,0,0-.3-1.61,2.86,2.86,0,0,0-.72-1,3,3,0,0,0-1.06-.58,5.33,5.33,0,0,0-1.18-.27c-.35,0-.76-.05-1.23-.05a15.3,15.3,0,0,0-4.18.6,1.66,1.66,0,0,1-.8.1c-.11,0-.17-.18-.17-.4A1.6,1.6,0,0,1,200.41,35a13.47,13.47,0,0,1,4.38-.63,15,15,0,0,1,1.56.08,8.22,8.22,0,0,1,1.68.42,5.47,5.47,0,0,1,1.61.86,4.3,4.3,0,0,1,1.13,1.53,5.44,5.44,0,0,1,.47,2.33v9.69a1.61,1.61,0,0,1-.09.67c-.05.11-.18.16-.38.16-1.17,0-1.8-.5-1.89-1.52a9.29,9.29,0,0,1-5.65,1.59Q198.12,50.19,198.12,45.74Zm10.76,1v-3a27.42,27.42,0,0,0-4.35-.27,7.93,7.93,0,0,0-3.11.45,1.79,1.79,0,0,0-1,1.81,2.22,2.22,0,0,0,.85,2,4.5,4.5,0,0,0,2.51.58A8.2,8.2,0,0,0,208.88,46.77Z"/><path class="cls-5" d="M221.86,36.34c-2.48,0-3.71.69-3.71,2.08a1.67,1.67,0,0,0,.95,1.5,9.68,9.68,0,0,0,2.28.9l2.7.74A4.76,4.76,0,0,1,226.4,43a3.85,3.85,0,0,1,.95,2.7c0,3-2.06,4.52-6.18,4.52a12.34,12.34,0,0,1-4.62-.76,1.64,1.64,0,0,1-1.13-1.76c0-.31.06-.49.17-.53s.37,0,.79.19a12.19,12.19,0,0,0,4.75,1q4,0,4-2.56a2.08,2.08,0,0,0-1-1.79,7,7,0,0,0-2.3-1l-2.7-.7a5.09,5.09,0,0,1-2.3-1.27,3.2,3.2,0,0,1-1-2.44q0-4.16,5.91-4.15a12.17,12.17,0,0,1,3.69.56,1.61,1.61,0,0,1,1.33,1.6c0,.26-.06.42-.19.46a1.57,1.57,0,0,1-.81-.1A15.82,15.82,0,0,0,221.86,36.34Z"/></g></g></svg>