<svg xmlns="http://www.w3.org/2000/svg" xmlns:xlink="http://www.w3.org/1999/xlink" viewBox="0 0 199.41 79.84"><defs><style>.cls-1{fill:none;}.cls-2{fill:#a6ce39;}.cls-3{clip-path:url(#clip-path);}.cls-4{clip-path:url(#clip-path-2);}.cls-5{fill:#00a34b;}.cls-6{fill:#2376bc;}.cls-7{fill:#2cace3;}</style><clipPath id="clip-path"><rect class="cls-1" x="15.74" y="18.68" width="47.56" height="47.55"/></clipPath><clipPath id="clip-path-2"><rect class="cls-1" x="17.38" y="13.07" width="41.14" height="47.59"/></clipPath></defs><title>logo-sucursal-transmision</title><g id="Capa_2" data-name="Capa 2"><g id="Capa_1-2" data-name="Capa 1"><path class="cls-2" d="M19.16,62a.43.43,0,0,1-.25-.09,24,24,0,0,1,.23-37.27.4.4,0,0,1,.57.07.41.41,0,0,1-.07.57,23.22,23.22,0,0,0-.22,36,.41.41,0,0,1-.26.72"/><g class="cls-3"><path class="cls-2" d="M39.54,66.23A23.82,23.82,0,0,1,18.09,52.8a23.67,23.67,0,0,1-2.35-9.3.41.41,0,0,1,.81,0,23,23,0,0,0,2.27,9,23,23,0,1,0,21.64-33,.4.4,0,0,1-.38-.42.41.41,0,0,1,.42-.39,23.79,23.79,0,0,1-1,47.55"/></g><g class="cls-4"><path class="cls-5" d="M41.18,60.65a23.79,23.79,0,0,1-8.87-45.86,23.61,23.61,0,0,1,18.21.2,23.45,23.45,0,0,1,7.89,5.47.41.41,0,0,1,0,.57.4.4,0,0,1-.57,0,23.83,23.83,0,0,0-3.31-2.87,23.31,23.31,0,0,0-4.31-2.41A23,23,0,1,0,55.54,54.8a.41.41,0,0,1,.51.63,23.79,23.79,0,0,1-14.87,5.22"/></g><path class="cls-5" d="M10.43,34.22a10.71,10.71,0,1,1,10.7,10.7,10.7,10.7,0,0,1-10.7-10.7"/><path class="cls-5" d="M34.64,28.66a10.71,10.71,0,1,1,10.7,10.71,10.71,10.71,0,0,1-10.7-10.71"/><path class="cls-2" d="M43.18,58.88a8.15,8.15,0,1,1,9,7.25,8.15,8.15,0,0,1-9-7.25"/><path class="cls-2" d="M35.93,13.87A8.16,8.16,0,1,1,44.08,22a8.15,8.15,0,0,1-8.15-8.16"/><path class="cls-2" d="M16.14,68.18a8.16,8.16,0,1,1,8.16,8.15,8.15,8.15,0,0,1-8.16-8.15"/><path class="cls-6" d="M32,50.91a2.79,2.79,0,1,1,2.78,2.78A2.78,2.78,0,0,1,32,50.91"/><path class="cls-7" d="M68.55,21.39a.4.4,0,0,1-.4-.35A23.22,23.22,0,0,0,46.29.81.4.4,0,0,1,45.9.39.41.41,0,0,1,46.32,0,24,24,0,0,1,69,20.94a.4.4,0,0,1-.35.45h0"/><path class="cls-7" d="M53.7,50.56a9.3,9.3,0,1,1,9.3,9.3,9.3,9.3,0,0,1-9.3-9.3"/><path class="cls-7" d="M61.07,17.58a6.2,6.2,0,1,1,6.2,6.2,6.2,6.2,0,0,1-6.2-6.2"/><path class="cls-7" d="M20.2,13.87A2.79,2.79,0,1,1,23,16.66a2.79,2.79,0,0,1-2.79-2.79"/><path class="cls-5" d="M47.13,79.69a2,2,0,0,1,1.49-3.64,2,2,0,1,1-1.49,3.64"/><path class="cls-6" d="M37.06,65a6.2,6.2,0,1,1,6.2,6.2,6.2,6.2,0,0,1-6.2-6.2"/><path class="cls-6" d="M5.29,53.74a6.2,6.2,0,1,1,6.2,6.2,6.2,6.2,0,0,1-6.2-6.2"/><path class="cls-5" d="M1.24,22.18a2,2,0,1,1,2.6-1.09,2,2,0,0,1-2.6,1.09"/><path d="M95.65,63.53H97.9c.33,0,.37,0,.37.4v3.21c0,.28,0,.35-.27.45a6.72,6.72,0,0,1-2.79.55c-3.1,0-4.42-1.84-4.42-4.44s1.28-4.52,4.47-4.52a4.48,4.48,0,0,1,2.61.66.8.8,0,0,1,.33.64c0,.17,0,.25-.18.19A5.21,5.21,0,0,0,95.3,60c-2.64,0-3.56,1.49-3.56,3.74s.86,3.64,3.47,3.64a5.25,5.25,0,0,0,2.18-.42V64.3H96a.57.57,0,0,1-.63-.59c0-.17.08-.18.32-.18"/><path d="M100.65,65.38v2.26c0,.29-.05.34-.34.34h-.18c-.28,0-.34,0-.34-.34v-5c0-.24,0-.31.17-.31.49,0,.69.21.69.68v.4a1.53,1.53,0,0,1,1.57-1.21c.7,0,.9.26.9.66,0,.19,0,.24-.2.2a2.69,2.69,0,0,0-.67-.09c-1.07,0-1.58.9-1.6,2.42"/><path d="M107.88,67.34v-.16a2.18,2.18,0,0,1-1.88.87c-1.41,0-2-.82-2-2.14V62.63c0-.24,0-.31.17-.31.49,0,.69.21.69.68v2.9a1.2,1.2,0,0,0,1.32,1.36,1.53,1.53,0,0,0,1.67-1.47V62.63c0-.24,0-.31.17-.31.49,0,.7.21.7.68v4.72c0,.23,0,.31-.17.31-.49,0-.7-.21-.7-.69"/><path d="M111.28,67.09v3.36c0,.29,0,.34-.34.34h-.18c-.28,0-.34-.05-.34-.34V62.63c0-.24,0-.31.17-.31.49,0,.69.21.69.68v.3a2.31,2.31,0,0,1,2.1-1,2.61,2.61,0,0,1,2.68,2.93,2.58,2.58,0,0,1-2.69,2.9,2.36,2.36,0,0,1-2.09-1m1.9.19a1.88,1.88,0,0,0,2-2.1A1.91,1.91,0,0,0,113.2,63a1.93,1.93,0,0,0-2,2.15,1.89,1.89,0,0,0,2,2.1"/><path d="M120,62.23a2.71,2.71,0,0,1,2.92,2.94,2.93,2.93,0,0,1-5.85,0A2.7,2.7,0,0,1,120,62.23m0,5.08a1.92,1.92,0,0,0,2-2.14,2,2,0,1,0-4.06,0,1.93,1.93,0,0,0,2,2.14"/><path class="cls-5" d="M124.33,67.65V59.74c0-.35.06-.41.4-.41h4.18c.21,0,.27,0,.27.16,0,.31-.25.61-.83.61h-3.14v3h3c.21,0,.27,0,.27.16,0,.32-.24.61-.83.61h-2.43v3.35h3.58c.27,0,.32.05.32.29v.19c0,.24-.05.29-.32.29h-4.11c-.29,0-.35,0-.35-.33"/><path class="cls-5" d="M134.66,68h-.18c-.28,0-.34,0-.34-.34V64.5c0-.88-.36-1.51-1.38-1.51a1.51,1.51,0,0,0-1.6,1.55v3.1c0,.29,0,.34-.34.34h-.18c-.28,0-.34,0-.34-.34v-5c0-.24,0-.31.17-.31.49,0,.69.21.69.68v.09a2.09,2.09,0,0,1,1.83-.86c1.43,0,2,.86,2,2.2v3.21c0,.29-.06.34-.35.34"/><path class="cls-5" d="M137.27,65.55c.09,1.32.84,1.73,2,1.73a5.25,5.25,0,0,0,2.17-.47c.17-.08.25,0,.25.13a.75.75,0,0,1-.49.71,4.81,4.81,0,0,1-2,.41c-1.72,0-2.82-.77-2.82-2.78s1-3.05,2.74-3.05,2.64,1.14,2.64,2.82c0,.26-.08.5-.47.5Zm0-.7h3.6c0-1.15-.58-1.88-1.79-1.88s-1.7.72-1.81,1.88"/><path class="cls-5" d="M144,65.38v2.26c0,.29,0,.34-.34.34h-.17c-.28,0-.34,0-.34-.34v-5c0-.24,0-.31.17-.31.49,0,.68.21.68.68v.4a1.55,1.55,0,0,1,1.58-1.21c.69,0,.89.26.89.66,0,.19,0,.24-.2.2a2.57,2.57,0,0,0-.67-.09c-1.06,0-1.57.9-1.6,2.42"/><path class="cls-5" d="M147.37,70.36a.66.66,0,0,1-.46-.63c0-.22.1-.26.29-.16a4.92,4.92,0,0,0,2.15.47c1,0,2.19-.33,2.19-2.42v-.57a2.35,2.35,0,0,1-2.11,1,2.59,2.59,0,0,1-2.69-2.88,2.64,2.64,0,0,1,2.68-3,2.35,2.35,0,0,1,2.11,1.06v-.22c0-.52.19-.75.68-.75.16,0,.17.07.17.34v5.07c0,2.48-1.45,3-3,3a4.34,4.34,0,0,1-2.06-.42M149.61,63a1.9,1.9,0,0,0-1.94,2.15,1.88,1.88,0,0,0,2,2.11,1.9,1.9,0,0,0,2-2.1,2,2,0,0,0-2-2.16"/><path class="cls-5" d="M154.83,59.5c.14-.21.2-.23.45-.23h.45c.18,0,.23.11.07.26l-1.18,1.25a.38.38,0,0,1-.33.12h-.39c-.1,0-.14,0-.06-.14ZM155,63v4.64c0,.29-.05.34-.33.34h-.18c-.28,0-.34,0-.34-.34v-5c0-.24,0-.31.17-.31.49,0,.68.21.68.68"/><path class="cls-5" d="M158.42,64.9a16.14,16.14,0,0,1,1.77.11v-.73c0-1.2-.94-1.31-1.65-1.31a5.86,5.86,0,0,0-1.54.22c-.31.08-.35.05-.35-.11a.56.56,0,0,1,.42-.61,5.72,5.72,0,0,1,1.62-.24c.83,0,2.37.2,2.37,1.92v3.57c0,.23,0,.31-.17.31-.46,0-.66-.17-.7-.57a3.27,3.27,0,0,1-2.08.59c-1.27,0-1.88-.55-1.88-1.64s.73-1.51,2.19-1.51m1.77.78a11.35,11.35,0,0,0-1.6-.1c-.93,0-1.5.11-1.5.83s.46,1,1.23,1a2.79,2.79,0,0,0,1.87-.57Z"/><path class="cls-5" d="M163.35,68c-.28,0-.34,0-.34-.32V59.73c0-.34.06-.4.39-.4h2.39c1.69,0,2.39,1,2.39,2.13a1.81,1.81,0,0,1-1.27,2,2,2,0,0,1,1.88,2.18c0,1.41-.85,2.38-2.76,2.38Zm.52-7.91v3h1.85a1.38,1.38,0,0,0,1.54-1.53c0-.84-.41-1.5-1.68-1.5Zm0,3.78v3.38h2c1.44,0,2-.68,2-1.7s-.7-1.68-2-1.68Z"/><path class="cls-5" d="M172.78,62.23a2.72,2.72,0,0,1,2.92,2.94,2.93,2.93,0,0,1-5.86,0,2.71,2.71,0,0,1,2.94-2.94m0,5.08a1.92,1.92,0,0,0,2-2.14,2,2,0,1,0-2,2.14"/><path class="cls-5" d="M177.33,70.36a.66.66,0,0,1-.46-.63c0-.22.1-.26.29-.16a4.92,4.92,0,0,0,2.15.47c1,0,2.19-.33,2.19-2.42v-.57a2.35,2.35,0,0,1-2.11,1,2.59,2.59,0,0,1-2.69-2.88,2.64,2.64,0,0,1,2.68-3,2.35,2.35,0,0,1,2.11,1.06v-.22c0-.52.19-.75.68-.75.16,0,.17.07.17.34v5.07c0,2.48-1.45,3-3,3a4.34,4.34,0,0,1-2.06-.42M179.57,63a1.9,1.9,0,0,0-1.94,2.15,1.88,1.88,0,0,0,2,2.11,1.9,1.9,0,0,0,2-2.1,2,2,0,0,0-2-2.16"/><path class="cls-5" d="M186.68,62.23a2.71,2.71,0,0,1,2.92,2.94,2.93,2.93,0,0,1-5.85,0,2.7,2.7,0,0,1,2.93-2.94m0,5.08a1.92,1.92,0,0,0,2-2.14,2,2,0,1,0-4.06,0,1.93,1.93,0,0,0,2,2.14"/><path class="cls-5" d="M192.12,61v1.34h1.48c.23,0,.27,0,.27.28v.18c0,.26,0,.29-.27.29h-1.48v3.17c0,.83.44,1,.8,1a1.71,1.71,0,0,0,.85-.22c.13,0,.19,0,.19.2a.65.65,0,0,1-.08.35,1.33,1.33,0,0,1-1.19.44c-1,0-1.44-.58-1.44-1.79V63.07h-.68c-.24,0-.27,0-.27-.29V62.6c0-.24,0-.28.27-.28h.68v-.4c0-.88.28-1.25.68-1.25.18,0,.19.06.19.31"/><path class="cls-5" d="M196.77,64.9a15.85,15.85,0,0,1,1.77.11v-.73c0-1.2-.94-1.31-1.65-1.31a6,6,0,0,0-1.54.22c-.3.08-.35.05-.35-.11a.56.56,0,0,1,.43-.61,5.7,5.7,0,0,1,1.61-.24c.83,0,2.37.2,2.37,1.92v3.57c0,.23,0,.31-.17.31-.45,0-.66-.17-.7-.56a3.33,3.33,0,0,1-2.07.58c-1.27,0-1.88-.55-1.88-1.64s.73-1.51,2.18-1.51m1.77.78a11.35,11.35,0,0,0-1.6-.1c-.93,0-1.5.11-1.5.83s.46,1,1.23,1a2.77,2.77,0,0,0,1.87-.57Zm-1.16-6.18a.42.42,0,0,1,.46-.23h.45c.18,0,.23.11.07.26l-1.18,1.25a.39.39,0,0,1-.33.12h-.39c-.1,0-.14,0-.07-.14Z"/><path d="M95.79,16.35q-3,0-3,2.22a2.58,2.58,0,0,0,.09.7,1.47,1.47,0,0,0,.32.57q.22.24.42.42a2.67,2.67,0,0,0,.6.36l.64.29c.15.06.4.16.75.28l.75.27A6.78,6.78,0,0,1,99,23a3.67,3.67,0,0,1,.93,2.7,3.78,3.78,0,0,1-1.21,3,5.23,5.23,0,0,1-3.52,1.05A7.67,7.67,0,0,1,91.66,29a1.45,1.45,0,0,1-1-1.28c0-.21,0-.33.14-.35a.7.7,0,0,1,.42.13,8.19,8.19,0,0,0,3.82,1,4.12,4.12,0,0,0,2.44-.66,2.35,2.35,0,0,0,.93-2.06,2.91,2.91,0,0,0-.25-1.25,2.31,2.31,0,0,0-.79-.92,6.8,6.8,0,0,0-1-.58c-.28-.13-.68-.29-1.19-.48a15.63,15.63,0,0,1-1.48-.59,7.05,7.05,0,0,1-1.2-.72,2.79,2.79,0,0,1-.92-1.08,3.46,3.46,0,0,1-.3-1.48A3.14,3.14,0,0,1,92.53,16a5.13,5.13,0,0,1,3.2-.89,6.35,6.35,0,0,1,3.28.7,1.06,1.06,0,0,1,.52.93c0,.16,0,.26-.08.3s-.17,0-.34,0A9.74,9.74,0,0,0,95.79,16.35Z"/><path d="M110.3,29.55a1,1,0,0,1-1.13-1.12v-.26a3.5,3.5,0,0,1-3.08,1.42q-3.21,0-3.21-3.5V20.73a1.16,1.16,0,0,1,0-.41q0-.09.24-.09a1.17,1.17,0,0,1,.86.27,1.19,1.19,0,0,1,.26.84v4.73a1.93,1.93,0,0,0,2.15,2.22,2.49,2.49,0,0,0,2.74-2.4V20.73a1.16,1.16,0,0,1,0-.41q0-.09.24-.09a1.17,1.17,0,0,1,.86.27,1.15,1.15,0,0,1,.27.84v7.71a.93.93,0,0,1,0,.4A.24.24,0,0,1,110.3,29.55Z"/><path d="M118,29.61a4.5,4.5,0,0,1-3.49-1.25,4.91,4.91,0,0,1-1.12-3.42,5.16,5.16,0,0,1,1.16-3.57A4.5,4.5,0,0,1,118,20.09a4.85,4.85,0,0,1,2.43.58,1.07,1.07,0,0,1,.52,1c0,.16,0,.26-.1.29s-.2,0-.4,0a5.42,5.42,0,0,0-2.33-.56,3.12,3.12,0,0,0-2.5,1,3.92,3.92,0,0,0-.82,2.59,3.63,3.63,0,0,0,.81,2.48,3.32,3.32,0,0,0,2.63.93,7,7,0,0,0,2.39-.48,1.21,1.21,0,0,1,.42-.08s.08.09.08.22a1.17,1.17,0,0,1-.64,1.12A5.52,5.52,0,0,1,118,29.61Z"/><path d="M131.18,29.55a1.19,1.19,0,0,1-.87-.27,1.16,1.16,0,0,1-.27-.85v-.26A3.48,3.48,0,0,1,127,29.59q-3.21,0-3.21-3.5V20.73a1.16,1.16,0,0,1,0-.41c0-.06.1-.09.23-.09a1,1,0,0,1,1.12,1.11v4.73a1.94,1.94,0,0,0,2.16,2.22,2.49,2.49,0,0,0,2.73-2.4V20.73a1.47,1.47,0,0,1,0-.41q0-.09.24-.09a1.19,1.19,0,0,1,.87.27,1.15,1.15,0,0,1,.27.84v7.71a1.13,1.13,0,0,1-.05.4A.24.24,0,0,1,131.18,29.55Z"/><path d="M138.82,21.26a2.13,2.13,0,0,0-1.92,1,5.8,5.8,0,0,0-.69,2.93v3.69a.69.69,0,0,1-.1.46.75.75,0,0,1-.46.1h-.28a.74.74,0,0,1-.45-.1.68.68,0,0,1-.11-.46V20.73a1.16,1.16,0,0,1,0-.41q0-.09.24-.09a1.15,1.15,0,0,1,.86.27,1.19,1.19,0,0,1,.26.84V22a2.57,2.57,0,0,1,2.57-2c1,0,1.46.36,1.46,1.08a.47.47,0,0,1-.06.3c0,.05-.13.06-.26,0A5.66,5.66,0,0,0,138.82,21.26Z"/><path d="M145.59,21.26c-1.49,0-2.23.42-2.23,1.25a1,1,0,0,0,.57.9,5.83,5.83,0,0,0,1.37.55l1.62.44a2.86,2.86,0,0,1,1.4.85,2.33,2.33,0,0,1,.56,1.62c0,1.81-1.23,2.72-3.71,2.72a7.5,7.5,0,0,1-2.77-.46,1,1,0,0,1-.68-1.06c0-.19,0-.29.1-.32s.22,0,.48.12a7.3,7.3,0,0,0,2.85.58q2.4,0,2.4-1.53a1.24,1.24,0,0,0-.57-1.08,4.12,4.12,0,0,0-1.39-.61L144,24.81a3,3,0,0,1-1.38-.76,2,2,0,0,1-.57-1.47q0-2.49,3.55-2.49a7.16,7.16,0,0,1,2.22.34,1,1,0,0,1,.79.95c0,.16,0,.26-.11.28a1,1,0,0,1-.49-.06A9.56,9.56,0,0,0,145.59,21.26Z"/><path d="M150.92,26.91a2.1,2.1,0,0,1,.87-1.9,5,5,0,0,1,2.7-.57,23.4,23.4,0,0,1,2.9.18v-1.2a2.4,2.4,0,0,0-.18-1,1.93,1.93,0,0,0-.43-.63,2,2,0,0,0-.64-.35,3.71,3.71,0,0,0-.71-.16c-.21,0-.46,0-.74,0a9.23,9.23,0,0,0-2.51.36,1,1,0,0,1-.48.06c-.07,0-.1-.1-.1-.24a1,1,0,0,1,.7-1,7.89,7.89,0,0,1,2.63-.38,7,7,0,0,1,.94.05,4.23,4.23,0,0,1,1,.25,2.94,2.94,0,0,1,1,.52,2.34,2.34,0,0,1,.68.91,3.24,3.24,0,0,1,.28,1.4v5.83a.93.93,0,0,1-.05.4.24.24,0,0,1-.23.1c-.7,0-1.08-.31-1.13-.92a5.59,5.59,0,0,1-3.4,1C151.94,29.59,150.92,28.7,150.92,26.91Zm6.47.62V25.72a16.41,16.41,0,0,0-2.62-.16,4.82,4.82,0,0,0-1.87.27,1.06,1.06,0,0,0-.58,1.08,1.35,1.35,0,0,0,.5,1.19,2.72,2.72,0,0,0,1.51.35A5,5,0,0,0,157.39,27.53Z"/><path d="M163.63,28.91c0,.24,0,.39-.11.46a.74.74,0,0,1-.45.1h-.3a.78.78,0,0,1-.45-.1.69.69,0,0,1-.1-.46V15.46a.9.9,0,0,1,.05-.4c0-.07.1-.1.22-.1a1.19,1.19,0,0,1,.87.27,1.16,1.16,0,0,1,.27.85Z"/><path d="M180,15a1.19,1.19,0,0,1,.87.27,1.2,1.2,0,0,1,.26.85V29.13a.93.93,0,0,1,0,.4.22.22,0,0,1-.22.1,1,1,0,0,1-1.14-1.1v-.48a3.85,3.85,0,0,1-3.4,1.58,4.12,4.12,0,0,1-3.22-1.29A4.9,4.9,0,0,1,172,24.92a5.1,5.1,0,0,1,1.17-3.49,4.07,4.07,0,0,1,3.21-1.32,3.81,3.81,0,0,1,3.41,1.69V15.46a.9.9,0,0,1,.05-.4C179.84,15,179.92,15,180,15Zm-.18,10a3.94,3.94,0,0,0-.82-2.51,2.93,2.93,0,0,0-2.42-1,2.87,2.87,0,0,0-2.34,1,3.85,3.85,0,0,0-.81,2.54,3.73,3.73,0,0,0,.81,2.49,3.4,3.4,0,0,0,4.78,0A3.76,3.76,0,0,0,179.86,24.92Z"/><path d="M192.17,25.5h-6.52a2.92,2.92,0,0,0,.94,2.18,3.77,3.77,0,0,0,2.35.65,8,8,0,0,0,1.47-.14,7.13,7.13,0,0,0,1-.24l1.07-.4c.28-.12.42-.05.42.22a1.19,1.19,0,0,1-.8,1.16,7.4,7.4,0,0,1-3.33.68q-4.6,0-4.61-4.55a5.31,5.31,0,0,1,1.16-3.7,4.23,4.23,0,0,1,3.31-1.27,4.09,4.09,0,0,1,3.23,1.22,4.93,4.93,0,0,1,1.08,3.37C192.93,25.22,192.68,25.5,192.17,25.5Zm-3.57-4.22q-2.65,0-2.95,3.08h5.88Q191.44,21.28,188.6,21.28Z"/><path class="cls-5" d="M100.72,36.8a.88.88,0,0,1-.34.7,1.48,1.48,0,0,1-1,.3H96.29V50.36c0,.23,0,.38-.11.45a.66.66,0,0,1-.44.1h-.38a.43.43,0,0,1-.55-.55V37.8h-4a.75.75,0,0,1-.45-.09.55.55,0,0,1-.1-.4V37c0-.21,0-.34.1-.4a.75.75,0,0,1,.45-.09h9.43a.93.93,0,0,1,.37,0C100.69,36.6,100.72,36.68,100.72,36.8Z"/><path class="cls-5" d="M106.62,42.56a2.15,2.15,0,0,0-2,1,5.77,5.77,0,0,0-.7,3v3.76a.71.71,0,0,1-.11.47c-.06.07-.22.1-.46.1h-.29a.72.72,0,0,1-.46-.1.71.71,0,0,1-.11-.47V42a1.57,1.57,0,0,1,0-.42c0-.06.11-.09.25-.09a1.18,1.18,0,0,1,.87.27,1.21,1.21,0,0,1,.27.87v.65a2.62,2.62,0,0,1,2.62-2c1,0,1.48.37,1.48,1.1a.55.55,0,0,1-.06.32c0,.05-.13.06-.26,0A5.28,5.28,0,0,0,106.62,42.56Z"/><path class="cls-5" d="M109.1,48.31a2.13,2.13,0,0,1,.88-1.94,5.09,5.09,0,0,1,2.75-.58,24.09,24.09,0,0,1,3,.18V44.75a2.5,2.5,0,0,0-.18-1,1.85,1.85,0,0,0-.44-.64,2,2,0,0,0-.65-.35,3,3,0,0,0-.72-.16q-.33,0-.75,0a9.53,9.53,0,0,0-2.56.36,1,1,0,0,1-.49.06c-.07,0-.1-.11-.1-.24a1,1,0,0,1,.71-1,8.44,8.44,0,0,1,2.68-.38,7.33,7.33,0,0,1,1,0,4.7,4.7,0,0,1,1,.25,3.32,3.32,0,0,1,1,.53,2.63,2.63,0,0,1,.69.93,3.38,3.38,0,0,1,.29,1.43v5.93a.91.91,0,0,1-.06.41c0,.07-.11.1-.23.1-.72,0-1.1-.31-1.16-.93a5.66,5.66,0,0,1-3.45,1C110.14,51,109.1,50.12,109.1,48.31Zm6.58.63V47.09a16.89,16.89,0,0,0-2.66-.16,4.92,4.92,0,0,0-1.9.27,1.09,1.09,0,0,0-.6,1.11,1.35,1.35,0,0,0,.52,1.21,2.77,2.77,0,0,0,1.53.35A5,5,0,0,0,115.68,48.94Z"/><path class="cls-5" d="M128,50.34a.71.71,0,0,1-.11.47.72.72,0,0,1-.46.1h-.3a.71.71,0,0,1-.46-.1c-.08-.07-.11-.23-.11-.47V45.12c0-1.67-.77-2.5-2.3-2.5a2.48,2.48,0,0,0-1.88.69,3.09,3.09,0,0,0-.78,1.89v5.14a.79.79,0,0,1-.1.47.72.72,0,0,1-.47.1h-.29a.67.67,0,0,1-.45-.1.65.65,0,0,1-.12-.47V42a1.14,1.14,0,0,1,0-.42q0-.09.24-.09a1.16,1.16,0,0,1,.87.27,1.21,1.21,0,0,1,.27.87v.14a3.42,3.42,0,0,1,3.05-1.42Q128,41.36,128,45Z"/><path class="cls-5" d="M134.34,42.56c-1.52,0-2.27.42-2.27,1.27a1,1,0,0,0,.58.91,5.59,5.59,0,0,0,1.39.56l1.66.45a2.94,2.94,0,0,1,1.42.86,2.39,2.39,0,0,1,.57,1.66q0,2.76-3.78,2.76a7.36,7.36,0,0,1-2.82-.47,1,1,0,0,1-.69-1.07c0-.19,0-.3.1-.33s.23,0,.49.12a7.37,7.37,0,0,0,2.9.59c1.63,0,2.44-.52,2.44-1.56a1.27,1.27,0,0,0-.58-1.1,4.4,4.4,0,0,0-1.4-.62l-1.66-.43a3.14,3.14,0,0,1-1.41-.77,2,2,0,0,1-.58-1.49c0-1.7,1.21-2.54,3.62-2.54a7.36,7.36,0,0,1,2.26.34,1,1,0,0,1,.81,1c0,.16,0,.25-.11.28a1,1,0,0,1-.5-.06A9.54,9.54,0,0,0,134.34,42.56Z"/><path class="cls-5" d="M140.46,41.5a1.18,1.18,0,0,1,.87.27,1.21,1.21,0,0,1,.27.87v.14a3.23,3.23,0,0,1,2.94-1.42,2.51,2.51,0,0,1,2.65,1.74,3.08,3.08,0,0,1,3-1.74q3.08,0,3.07,3.37v5.61a.72.72,0,0,1-.1.47.7.7,0,0,1-.47.1h-.3a.67.67,0,0,1-.45-.1.72.72,0,0,1-.1-.47V45q0-2.43-2-2.43a2.25,2.25,0,0,0-1.69.64,2.86,2.86,0,0,0-.77,1.65v5.47a.71.71,0,0,1-.11.47.72.72,0,0,1-.46.1h-.3a.71.71,0,0,1-.46-.1c-.08-.07-.11-.23-.11-.47V44.89c0-1.53-.63-2.29-1.89-2.29a2.26,2.26,0,0,0-1.78.69,2.94,2.94,0,0,0-.72,1.81v5.24a.71.71,0,0,1-.11.47c-.06.07-.21.1-.44.1h-.31a.67.67,0,0,1-.45-.1.65.65,0,0,1-.12-.47V42a1.15,1.15,0,0,1,.05-.41A.25.25,0,0,1,140.46,41.5Z"/><path class="cls-5" d="M156.35,37.8a.76.76,0,0,1,.25-.61.92.92,0,0,1,.65-.22.93.93,0,0,1,.65.22.87.87,0,0,1,0,1.21,1,1,0,0,1-.64.23.93.93,0,0,1-.64-.23A.79.79,0,0,1,156.35,37.8Zm.47,3.7a1.16,1.16,0,0,1,.87.27,1.21,1.21,0,0,1,.27.87v7.7a.79.79,0,0,1-.1.47.72.72,0,0,1-.47.1h-.29a.67.67,0,0,1-.45-.1c-.08-.07-.11-.23-.11-.47V42a1,1,0,0,1,.05-.41C156.62,41.53,156.7,41.5,156.82,41.5Z"/><path class="cls-5" d="M164.48,42.56c-1.52,0-2.27.42-2.27,1.27a1,1,0,0,0,.58.91,5.75,5.75,0,0,0,1.39.56l1.66.45a2.94,2.94,0,0,1,1.42.86,2.4,2.4,0,0,1,.58,1.66c0,1.84-1.27,2.76-3.78,2.76a7.38,7.38,0,0,1-2.83-.47,1,1,0,0,1-.69-1.07c0-.19,0-.3.1-.33s.23,0,.49.12a7.41,7.41,0,0,0,2.9.59c1.63,0,2.44-.52,2.44-1.56a1.27,1.27,0,0,0-.58-1.1,4.4,4.4,0,0,0-1.4-.62l-1.66-.43a3.14,3.14,0,0,1-1.41-.77,2,2,0,0,1-.58-1.49c0-1.7,1.21-2.54,3.62-2.54a7.36,7.36,0,0,1,2.26.34,1,1,0,0,1,.81,1c0,.16,0,.25-.11.28a1,1,0,0,1-.5-.06A9.54,9.54,0,0,0,164.48,42.56Z"/><path class="cls-5" d="M170.21,37.8a.8.8,0,0,1,.25-.61,1.07,1.07,0,0,1,1.3,0,.87.87,0,0,1,0,1.21,1,1,0,0,1-1.28,0A.79.79,0,0,1,170.21,37.8Zm.47,3.7a1.2,1.2,0,0,1,.88.27,1.26,1.26,0,0,1,.26.87v7.7a.44.44,0,0,1-.57.57H171a.69.69,0,0,1-.46-.1c-.08-.07-.11-.23-.11-.47V42a1,1,0,0,1,0-.41C170.48,41.53,170.56,41.5,170.68,41.5Z"/><path class="cls-5" d="M174.46,46.23a4.88,4.88,0,0,1,1.28-3.56,5.56,5.56,0,0,1,7.18,0,4.89,4.89,0,0,1,1.28,3.55,4.45,4.45,0,0,1-4.86,4.82,4.84,4.84,0,0,1-3.61-1.29A4.79,4.79,0,0,1,174.46,46.23Zm2.38-2.62a3.77,3.77,0,0,0-.9,2.62,3.67,3.67,0,0,0,.9,2.6,3.25,3.25,0,0,0,2.5,1,3.18,3.18,0,0,0,2.48-1,3.75,3.75,0,0,0,.87-2.6,3.81,3.81,0,0,0-.88-2.62,3.14,3.14,0,0,0-2.47-1A3.2,3.2,0,0,0,176.84,43.61Zm1.36-4.71,1.65-2.1a.94.94,0,0,1,.31-.32,1.18,1.18,0,0,1,.44-.06h.75c.16,0,.26,0,.28.12s0,.19-.16.32l-2,2.08a.76.76,0,0,1-.55.2h-.65C178.11,39.14,178.08,39.06,178.2,38.9Z"/><path class="cls-5" d="M194.66,50.34c0,.24,0,.4-.11.47a.67.67,0,0,1-.45.1h-.31a.72.72,0,0,1-.46-.1.71.71,0,0,1-.11-.47V45.12c0-1.67-.76-2.5-2.3-2.5a2.48,2.48,0,0,0-1.88.69,3.09,3.09,0,0,0-.78,1.89v5.14a.72.72,0,0,1-.1.47.7.7,0,0,1-.47.1h-.28a.72.72,0,0,1-.46-.1.71.71,0,0,1-.11-.47V42a1.23,1.23,0,0,1,0-.42q0-.09.24-.09a1.2,1.2,0,0,1,.88.27,1.26,1.26,0,0,1,.26.87v.14a3.44,3.44,0,0,1,3.05-1.42c2.24,0,3.35,1.22,3.35,3.65Z"/></g></g></svg>