<?xml version="1.0" encoding="utf-8"?>
<!-- Generator: Adobe Illustrator 22.1.0, SVG Export Plug-In . SVG Version: 6.00 Build 0)  -->
<svg version="1.1" id="Capa_1" xmlns="http://www.w3.org/2000/svg" xmlns:xlink="http://www.w3.org/1999/xlink" x="0px" y="0px"
	 viewBox="0 0 160 64" style="enable-background:new 0 0 160 64;" xml:space="preserve">
<style type="text/css">
	.st0{fill:#A6CE39;}
	.st1{clip-path:url(#SVGID_2_);}
	.st2{clip-path:url(#SVGID_4_);}
	.st3{fill:#00A34B;}
	.st4{fill:#2376BC;}
	.st5{fill:#2CACE3;}
	.st6{enable-background:new    ;}
</style>
<g transform="translate(0 0)">
	<path class="st0" d="M15.4,49.7c-0.1,0-0.2,0-0.2-0.1c-4.5-3.6-7.1-9.2-7-15c0-5.8,2.6-11.3,7.2-14.9c0.1-0.1,0.4-0.1,0.5,0.1
		c0.1,0.1,0.1,0.4-0.1,0.5c0,0,0,0,0,0c-4.4,3.4-7,8.7-7,14.3c-0.1,5.6,2.4,10.9,6.7,14.5c0.2,0.1,0.2,0.3,0.1,0.5
		C15.6,49.7,15.5,49.7,15.4,49.7"/>
	<g transform="translate(12.616 14.99)">
		<g>
			<defs>
				<rect id="SVGID_1_" x="0" y="0" width="38.2" height="38.2"/>
			</defs>
			<clipPath id="SVGID_2_">
				<use xlink:href="#SVGID_1_"  style="overflow:visible;"/>
			</clipPath>
			<g class="st1">
				<path class="st0" d="M19.1,38.1c-7.3,0-14-4.2-17.2-10.7c-0.6-1.2-1-2.5-1.4-3.8c-0.3-1.2-0.5-2.4-0.5-3.6
					c0-0.2,0.1-0.3,0.3-0.3c0.2,0,0.3,0.1,0.3,0.3c0,0,0,0,0,0C0.8,21,1,22.2,1.2,23.3c0.3,1.3,0.7,2.5,1.4,3.7
					C7,36.2,18,40,27.2,35.6s13-15.5,8.5-24.6c-3-6.1-9-10.1-15.8-10.4c-0.2,0-0.3-0.1-0.3-0.3s0.1-0.3,0.3-0.3c0,0,0,0,0,0
					c7,0.3,13.3,4.4,16.3,10.7c2.2,4.6,2.5,9.8,0.8,14.6c-1.7,4.8-5.2,8.7-9.7,10.9C24.8,37.4,22,38.1,19.1,38.1"/>
			</g>
		</g>
	</g>
	<g transform="translate(13.979 10.501)">
		<g>
			<defs>
				<rect id="SVGID_3_" x="0" y="0" width="32.9" height="38.2"/>
			</defs>
			<clipPath id="SVGID_4_">
				<use xlink:href="#SVGID_3_"  style="overflow:visible;"/>
			</clipPath>
			<g class="st2">
				<path class="st3" d="M19.1,38.2c-2.6,0-5.1-0.5-7.5-1.5c-4.7-2-8.3-5.7-10.2-10.4c-1.9-4.7-1.8-9.9,0.2-14.6
					c4.1-9.7,15.3-14.2,25-10c1.3,0.5,2.5,1.2,3.6,2c1,0.7,1.9,1.5,2.7,2.4c0.2,0.2,0.1,0.3,0,0.5c-0.2,0.2-0.3,0.1-0.5,0
					c-0.8-0.9-1.7-1.6-2.6-2.3c-1.1-0.8-2.2-1.4-3.4-1.9C17-1.8,6.2,2.6,2.2,11.9s0.3,20.2,9.7,24.2c6.3,2.7,13.5,1.7,18.8-2.5
					c0.1-0.1,0.4-0.1,0.5,0.1s0.1,0.4-0.1,0.5c0,0,0,0,0,0C27.6,36.7,23.4,38.1,19.1,38.2"/>
			</g>
		</g>
	</g>
	<path class="st3" d="M8.4,27.4c0-4.7,3.8-8.6,8.6-8.6s8.6,3.8,8.6,8.6S21.7,36,16.9,36l0,0C12.2,36,8.4,32.1,8.4,27.4"/>
	<path class="st3" d="M27.8,23c0-4.7,3.8-8.6,8.6-8.6c4.7-0.1,8.5,3.7,8.6,8.4c0,0.1,0,0.1,0,0.2c0,4.7-3.8,8.6-8.6,8.6
		S27.8,27.7,27.8,23"/>
	<path class="st0" d="M34.7,47.2c-0.4-3.6,2.2-6.8,5.9-7.2c3.6-0.4,6.8,2.2,7.2,5.9c0.4,3.6-2.2,6.8-5.9,7.2c0,0,0,0,0,0
		C38.3,53.4,35,50.8,34.7,47.2C34.7,47.2,34.7,47.2,34.7,47.2"/>
	<path class="st0" d="M28.8,11.1c0-3.6,2.9-6.6,6.6-6.6c3.6,0,6.6,2.9,6.6,6.6s-2.9,6.6-6.6,6.6l0,0C31.8,17.7,28.8,14.8,28.8,11.1"
		/>
	<path class="st0" d="M12.9,54.7c0-3.6,2.9-6.6,6.6-6.6s6.6,2.9,6.6,6.6c0,3.6-2.9,6.6-6.6,6.6h0C15.9,61.2,13,58.3,12.9,54.7"/>
	<path class="st4" d="M25.7,40.8c0-1.2,1-2.2,2.2-2.2c1.2,0,2.2,1,2.2,2.2c0,1.2-1,2.2-2.2,2.2l0,0C26.7,43.1,25.7,42,25.7,40.8
		C25.7,40.8,25.7,40.8,25.7,40.8"/>
	<path class="st5" d="M55,17.2c-0.2,0-0.3-0.1-0.3-0.3C53.5,7.9,46.1,1.1,37.1,0.6c-0.2,0-0.3-0.1-0.3-0.3C36.8,0.1,37,0,37.1,0
		c9.3,0.4,17,7.5,18.2,16.8C55.4,17,55.2,17.1,55,17.2L55,17.2"/>
	<path class="st5" d="M43.1,40.6c0-4.1,3.3-7.5,7.5-7.5s7.5,3.3,7.5,7.5S54.7,48,50.5,48h0C46.4,48,43.1,44.7,43.1,40.6"/>
	<path class="st5" d="M49,14.1c0-2.7,2.2-5,5-5c2.7,0,5,2.2,5,5s-2.2,5-5,5C51.2,19.1,49,16.9,49,14.1C49,14.1,49,14.1,49,14.1"/>
	<path class="st5" d="M16.2,11.1c0-1.2,1-2.2,2.2-2.2c1.2,0,2.2,1,2.2,2.2s-1,2.2-2.2,2.2l0,0C17.2,13.4,16.2,12.4,16.2,11.1
		C16.2,11.1,16.2,11.1,16.2,11.1"/>
	<path class="st3" d="M37.8,63.9c-0.8-0.3-1.2-1.3-0.9-2.1c0.3-0.8,1.3-1.2,2.1-0.9c0.8,0.3,1.2,1.3,0.9,2.1
		C39.5,63.8,38.6,64.2,37.8,63.9"/>
	<path class="st4" d="M29.8,52.1c0-2.7,2.2-5,5-5c2.7,0,5,2.2,5,5c0,2.7-2.2,5-5,5l0,0C32,57.1,29.8,54.9,29.8,52.1
		C29.8,52.1,29.8,52.1,29.8,52.1"/>
	<path class="st4" d="M4.3,43c0-2.7,2.2-5,5-5s5,2.2,5,5c0,2.7-2.2,5-5,5C6.5,48,4.3,45.8,4.3,43C4.3,43.1,4.3,43.1,4.3,43"/>
	<path class="st3" d="M1,17.8c-0.8-0.3-1.2-1.3-0.9-2.1c0.3-0.8,1.3-1.2,2.1-0.9c0.8,0.3,1.2,1.3,0.9,2.1C2.7,17.7,1.8,18.1,1,17.8
		C1,17.8,1,17.8,1,17.8"/>
	<g transform="translate(72.818 45.452)">
		<path d="M3.9,3.4h1.8c0.2,0,0.3,0,0.3,0.3v2.6c0,0.2,0,0.3-0.2,0.4C5.1,7,4.3,7.2,3.5,7.1C1,7.1,0,5.7,0,3.6C0,1.4,1,0,3.6,0
			c0.7-0.1,1.5,0.1,2.1,0.6C5.9,0.7,5.9,0.8,5.9,1c0,0.2,0,0.2-0.2,0.2C5.1,0.8,4.4,0.6,3.6,0.6c-2.1,0-2.9,1.2-2.9,3
			c0,1.7,0.7,2.9,2.8,2.9c0.6,0,1.2-0.1,1.8-0.3V4.1H4.2c-0.3,0-0.5-0.2-0.5-0.4c0,0,0,0,0,0C3.6,3.4,3.7,3.4,3.9,3.4"/>
		<path d="M7.9,4.9v1.8C7.9,7,7.9,7,7.6,7H7.5C7.2,7,7.2,7,7.2,6.7v-4c0-0.2,0-0.2,0.2-0.2c0.4,0,0.6,0.2,0.6,0.6v0.3
			c0.1-0.6,0.7-1,1.3-1c0.6,0,0.7,0.2,0.7,0.6c0,0.2,0,0.2-0.2,0.2C9.6,3.1,9.4,3,9.2,3C8.3,3,7.9,3.7,7.9,4.9"/>
		<path d="M13.7,6.5V6.3c-0.4,0.5-0.9,0.8-1.5,0.7c-1.1,0-1.6-0.6-1.6-1.7V2.7c0-0.2,0-0.2,0.2-0.2c0.4,0,0.6,0.2,0.6,0.6v2.3
			c-0.1,0.5,0.3,1,0.8,1.1c0.1,0,0.1,0,0.2,0c0.7,0.1,1.3-0.4,1.4-1.1c0,0,0-0.1,0-0.1V2.7c0-0.2,0-0.2,0.2-0.2
			c0.4,0,0.6,0.2,0.6,0.6v3.8c0,0.2,0,0.2-0.2,0.2C13.9,7.1,13.7,6.9,13.7,6.5"/>
		<path d="M16.4,6.3V9c0,0.2,0,0.2-0.2,0.2H16c-0.2,0-0.2,0-0.2-0.2V2.7c0-0.2,0-0.2,0.2-0.2c0.4,0,0.6,0.2,0.6,0.6v0.2
			c0.4-0.6,1-0.9,1.7-0.9c1.2,0,2.1,0.9,2.2,2c0,0.1,0,0.2,0,0.3c0.1,1.1-0.7,2.2-1.8,2.3c-0.1,0-0.2,0-0.4,0
			C17.5,7.1,16.8,6.8,16.4,6.3 M18,6.4c0.8,0,1.6-0.6,1.6-1.5c0-0.1,0-0.1,0-0.2c0-1-0.5-1.8-1.5-1.8c-0.9,0-1.6,0.7-1.6,1.6
			c0,0.1,0,0.1,0,0.2c-0.1,0.8,0.4,1.5,1.2,1.7C17.7,6.4,17.8,6.4,18,6.4"/>
		<path d="M23.4,2.4c1.3,0,2.3,1,2.4,2.3c0,1.3-1,2.3-2.3,2.4c0,0-0.1,0-0.1,0c-1.2,0.1-2.2-0.7-2.3-1.9c0-0.2,0-0.3,0-0.5
			c-0.1-1.2,0.8-2.2,2-2.3C23.2,2.4,23.3,2.4,23.4,2.4 M23.4,6.5C24.3,6.5,25,5.9,25,5c0-0.1,0-0.1,0-0.2c0.1-0.9-0.5-1.7-1.4-1.8
			c-0.1,0-0.1,0-0.2,0c-0.9,0-1.6,0.6-1.6,1.5c0,0.1,0,0.2,0,0.3c-0.1,0.8,0.5,1.6,1.3,1.7C23.2,6.5,23.3,6.5,23.4,6.5"/>
		<path class="st3" d="M26.9,6.7V0.4c0-0.3,0.1-0.3,0.3-0.3h3.4c0.2,0,0.2,0,0.2,0.2c0,0.2-0.2,0.5-0.6,0.5h-2.5v2.4h2.4
			c0.2,0,0.2,0,0.2,0.2c0,0.2-0.2,0.5-0.6,0.5h-1.9v2.6h2.9c0.2,0,0.2,0,0.2,0.2v0.2c0,0.2,0,0.2-0.2,0.2h-3.3
			C26.9,7,26.8,7,26.9,6.7"/>
		<path class="st3" d="M35.2,7H35c-0.2,0-0.2,0-0.2-0.2V4.2c0-0.7-0.3-1.2-1.1-1.2s-1.2,0.5-1.3,1.3v2.5c0,0.2,0,0.2-0.2,0.2H32
			c-0.2,0-0.2,0-0.2-0.2v-4c0-0.2,0-0.2,0.2-0.2c0.4,0,0.6,0.2,0.6,0.6v0.1c0.3-0.5,0.9-0.8,1.4-0.7c1.1,0,1.6,0.7,1.6,1.8v2.6
			C35.4,7,35.3,7,35.2,7"/>
		<path class="st3" d="M37.3,5.1c0.1,1,0.6,1.4,1.6,1.4c0.6,0,1.2-0.1,1.8-0.4c0.2-0.1,0.2,0,0.2,0.1c0,0.3-0.1,0.5-0.4,0.6
			C40,6.9,39.4,7,38.9,7c-1.1,0.1-2.1-0.6-2.2-1.7c0-0.2,0-0.4,0-0.5c0-1.6,0.8-2.4,2.2-2.4c1.4,0,2.1,0.9,2.1,2.2
			c0,0.2-0.1,0.4-0.4,0.4L37.3,5.1L37.3,5.1z M37.3,4.5h2.9C40.2,3.7,39.7,3.1,39,3c-0.1,0-0.2,0-0.2,0C37.8,3,37.4,3.5,37.3,4.5"/>
		<path class="st3" d="M42.6,4.9v1.8c0,0.2,0,0.2-0.2,0.2h-0.2C42,7,42,7,42,6.7v-4c0-0.2,0-0.2,0.2-0.2c0.4,0,0.6,0.2,0.6,0.6v0.3
			c0.1-0.6,0.7-1,1.3-1c0.6,0,0.7,0.2,0.7,0.6c0,0.2,0,0.2-0.2,0.2C44.4,3.1,44.2,3,44,3C43,3,42.6,3.7,42.6,4.9"/>
		<path class="st3" d="M45.4,8.9C45.1,8.7,45,8.7,45,8.4c0-0.2,0.1-0.2,0.2-0.2c0.5,0.3,1.2,0.4,1.8,0.4c0.8,0,1.8-0.2,1.8-1.9V6.3
			c-0.4,0.5-1,0.8-1.7,0.8c-1.3-0.1-2.2-1.2-2.2-2.5c0.1-1.2,1-2.1,2.2-2.2c0.7-0.1,1.3,0.3,1.7,0.9V3.1c0-0.4,0.2-0.6,0.6-0.6
			c0.2,0,0.2,0.1,0.2,0.2v4.1c0.2,1.2-0.6,2.2-1.8,2.4c-0.2,0-0.4,0-0.6,0C46.5,9.3,45.9,9.2,45.4,8.9 M47.1,3c-1,0-1.5,0.7-1.5,1.8
			c-0.1,0.8,0.5,1.6,1.3,1.7c0.1,0,0.2,0,0.3,0c0.8,0,1.6-0.6,1.6-1.5c0-0.1,0-0.2,0-0.2C48.7,3.8,48.3,3,47.1,3"/>
		<path class="st3" d="M51.3,0.2c0.1-0.2,0.2-0.2,0.4-0.2h0.4c0.2,0,0.2,0.1,0.1,0.2l-1,1c-0.1,0.1-0.2,0.1-0.2,0.1h-0.3
			c-0.1,0-0.1,0-0.1-0.1L51.3,0.2z M51.5,3v3.7c0,0.2,0,0.2-0.2,0.2h-0.2c-0.2,0-0.2,0-0.2-0.2v-4c0-0.2,0-0.2,0.2-0.2
			C51.3,2.5,51.5,2.6,51.5,3"/>
		<path class="st3" d="M54.2,4.6c0.5,0,1,0,1.4,0.1V4.1c0-1-0.7-1-1.3-1c-0.4,0-0.8,0.1-1.2,0.2c-0.2,0.1-0.3,0-0.3-0.1
			c0-0.2,0.1-0.4,0.3-0.5c0.4-0.1,0.9-0.2,1.3-0.2c0.6,0,1.9,0.2,1.9,1.5v2.9c0,0.2,0,0.2-0.2,0.2c-0.4,0-0.6-0.2-0.6-0.5
			C55.1,7,54.6,7.2,54,7.1c-1,0-1.5-0.4-1.5-1.3C52.4,4.9,53.1,4.6,54.2,4.6 M55.6,5.1C55.2,5.1,54.8,5,54.4,5
			c-0.7,0-1.2,0.1-1.2,0.6s0.4,0.7,1,0.7c0.5,0,1.1-0.1,1.5-0.5L55.6,5.1L55.6,5.1z"/>
		<path class="st3" d="M58.2,7C58,7,58,7,58,6.7V0.4c0-0.2,0.1-0.3,0.3-0.3h1.9c1.4,0,1.9,0.8,1.9,1.7c0.1,0.7-0.4,1.4-1,1.6
			c0.9,0,1.6,0.8,1.5,1.6c0,0,0,0.1,0,0.1c0,1.1-0.7,1.9-2.2,1.9L58.2,7L58.2,7z M58.6,0.6V3h1.5c0.6,0.1,1.1-0.4,1.2-1
			c0-0.1,0-0.1,0-0.2c0-0.6-0.3-1.2-1.4-1.2H58.6z M58.6,3.7v2.7h1.6c1.1,0,1.6-0.6,1.6-1.4c0-0.9-0.6-1.4-1.6-1.4
			C60.2,3.7,58.6,3.7,58.6,3.7z"/>
		<path class="st3" d="M65.7,2.4C67,2.4,68,3.5,68,4.8C68,6,67,7,65.7,7.1c-1.3,0-2.3-1-2.4-2.3C63.3,3.5,64.4,2.4,65.7,2.4
			C65.7,2.4,65.7,2.4,65.7,2.4 M65.7,6.5c0.8,0,1.6-0.6,1.6-1.5c0-0.1,0-0.1,0-0.2c0.1-0.9-0.5-1.7-1.4-1.8c-0.1,0-0.1,0-0.2,0
			c-0.9,0-1.6,0.6-1.6,1.5c0,0.1,0,0.2,0,0.3c-0.1,0.8,0.5,1.6,1.3,1.7C65.5,6.5,65.6,6.5,65.7,6.5"/>
		<path class="st3" d="M69.3,8.9c-0.2-0.2-0.4-0.2-0.4-0.5c0-0.2,0.1-0.2,0.2-0.2c0.5,0.3,1.2,0.4,1.8,0.4c0.8,0,1.8-0.2,1.8-1.9
			V6.3c-0.4,0.5-1,0.8-1.7,0.8c-1.3-0.1-2.2-1.2-2.2-2.5c0.1-1.2,1-2.1,2.2-2.2c0.7-0.1,1.3,0.3,1.7,0.9V3.1c0-0.4,0.2-0.6,0.6-0.6
			c0.2,0,0.2,0.1,0.2,0.2v4.1c0.2,1.2-0.6,2.2-1.8,2.4c-0.2,0-0.4,0-0.6,0C70.4,9.3,69.9,9.1,69.3,8.9 M71.2,3c-1,0-1.5,0.7-1.5,1.8
			c-0.1,0.8,0.5,1.6,1.3,1.7c0.1,0,0.2,0,0.3,0c0.8,0,1.6-0.6,1.6-1.5c0-0.1,0-0.2,0-0.2C72.7,3.8,72.3,3,71.2,3"/>
		<path class="st3" d="M76.9,2.4c1.3,0,2.3,1,2.4,2.3S78.3,7,77,7.1c0,0-0.1,0-0.1,0c-1.3,0-2.3-1.1-2.3-2.4
			C74.6,3.4,75.6,2.4,76.9,2.4 M76.9,6.5c0.8,0,1.6-0.6,1.6-1.5c0-0.1,0-0.1,0-0.2c0.1-0.9-0.5-1.7-1.4-1.8c-0.1,0-0.1,0-0.2,0
			c-0.9,0-1.6,0.6-1.6,1.5c0,0.1,0,0.2,0,0.3c-0.1,0.8,0.5,1.6,1.3,1.7C76.7,6.5,76.8,6.5,76.9,6.5"/>
		<path class="st3" d="M81.2,1.4v1h1.2c0.2,0,0.2,0,0.2,0.2v0.2c0,0.2,0,0.2-0.2,0.2h-1.2v2.6c0,0.6,0.3,0.8,0.6,0.8
			c0.2,0,0.4-0.1,0.6-0.2c0.1,0,0.2,0,0.2,0.2c0,0.1,0,0.2-0.1,0.3c-0.2,0.2-0.5,0.3-1,0.3c-0.8,0-1.1-0.5-1.1-1.4V3h-0.6
			c-0.2,0-0.2,0-0.2-0.2V2.6c0-0.2,0-0.2,0.2-0.2h0.6V2.1c0-0.7,0.2-1,0.6-1C81.2,1.1,81.2,1.2,81.2,1.4"/>
		<path class="st3" d="M85,4.6c0.5,0,1,0,1.4,0.1V4.1c0-1-0.7-1-1.3-1c-0.4,0-0.8,0.1-1.2,0.2c-0.2,0.1-0.3,0-0.3-0.1
			c0-0.2,0.1-0.4,0.3-0.5c0.4-0.1,0.9-0.2,1.3-0.2c0.6,0,1.9,0.2,1.9,1.5v2.9c0,0.2,0,0.2-0.2,0.2c-0.4,0-0.6-0.2-0.6-0.5
			c-0.5,0.3-1.1,0.5-1.7,0.5c-1,0-1.5-0.4-1.5-1.3C83.2,4.9,83.8,4.6,85,4.6 M86.3,5.1C85.9,5.1,85.5,5,85.1,5
			c-0.7,0-1.2,0.1-1.2,0.6s0.4,0.7,1,0.7c0.5,0,1.1-0.1,1.5-0.5L86.3,5.1L86.3,5.1z M85.5,0.2c0.1-0.2,0.2-0.2,0.4-0.2h0.4
			c0.2,0,0.2,0.1,0.1,0.2l-1,1c-0.1,0.1-0.2,0.1-0.2,0.1h-0.3c-0.1,0-0.1,0-0.1-0.1L85.5,0.2z"/>
	</g>
	<g class="st6">
		<path class="st3" d="M84,22.7c0,0.3-0.1,0.6-0.4,0.9c-0.3,0.2-0.7,0.4-1.2,0.4h-3.8v15.5c0,0.3,0,0.5-0.1,0.5
			C78.3,40,78.1,40,77.9,40h-0.5c-0.3,0-0.5,0-0.5-0.1c-0.1-0.1-0.1-0.3-0.1-0.5V23.9h-4.9c-0.3,0-0.5,0-0.6-0.1s-0.1-0.2-0.1-0.5
			v-0.4c0-0.3,0-0.4,0.1-0.5c0.1-0.1,0.3-0.1,0.6-0.1h11.6c0.2,0,0.4,0,0.5,0.1C84,22.4,84,22.5,84,22.7z"/>
		<path class="st3" d="M95.2,31.3c0-0.2,0-0.3,0.1-0.3c0.1,0,0.3-0.1,0.5-0.1h4.6c0.3,0,0.5,0,0.6,0.1c0.1,0.1,0.1,0.3,0.1,0.7v6.6
			c0,0.3,0,0.5-0.1,0.6c-0.1,0.1-0.2,0.2-0.5,0.3C98.9,40,97,40.4,95,40.4c-3,0-5.3-0.8-6.8-2.4c-1.5-1.6-2.2-3.8-2.2-6.6
			c0-2.9,0.7-5.2,2.2-6.8s3.8-2.5,6.9-2.5c2.3,0,4,0.5,5.4,1.3c0.5,0.3,0.7,0.8,0.7,1.3c0,0.2,0,0.3-0.1,0.4c0,0.1-0.1,0.1-0.3,0
			c-1.7-1-3.6-1.5-5.6-1.5c-2.6,0-4.4,0.7-5.6,2c-1.1,1.3-1.7,3.2-1.7,5.7c0,5,2.4,7.5,7.1,7.5c1.7,0,3.2-0.3,4.5-0.9v-5.4h-2.9
			c-0.4,0-0.7-0.1-0.9-0.3C95.3,31.9,95.2,31.7,95.2,31.3z"/>
		<path class="st3" d="M107.4,23.1v16.3c0,0.3,0,0.5-0.1,0.5c-0.1,0.1-0.3,0.1-0.5,0.1h-0.5c-0.3,0-0.5,0-0.5-0.1
			c-0.1-0.1-0.1-0.3-0.1-0.5V23.1c0-0.3,0-0.5,0.1-0.6c0.1-0.1,0.3-0.1,0.6-0.1h0.3c0.3,0,0.5,0,0.6,0.1S107.4,22.8,107.4,23.1z"/>
	</g>
</g>
</svg>
