<svg xmlns="http://www.w3.org/2000/svg" xmlns:xlink="http://www.w3.org/1999/xlink" viewBox="0 0 199.41 79.84"><defs><style>.cls-1{fill:none;}.cls-2{fill:#a6ce39;}.cls-3{clip-path:url(#clip-path);}.cls-4{clip-path:url(#clip-path-2);}.cls-5{fill:#00a34b;}.cls-6{fill:#2376bc;}.cls-7{fill:#2cace3;}</style><clipPath id="clip-path"><rect class="cls-1" x="15.74" y="18.68" width="47.56" height="47.55"/></clipPath><clipPath id="clip-path-2"><rect class="cls-1" x="17.38" y="13.07" width="41.14" height="47.59"/></clipPath></defs><title>logo-unidad-negocio-transmision</title><g id="Capa_2" data-name="Capa 2"><g id="Capa_1-2" data-name="Capa 1"><path class="cls-2" d="M19.16,62a.43.43,0,0,1-.25-.09,24,24,0,0,1,.23-37.27.4.4,0,0,1,.57.07.41.41,0,0,1-.07.57,23.22,23.22,0,0,0-.22,36,.41.41,0,0,1-.26.72"/><g class="cls-3"><path class="cls-2" d="M39.54,66.23A23.82,23.82,0,0,1,18.09,52.8a23.67,23.67,0,0,1-2.35-9.3.41.41,0,0,1,.81,0,23,23,0,0,0,2.27,9,23,23,0,1,0,21.64-33,.4.4,0,0,1-.38-.42.41.41,0,0,1,.42-.39,23.79,23.79,0,0,1-1,47.55"/></g><g class="cls-4"><path class="cls-5" d="M41.18,60.65a23.79,23.79,0,0,1-8.87-45.86,23.61,23.61,0,0,1,18.21.2,23.45,23.45,0,0,1,7.89,5.47.41.41,0,0,1,0,.57.4.4,0,0,1-.57,0,23.83,23.83,0,0,0-3.31-2.87,23.31,23.31,0,0,0-4.31-2.41A23,23,0,1,0,55.54,54.8a.41.41,0,0,1,.51.63,23.79,23.79,0,0,1-14.87,5.22"/></g><path class="cls-5" d="M10.43,34.22a10.71,10.71,0,1,1,10.7,10.7,10.7,10.7,0,0,1-10.7-10.7"/><path class="cls-5" d="M34.64,28.66a10.71,10.71,0,1,1,10.7,10.71,10.71,10.71,0,0,1-10.7-10.71"/><path class="cls-2" d="M43.18,58.88a8.15,8.15,0,1,1,9,7.25,8.15,8.15,0,0,1-9-7.25"/><path class="cls-2" d="M35.93,13.87A8.16,8.16,0,1,1,44.08,22a8.15,8.15,0,0,1-8.15-8.16"/><path class="cls-2" d="M16.14,68.18a8.16,8.16,0,1,1,8.16,8.15,8.15,8.15,0,0,1-8.16-8.15"/><path class="cls-6" d="M32,50.91a2.79,2.79,0,1,1,2.78,2.78A2.78,2.78,0,0,1,32,50.91"/><path class="cls-7" d="M68.55,21.39a.4.4,0,0,1-.4-.35A23.22,23.22,0,0,0,46.29.81.4.4,0,0,1,45.9.39.41.41,0,0,1,46.32,0,24,24,0,0,1,69,20.94a.4.4,0,0,1-.35.45h0"/><path class="cls-7" d="M53.7,50.56a9.3,9.3,0,1,1,9.3,9.3,9.3,9.3,0,0,1-9.3-9.3"/><path class="cls-7" d="M61.07,17.58a6.2,6.2,0,1,1,6.2,6.2,6.2,6.2,0,0,1-6.2-6.2"/><path class="cls-7" d="M20.2,13.87A2.79,2.79,0,1,1,23,16.66a2.79,2.79,0,0,1-2.79-2.79"/><path class="cls-5" d="M47.13,79.69a2,2,0,0,1,1.49-3.64,2,2,0,1,1-1.49,3.64"/><path class="cls-6" d="M37.06,65a6.2,6.2,0,1,1,6.2,6.2,6.2,6.2,0,0,1-6.2-6.2"/><path class="cls-6" d="M5.29,53.74a6.2,6.2,0,1,1,6.2,6.2,6.2,6.2,0,0,1-6.2-6.2"/><path class="cls-5" d="M1.24,22.18a2,2,0,1,1,2.6-1.09,2,2,0,0,1-2.6,1.09"/><path d="M95.65,70.94H97.9c.33,0,.37,0,.37.41v3.2c0,.28,0,.35-.27.45a6.72,6.72,0,0,1-2.79.55c-3.1,0-4.42-1.83-4.42-4.44s1.28-4.52,4.47-4.52a4.48,4.48,0,0,1,2.61.66.82.82,0,0,1,.33.64c0,.17,0,.25-.18.19a5.21,5.21,0,0,0-2.72-.71c-2.64,0-3.56,1.5-3.56,3.74s.86,3.65,3.47,3.65a5.13,5.13,0,0,0,2.18-.43V71.71H96a.57.57,0,0,1-.63-.58c0-.17.08-.19.32-.19"/><path d="M100.65,72.79v2.26c0,.29-.05.34-.34.34h-.18c-.28,0-.34,0-.34-.34V70c0-.23,0-.31.17-.31.49,0,.69.21.69.69v.39a1.54,1.54,0,0,1,1.57-1.21c.7,0,.9.27.9.66,0,.19,0,.24-.2.21a2.72,2.72,0,0,0-.67-.1c-1.07,0-1.58.9-1.6,2.42"/><path d="M107.88,74.76V74.6a2.18,2.18,0,0,1-1.88.86c-1.41,0-2-.81-2-2.13V70c0-.23,0-.31.17-.31.49,0,.69.21.69.69v2.89a1.2,1.2,0,0,0,1.32,1.36,1.53,1.53,0,0,0,1.67-1.47V70c0-.23,0-.31.17-.31.49,0,.7.21.7.69v4.71c0,.24,0,.31-.17.31-.49,0-.7-.21-.7-.68"/><path d="M111.28,74.5v3.36c0,.29,0,.34-.34.34h-.18c-.28,0-.34,0-.34-.34V70c0-.23,0-.31.17-.31.49,0,.69.21.69.69v.29a2.33,2.33,0,0,1,2.1-1,2.61,2.61,0,0,1,2.68,2.93,2.58,2.58,0,0,1-2.69,2.9,2.34,2.34,0,0,1-2.09-1m1.9.19a1.88,1.88,0,0,0,2-2.1,1.91,1.91,0,0,0-1.94-2.15,1.94,1.94,0,0,0-2,2.15,1.89,1.89,0,0,0,2,2.1"/><path d="M120,69.65a2.92,2.92,0,1,1,0,5.83,2.92,2.92,0,1,1,0-5.83m0,5.07a1.92,1.92,0,0,0,2-2.14,2,2,0,1,0-2,2.14"/><path class="cls-5" d="M124.33,75.06V67.15c0-.35.06-.41.4-.41h4.18c.21,0,.27,0,.27.16,0,.32-.25.61-.83.61h-3.14v3h3c.21,0,.27,0,.27.16,0,.32-.24.61-.83.61h-2.43v3.35h3.58c.27,0,.32,0,.32.29v.19c0,.24-.05.29-.32.29h-4.11c-.29,0-.35,0-.35-.33"/><path class="cls-5" d="M134.66,75.39h-.18c-.28,0-.34,0-.34-.34V71.91c0-.88-.36-1.5-1.38-1.5a1.5,1.5,0,0,0-1.6,1.55v3.09c0,.29,0,.34-.34.34h-.18c-.28,0-.34,0-.34-.34V70c0-.23,0-.31.17-.31.49,0,.69.21.69.69v.08a2.11,2.11,0,0,1,1.83-.85c1.43,0,2,.85,2,2.2v3.2c0,.29-.06.34-.35.34"/><path class="cls-5" d="M137.27,73c.09,1.32.84,1.73,2,1.73a5.25,5.25,0,0,0,2.17-.47c.17-.08.25,0,.25.13a.75.75,0,0,1-.49.71,4.79,4.79,0,0,1-2,.42c-1.72,0-2.82-.77-2.82-2.79s1-3,2.74-3,2.64,1.13,2.64,2.81c0,.27-.08.5-.47.5Zm0-.7h3.6c0-1.15-.58-1.88-1.79-1.88s-1.7.72-1.81,1.88"/><path class="cls-5" d="M144,72.79v2.26c0,.29,0,.34-.34.34h-.17c-.28,0-.34,0-.34-.34V70c0-.23,0-.31.17-.31.49,0,.68.21.68.69v.39a1.56,1.56,0,0,1,1.58-1.21c.69,0,.89.27.89.66,0,.19,0,.24-.2.21a2.59,2.59,0,0,0-.67-.1c-1.06,0-1.57.9-1.6,2.42"/><path class="cls-5" d="M147.37,77.77a.66.66,0,0,1-.46-.63c0-.22.1-.26.29-.16a4.76,4.76,0,0,0,2.15.48c1,0,2.19-.33,2.19-2.42v-.58a2.36,2.36,0,0,1-2.11,1,2.59,2.59,0,0,1-2.69-2.89,2.64,2.64,0,0,1,2.68-2.94,2.37,2.37,0,0,1,2.11,1v-.22c0-.51.19-.75.68-.75.16,0,.17.08.17.35v5.07c0,2.48-1.45,3-3,3a4.22,4.22,0,0,1-2.06-.42m2.24-7.34a1.9,1.9,0,0,0-1.94,2.15,1.88,1.88,0,0,0,2,2.11,1.9,1.9,0,0,0,2-2.1,2,2,0,0,0-2-2.16"/><path class="cls-5" d="M154.83,66.91c.14-.21.2-.23.45-.23h.45c.18,0,.23.11.07.27l-1.18,1.24a.39.39,0,0,1-.33.13h-.39c-.1,0-.14,0-.06-.15Zm.14,3.51v4.63c0,.29-.05.34-.33.34h-.18c-.28,0-.34,0-.34-.34V70c0-.23,0-.31.17-.31.49,0,.68.21.68.69"/><path class="cls-5" d="M158.42,72.31a16.14,16.14,0,0,1,1.77.11v-.73c0-1.2-.94-1.31-1.65-1.31a5.86,5.86,0,0,0-1.54.22c-.31.09-.35.05-.35-.11a.56.56,0,0,1,.42-.61,5.78,5.78,0,0,1,1.62-.23c.83,0,2.37.19,2.37,1.92v3.56c0,.24,0,.31-.17.31-.46,0-.66-.17-.7-.56a3.34,3.34,0,0,1-2.08.58c-1.27,0-1.88-.55-1.88-1.63s.73-1.52,2.19-1.52m1.77.78a11.27,11.27,0,0,0-1.6-.09c-.93,0-1.5.11-1.5.83s.46.94,1.23.94a2.85,2.85,0,0,0,1.87-.56Z"/><path class="cls-5" d="M163.35,75.39c-.28,0-.34,0-.34-.32V67.14c0-.34.06-.4.39-.4h2.39c1.69,0,2.39,1,2.39,2.14a1.81,1.81,0,0,1-1.27,2A2,2,0,0,1,168.79,73c0,1.42-.85,2.38-2.76,2.38Zm.52-7.91v3h1.85A1.38,1.38,0,0,0,167.26,69c0-.85-.41-1.51-1.68-1.51Zm0,3.78v3.39h2c1.44,0,2-.69,2-1.7s-.7-1.69-2-1.69Z"/><path class="cls-5" d="M172.78,69.65a2.92,2.92,0,1,1,0,5.83,2.92,2.92,0,1,1,0-5.83m0,5.07a1.92,1.92,0,0,0,2-2.14,2,2,0,1,0-2,2.14"/><path class="cls-5" d="M177.33,77.77a.66.66,0,0,1-.46-.63c0-.22.1-.26.29-.16a4.76,4.76,0,0,0,2.15.48c1,0,2.19-.33,2.19-2.42v-.58a2.36,2.36,0,0,1-2.11,1,2.59,2.59,0,0,1-2.69-2.89,2.64,2.64,0,0,1,2.68-2.94,2.37,2.37,0,0,1,2.11,1v-.22c0-.51.19-.75.68-.75.16,0,.17.08.17.35v5.07c0,2.48-1.45,3-3,3a4.22,4.22,0,0,1-2.06-.42m2.24-7.34a1.9,1.9,0,0,0-1.94,2.15,1.88,1.88,0,0,0,2,2.11,1.9,1.9,0,0,0,2-2.1,2,2,0,0,0-2-2.16"/><path class="cls-5" d="M186.68,69.65a2.92,2.92,0,1,1,0,5.83,2.92,2.92,0,1,1,0-5.83m0,5.07a1.92,1.92,0,0,0,2-2.14,2,2,0,1,0-2,2.14"/><path class="cls-5" d="M192.12,68.39v1.34h1.48c.23,0,.27,0,.27.28v.19c0,.25,0,.28-.27.28h-1.48v3.18c0,.83.44,1,.8,1a1.71,1.71,0,0,0,.85-.22c.13,0,.19,0,.19.2a.66.66,0,0,1-.08.36c-.19.28-.56.43-1.19.43-1,0-1.44-.58-1.44-1.79V70.48h-.68c-.24,0-.27,0-.27-.28V70c0-.24,0-.28.27-.28h.68v-.4c0-.88.28-1.25.68-1.25.18,0,.19.06.19.31"/><path class="cls-5" d="M196.77,72.31a15.85,15.85,0,0,1,1.77.11v-.73c0-1.2-.94-1.31-1.65-1.31a6,6,0,0,0-1.54.22c-.3.09-.35.05-.35-.11a.57.57,0,0,1,.43-.61,5.76,5.76,0,0,1,1.61-.23c.83,0,2.37.19,2.37,1.92v3.56c0,.24,0,.31-.17.31-.45,0-.66-.17-.7-.56a3.33,3.33,0,0,1-2.07.58c-1.27,0-1.88-.55-1.88-1.63s.73-1.52,2.18-1.52m1.77.78a11.27,11.27,0,0,0-1.6-.09c-.93,0-1.5.11-1.5.83s.46.94,1.23.94a2.83,2.83,0,0,0,1.87-.56Zm-1.16-6.18a.42.42,0,0,1,.46-.23h.45c.18,0,.23.11.07.27l-1.18,1.24a.4.4,0,0,1-.33.13h-.39c-.1,0-.14,0-.07-.15Z"/><path d="M93.14,4.92V13.7A4.12,4.12,0,0,0,94,16.39a3.14,3.14,0,0,0,2.57,1,3.47,3.47,0,0,0,2.77-1,4,4,0,0,0,.87-2.7V4.92a.91.91,0,0,1,.1-.55.92.92,0,0,1,.55-.11H101a.87.87,0,0,1,.55.11c.08.07.11.26.11.55v8.8a5,5,0,0,1-1.27,3.6,5,5,0,0,1-3.82,1.33,4.7,4.7,0,0,1-3.64-1.33,5.07,5.07,0,0,1-1.23-3.6V4.92a.89.89,0,0,1,.11-.55.86.86,0,0,1,.53-.11h.16a.89.89,0,0,1,.55.11A.89.89,0,0,1,93.14,4.92Z"/><path d="M113,17.83a.66.66,0,0,1-.11.46.67.67,0,0,1-.45.1h-.3a.67.67,0,0,1-.45-.1.66.66,0,0,1-.11-.46V12.7c0-1.63-.75-2.45-2.25-2.45a2.45,2.45,0,0,0-1.85.68,3,3,0,0,0-.77,1.85v5c0,.24,0,.4-.1.46a.69.69,0,0,1-.46.1h-.28a.71.71,0,0,1-.45-.1.66.66,0,0,1-.11-.46V9.65a1.53,1.53,0,0,1,0-.41q0-.09.24-.09a1.15,1.15,0,0,1,.86.27,1.2,1.2,0,0,1,.26.85v.14a3.38,3.38,0,0,1,3-1.4Q113,9,113,12.6Z"/><path d="M116.37,5.52a.78.78,0,0,1,.24-.6,1,1,0,0,1,1.28,0,.78.78,0,0,1,.24.6.8.8,0,0,1-.25.59,1,1,0,0,1-1.26,0A.76.76,0,0,1,116.37,5.52Zm.46,3.63a1.15,1.15,0,0,1,.86.27,1.2,1.2,0,0,1,.26.85v7.56a.73.73,0,0,1-.1.46.69.69,0,0,1-.46.1h-.28a.67.67,0,0,1-.45-.1.66.66,0,0,1-.11-.46V9.65a1.13,1.13,0,0,1,0-.4C116.63,9.18,116.71,9.15,116.83,9.15Z"/><path d="M129,3.88a1.19,1.19,0,0,1,.87.27,1.16,1.16,0,0,1,.27.85V18.05a.9.9,0,0,1,0,.4c0,.07-.11.1-.23.1a1,1,0,0,1-1.13-1.1V17a3.87,3.87,0,0,1-3.4,1.57,4.12,4.12,0,0,1-3.22-1.29,4.86,4.86,0,0,1-1.17-3.42,5.05,5.05,0,0,1,1.17-3.48A4,4,0,0,1,125.31,9a3.83,3.83,0,0,1,3.42,1.7V4.38a.93.93,0,0,1,.05-.4A.23.23,0,0,1,129,3.88Zm-.17,10a3.91,3.91,0,0,0-.82-2.5,3.32,3.32,0,0,0-4.76-.05,3.82,3.82,0,0,0-.81,2.53,3.74,3.74,0,0,0,.81,2.5,2.9,2.9,0,0,0,2.36.95,2.94,2.94,0,0,0,2.42-1A3.81,3.81,0,0,0,128.83,13.84Z"/><path d="M133,15.84a2.13,2.13,0,0,1,.86-1.91,5.06,5.06,0,0,1,2.71-.57,23.12,23.12,0,0,1,2.89.18v-1.2a2.35,2.35,0,0,0-.18-1,1.73,1.73,0,0,0-.42-.63,1.86,1.86,0,0,0-.64-.35,3.08,3.08,0,0,0-.71-.16c-.22,0-.46,0-.74,0a9.3,9.3,0,0,0-2.52.36.94.94,0,0,1-.48.06q-.09,0-.09-.24a1,1,0,0,1,.69-1A8.23,8.23,0,0,1,137,9a9.36,9.36,0,0,1,.94.05,4.55,4.55,0,0,1,1,.25,3.19,3.19,0,0,1,1,.52,2.48,2.48,0,0,1,.68.92,3.19,3.19,0,0,1,.28,1.39V18a1.09,1.09,0,0,1-.05.4c0,.07-.11.1-.23.1-.7,0-1.08-.3-1.14-.92a5.54,5.54,0,0,1-3.39,1C134,18.51,133,17.62,133,15.84Zm6.46.62V14.64a16.27,16.27,0,0,0-2.61-.16,4.82,4.82,0,0,0-1.87.27,1.08,1.08,0,0,0-.59,1.09,1.32,1.32,0,0,0,.51,1.18,2.61,2.61,0,0,0,1.51.35A4.93,4.93,0,0,0,139.42,16.46Z"/><path d="M151.72,3.88a1.19,1.19,0,0,1,.87.27,1.16,1.16,0,0,1,.27.85V18.05a1.09,1.09,0,0,1-.05.4c0,.07-.11.1-.23.1-.76,0-1.14-.36-1.14-1.1V17a3.84,3.84,0,0,1-3.39,1.57,4.15,4.15,0,0,1-3.23-1.29,4.86,4.86,0,0,1-1.17-3.42,5.05,5.05,0,0,1,1.17-3.48A4,4,0,0,1,148,9a3.81,3.81,0,0,1,3.41,1.7V4.38a.93.93,0,0,1,.05-.4A.24.24,0,0,1,151.72,3.88Zm-.18,10a3.86,3.86,0,0,0-.82-2.5,3.32,3.32,0,0,0-4.76-.05,3.82,3.82,0,0,0-.81,2.53,3.74,3.74,0,0,0,.81,2.5,3.43,3.43,0,0,0,4.78,0A3.81,3.81,0,0,0,151.54,13.84Z"/><path d="M169.32,3.88a1.19,1.19,0,0,1,.87.27,1.16,1.16,0,0,1,.27.85V18.05a1.09,1.09,0,0,1-.05.4c0,.07-.11.1-.23.1-.76,0-1.14-.36-1.14-1.1V17a3.84,3.84,0,0,1-3.39,1.57,4.15,4.15,0,0,1-3.23-1.29,4.9,4.9,0,0,1-1.16-3.42,5.1,5.1,0,0,1,1.16-3.48A4,4,0,0,1,165.63,9a3.8,3.8,0,0,1,3.41,1.7V4.38a1.13,1.13,0,0,1,.05-.4A.24.24,0,0,1,169.32,3.88Zm-.18,10a3.86,3.86,0,0,0-.82-2.5,3.32,3.32,0,0,0-4.76-.05,3.82,3.82,0,0,0-.81,2.53,3.74,3.74,0,0,0,.81,2.5,3.43,3.43,0,0,0,4.78,0A3.81,3.81,0,0,0,169.14,13.84Z"/><path d="M181.46,14.42h-6.53a2.91,2.91,0,0,0,.95,2.19,3.72,3.72,0,0,0,2.34.64,7.05,7.05,0,0,0,1.47-.14c.47-.09.8-.17,1-.23l1.06-.4c.28-.12.42-.05.42.22a1.17,1.17,0,0,1-.79,1.15,7.34,7.34,0,0,1-3.34.68c-3.07,0-4.61-1.51-4.61-4.55a5.32,5.32,0,0,1,1.16-3.69A4.25,4.25,0,0,1,177.9,9a4.08,4.08,0,0,1,3.24,1.23,5,5,0,0,1,1.07,3.36C182.21,14.15,182,14.42,181.46,14.42Zm-3.58-4.21q-2.65,0-2.95,3.07h5.89Q180.72,10.21,177.88,10.21Z"/><path d="M186.53,17.83a.66.66,0,0,1-.11.46.71.71,0,0,1-.45.1h-.3a.67.67,0,0,1-.45-.1c-.08-.06-.11-.22-.11-.46V4.38a.93.93,0,0,1,0-.4.24.24,0,0,1,.23-.1,1.19,1.19,0,0,1,.87.27,1.16,1.16,0,0,1,.27.85Z"/><path d="M102,23.82V36.91a.51.51,0,0,1-.1.38.57.57,0,0,1-.4.1h-.74a.54.54,0,0,1-.5-.23L95,28.21A35,35,0,0,1,93,24.76q.12,1.29.12,4v8.1a.57.57,0,0,1-.09.38c-.06.07-.2.1-.41.1H92.3c-.2,0-.33,0-.39-.1a.57.57,0,0,1-.09-.38V23.82a.75.75,0,0,1,.1-.46.74.74,0,0,1,.48-.1h.73a.68.68,0,0,1,.42.11,1.84,1.84,0,0,1,.36.53l5.79,9.76c.32.56.71,1.35,1.16,2.36a22.36,22.36,0,0,1-.2-2.82V23.82a.75.75,0,0,1,.1-.46.69.69,0,0,1,.46-.1h.22a.44.44,0,0,1,.56.56Z"/><path d="M113.32,33.42h-6.53a2.94,2.94,0,0,0,.95,2.19,3.72,3.72,0,0,0,2.34.64,7.05,7.05,0,0,0,1.47-.14,10,10,0,0,0,1-.23l1.07-.4c.28-.12.42,0,.42.22a1.17,1.17,0,0,1-.8,1.15,7.34,7.34,0,0,1-3.34.68c-3.07,0-4.61-1.51-4.61-4.55a5.32,5.32,0,0,1,1.16-3.69A4.26,4.26,0,0,1,109.77,28,4.08,4.08,0,0,1,113,29.24a4.92,4.92,0,0,1,1.08,3.36C114.08,33.15,113.82,33.42,113.32,33.42Zm-3.58-4.21c-1.76,0-2.75,1-2.95,3.07h5.89Q112.57,29.21,109.74,29.21Z"/><path d="M120.74,42a7,7,0,0,1-3.35-.68,1.14,1.14,0,0,1-.76-1c0-.34.16-.42.48-.26a7.89,7.89,0,0,0,3.51.78,4.94,4.94,0,0,0,1.28-.15,3.6,3.6,0,0,0,1.12-.54,2.55,2.55,0,0,0,.87-1.22,6.08,6.08,0,0,0,.3-2l0-.93a3.83,3.83,0,0,1-3.46,1.65,4.12,4.12,0,0,1-3.22-1.29,4.86,4.86,0,0,1-1.17-3.42,5.05,5.05,0,0,1,1.17-3.48,4,4,0,0,1,3.2-1.33,3.81,3.81,0,0,1,3.45,1.72v-.36a1.38,1.38,0,0,1,.26-.93,1.13,1.13,0,0,1,.86-.29c.12,0,.2,0,.23.11a1.12,1.12,0,0,1,0,.45V37C125.59,40.31,124,42,120.74,42Zm3.54-9.14a3.91,3.91,0,0,0-.82-2.5,3.33,3.33,0,0,0-4.77-.05,3.77,3.77,0,0,0-.82,2.53,3.69,3.69,0,0,0,.82,2.5,3.44,3.44,0,0,0,4.79,0A3.81,3.81,0,0,0,124.28,32.82Z"/><path d="M128.48,32.8a4.78,4.78,0,0,1,1.26-3.5A4.72,4.72,0,0,1,133.28,28a4.65,4.65,0,0,1,3.51,1.3,4.79,4.79,0,0,1,1.26,3.49,4.38,4.38,0,0,1-4.77,4.73,4.37,4.37,0,0,1-4.8-4.73Zm2.34-2.57a3.68,3.68,0,0,0-.88,2.57,3.59,3.59,0,0,0,.88,2.55,3.19,3.19,0,0,0,2.46.94,3.11,3.11,0,0,0,2.43-.94,3.68,3.68,0,0,0,.86-2.55,3.72,3.72,0,0,0-.87-2.57,3.08,3.08,0,0,0-2.42-1A3.14,3.14,0,0,0,130.82,30.23Z"/><path d="M144.93,37.53a4.43,4.43,0,0,1-3.48-1.25,4.92,4.92,0,0,1-1.13-3.42,5.09,5.09,0,0,1,1.17-3.56A4.46,4.46,0,0,1,145,28a4.92,4.92,0,0,1,2.44.58,1.09,1.09,0,0,1,.51,1c0,.16,0,.25-.1.29a.68.68,0,0,1-.39,0,5.49,5.49,0,0,0-2.34-.56,3.05,3.05,0,0,0-2.49,1,3.82,3.82,0,0,0-.82,2.58,3.66,3.66,0,0,0,.81,2.49,3.28,3.28,0,0,0,2.62.92,7.31,7.31,0,0,0,2.4-.47,1,1,0,0,1,.42-.08c.05,0,.07.08.07.22a1.16,1.16,0,0,1-.63,1.11A5.44,5.44,0,0,1,144.93,37.53Z"/><path d="M150.66,24.52a.78.78,0,0,1,.24-.6.89.89,0,0,1,.64-.22.91.91,0,0,1,.64.22.78.78,0,0,1,.24.6.8.8,0,0,1-.25.59.92.92,0,0,1-.63.23.89.89,0,0,1-.63-.23A.76.76,0,0,1,150.66,24.52Zm.46,3.63a1.17,1.17,0,0,1,.86.27,1.2,1.2,0,0,1,.26.85v7.56a.73.73,0,0,1-.1.46.69.69,0,0,1-.46.1h-.28a.67.67,0,0,1-.45-.1c-.08-.06-.11-.22-.11-.46V28.65a1.13,1.13,0,0,1,0-.4C150.92,28.18,151,28.15,151.12,28.15Z"/><path d="M155.21,32.8a4.78,4.78,0,0,1,1.26-3.5,5.43,5.43,0,0,1,7,0,4.79,4.79,0,0,1,1.26,3.49A4.38,4.38,0,0,1,160,37.53a4.72,4.72,0,0,1-3.54-1.27A4.67,4.67,0,0,1,155.21,32.8Zm2.33-2.57a3.72,3.72,0,0,0-.87,2.57,3.64,3.64,0,0,0,.87,2.55,3.2,3.2,0,0,0,2.46.94,3.11,3.11,0,0,0,2.43-.94,3.63,3.63,0,0,0,.86-2.55,3.72,3.72,0,0,0-.87-2.57,3.06,3.06,0,0,0-2.42-1A3.16,3.16,0,0,0,157.54,30.23Z"/><path d="M180.54,22.88A1,1,0,0,1,181.67,24v13a.9.9,0,0,1,0,.4c0,.07-.11.1-.23.1a1,1,0,0,1-1.13-1.1V36a3.86,3.86,0,0,1-3.4,1.57,4.12,4.12,0,0,1-3.22-1.29,4.86,4.86,0,0,1-1.17-3.42,5.05,5.05,0,0,1,1.17-3.48,4,4,0,0,1,3.2-1.33,3.83,3.83,0,0,1,3.42,1.7V23.38a.93.93,0,0,1,.05-.4A.24.24,0,0,1,180.54,22.88Zm-.18,10a3.91,3.91,0,0,0-.82-2.5,3.32,3.32,0,0,0-4.76-.05,3.82,3.82,0,0,0-.81,2.53,3.74,3.74,0,0,0,.81,2.5,3.43,3.43,0,0,0,4.78,0A3.81,3.81,0,0,0,180.36,32.84Z"/><path d="M192.67,33.42h-6.52a2.9,2.9,0,0,0,.94,2.19,3.77,3.77,0,0,0,2.35.64,7,7,0,0,0,1.46-.14,9.38,9.38,0,0,0,1-.23l1.07-.4c.28-.12.42,0,.42.22a1.17,1.17,0,0,1-.8,1.15,7.27,7.27,0,0,1-3.33.68c-3.08,0-4.61-1.51-4.61-4.55a5.27,5.27,0,0,1,1.16-3.69A4.24,4.24,0,0,1,189.12,28a4.06,4.06,0,0,1,3.23,1.23,4.92,4.92,0,0,1,1.08,3.36C193.43,33.15,193.18,33.42,192.67,33.42Zm-3.57-4.21c-1.77,0-2.76,1-2.95,3.07H192C192,30.23,191,29.21,189.1,29.21Z"/><path class="cls-5" d="M100.72,44.94a.88.88,0,0,1-.34.7,1.48,1.48,0,0,1-1,.3H96.29V58.5c0,.23,0,.38-.11.45a.72.72,0,0,1-.44.1h-.38a.74.74,0,0,1-.45-.1.67.67,0,0,1-.1-.45V45.94h-4a.75.75,0,0,1-.45-.09.55.55,0,0,1-.1-.4v-.3c0-.21,0-.34.1-.4a.75.75,0,0,1,.45-.09h9.43a.78.78,0,0,1,.37.05C100.69,44.74,100.72,44.82,100.72,44.94Z"/><path class="cls-5" d="M106.62,50.69a2.16,2.16,0,0,0-2,1.05,5.77,5.77,0,0,0-.7,3v3.76a.71.71,0,0,1-.11.47.73.73,0,0,1-.46.1h-.29a.8.8,0,0,1-.46-.1.71.71,0,0,1-.11-.47V50.15a1.57,1.57,0,0,1,0-.42c0-.06.11-.09.25-.09a1.18,1.18,0,0,1,.87.27,1.19,1.19,0,0,1,.27.87v.65a2.61,2.61,0,0,1,2.62-2c1,0,1.48.37,1.48,1.1a.57.57,0,0,1-.06.32s-.13.05-.26,0A5.43,5.43,0,0,0,106.62,50.69Z"/><path class="cls-5" d="M109.1,56.45a2.16,2.16,0,0,1,.88-2,5.2,5.2,0,0,1,2.75-.57,24.09,24.09,0,0,1,3,.18V52.89a2.5,2.5,0,0,0-.18-1,1.85,1.85,0,0,0-.44-.64,1.82,1.82,0,0,0-.65-.35,3,3,0,0,0-.72-.16,5.66,5.66,0,0,0-.75,0,9.55,9.55,0,0,0-2.56.37,1,1,0,0,1-.49.06c-.07,0-.1-.11-.1-.24a1,1,0,0,1,.71-1,8.17,8.17,0,0,1,2.68-.38,7.33,7.33,0,0,1,1,0,4.18,4.18,0,0,1,1,.25,3.32,3.32,0,0,1,1,.53,2.63,2.63,0,0,1,.69.93,3.35,3.35,0,0,1,.29,1.43v5.93a.94.94,0,0,1-.06.41.24.24,0,0,1-.23.1c-.72,0-1.1-.31-1.16-.94a5.67,5.67,0,0,1-3.45,1C110.14,59.17,109.1,58.26,109.1,56.45Zm6.58.63V55.23a16.69,16.69,0,0,0-2.66-.17,4.89,4.89,0,0,0-1.9.28,1.09,1.09,0,0,0-.6,1.11,1.35,1.35,0,0,0,.52,1.21,2.77,2.77,0,0,0,1.53.35A5,5,0,0,0,115.68,57.08Z"/><path class="cls-5" d="M128,58.48a.71.71,0,0,1-.11.47.8.8,0,0,1-.46.1h-.3a.78.78,0,0,1-.46-.1c-.08-.07-.11-.23-.11-.47V53.25c0-1.66-.77-2.49-2.3-2.49a2.48,2.48,0,0,0-1.88.69,3.09,3.09,0,0,0-.78,1.89v5.14a.44.44,0,0,1-.57.57h-.29a.74.74,0,0,1-.45-.1.65.65,0,0,1-.12-.47V50.15a1.14,1.14,0,0,1,0-.42q0-.09.24-.09a1.16,1.16,0,0,1,.87.27,1.19,1.19,0,0,1,.27.87v.14a3.42,3.42,0,0,1,3.05-1.42c2.23,0,3.35,1.21,3.35,3.65Z"/><path class="cls-5" d="M134.34,50.69c-1.52,0-2.27.43-2.27,1.28a1,1,0,0,0,.58.91,5.59,5.59,0,0,0,1.39.56l1.66.45a2.94,2.94,0,0,1,1.42.86,2.37,2.37,0,0,1,.57,1.66q0,2.76-3.78,2.76a7.56,7.56,0,0,1-2.82-.47,1,1,0,0,1-.69-1.08c0-.18,0-.29.1-.32s.23,0,.49.12a7.37,7.37,0,0,0,2.9.59c1.63,0,2.44-.52,2.44-1.56a1.27,1.27,0,0,0-.58-1.1,4.19,4.19,0,0,0-1.4-.62l-1.66-.43a3.14,3.14,0,0,1-1.41-.77A2,2,0,0,1,130.7,52c0-1.7,1.21-2.54,3.62-2.54a7.36,7.36,0,0,1,2.26.34,1,1,0,0,1,.81,1c0,.16,0,.25-.11.28a1,1,0,0,1-.5-.06A9.57,9.57,0,0,0,134.34,50.69Z"/><path class="cls-5" d="M140.46,49.64a1.18,1.18,0,0,1,.87.27,1.19,1.19,0,0,1,.27.87v.14a3.23,3.23,0,0,1,2.94-1.42,2.51,2.51,0,0,1,2.65,1.74,3.08,3.08,0,0,1,3-1.74q3.08,0,3.07,3.37v5.61a.72.72,0,0,1-.1.47.77.77,0,0,1-.47.1h-.3a.74.74,0,0,1-.45-.1.72.72,0,0,1-.1-.47V53.15c0-1.62-.65-2.44-2-2.44a2.28,2.28,0,0,0-1.69.64,2.89,2.89,0,0,0-.77,1.66v5.47a.71.71,0,0,1-.11.47.8.8,0,0,1-.46.1h-.3a.78.78,0,0,1-.46-.1c-.08-.07-.11-.23-.11-.47V53c0-1.53-.63-2.3-1.89-2.3a2.26,2.26,0,0,0-1.78.7,2.94,2.94,0,0,0-.72,1.81v5.24a.71.71,0,0,1-.11.47.68.68,0,0,1-.44.1h-.31a.74.74,0,0,1-.45-.1.65.65,0,0,1-.12-.47V50.15a1.15,1.15,0,0,1,.05-.41A.25.25,0,0,1,140.46,49.64Z"/><path class="cls-5" d="M156.35,45.94a.76.76,0,0,1,.25-.61.92.92,0,0,1,.65-.23.94.94,0,0,1,.65.23.87.87,0,0,1,0,1.21,1,1,0,0,1-.64.23.93.93,0,0,1-.64-.23A.79.79,0,0,1,156.35,45.94Zm.47,3.7a1.16,1.16,0,0,1,.87.27,1.19,1.19,0,0,1,.27.87v7.7a.44.44,0,0,1-.57.57h-.29a.74.74,0,0,1-.45-.1c-.08-.07-.11-.23-.11-.47V50.15a1,1,0,0,1,.05-.41C156.62,49.67,156.7,49.64,156.82,49.64Z"/><path class="cls-5" d="M164.48,50.69c-1.52,0-2.27.43-2.27,1.28a1,1,0,0,0,.58.91,5.75,5.75,0,0,0,1.39.56l1.66.45a2.94,2.94,0,0,1,1.42.86,2.38,2.38,0,0,1,.58,1.66c0,1.84-1.27,2.76-3.78,2.76a7.58,7.58,0,0,1-2.83-.47,1,1,0,0,1-.69-1.08c0-.18,0-.29.1-.32s.23,0,.49.12A7.41,7.41,0,0,0,164,58c1.63,0,2.44-.52,2.44-1.56a1.27,1.27,0,0,0-.58-1.1,4.19,4.19,0,0,0-1.4-.62l-1.66-.43a3.14,3.14,0,0,1-1.41-.77,2,2,0,0,1-.58-1.49c0-1.7,1.21-2.54,3.62-2.54a7.36,7.36,0,0,1,2.26.34,1,1,0,0,1,.81,1c0,.16,0,.25-.11.28a1,1,0,0,1-.5-.06A9.57,9.57,0,0,0,164.48,50.69Z"/><path class="cls-5" d="M170.21,45.94a.8.8,0,0,1,.25-.61,1,1,0,0,1,1.3,0,.87.87,0,0,1,0,1.21,1,1,0,0,1-1.28,0A.79.79,0,0,1,170.21,45.94Zm.47,3.7a1.2,1.2,0,0,1,.88.27,1.24,1.24,0,0,1,.26.87v7.7a.72.72,0,0,1-.1.47.79.79,0,0,1-.47.1H171a.75.75,0,0,1-.46-.1c-.08-.07-.11-.23-.11-.47V50.15a1,1,0,0,1,0-.41C170.48,49.67,170.56,49.64,170.68,49.64Z"/><path class="cls-5" d="M174.46,54.37a4.88,4.88,0,0,1,1.28-3.56,5.56,5.56,0,0,1,7.18,0,4.89,4.89,0,0,1,1.28,3.55,4.88,4.88,0,1,1-9.74,0Zm2.38-2.62a3.77,3.77,0,0,0-.9,2.62,3.63,3.63,0,0,0,.9,2.59,3.23,3.23,0,0,0,2.5,1,3.15,3.15,0,0,0,2.48-1,3.71,3.71,0,0,0,.87-2.59,3.81,3.81,0,0,0-.88-2.62,3.14,3.14,0,0,0-2.47-1A3.2,3.2,0,0,0,176.84,51.75ZM178.2,47l1.65-2.1a.94.94,0,0,1,.31-.32,1.18,1.18,0,0,1,.44-.06h.75c.16,0,.26,0,.28.12s0,.19-.16.32l-2,2.08a.76.76,0,0,1-.55.2h-.65C178.11,47.28,178.08,47.2,178.2,47Z"/><path class="cls-5" d="M194.66,58.48c0,.24,0,.4-.11.47a.74.74,0,0,1-.45.1h-.31a.8.8,0,0,1-.46-.1.71.71,0,0,1-.11-.47V53.25c0-1.66-.76-2.49-2.3-2.49a2.48,2.48,0,0,0-1.88.69,3.09,3.09,0,0,0-.78,1.89v5.14a.72.72,0,0,1-.1.47.77.77,0,0,1-.47.1h-.28A.8.8,0,0,1,187,59a.71.71,0,0,1-.11-.47V50.15a1.23,1.23,0,0,1,0-.42q0-.09.24-.09a1.2,1.2,0,0,1,.88.27,1.24,1.24,0,0,1,.26.87v.14a3.44,3.44,0,0,1,3.05-1.42c2.24,0,3.35,1.21,3.35,3.65Z"/></g></g></svg>