<svg xmlns="http://www.w3.org/2000/svg" viewBox="0 0 104 104"><defs><style>.a{fill:#fff;}</style></defs><path class="a" d="M97.612,0H6.3A6.289,6.289,0,0,0,0,6.3V97.7A6.289,6.289,0,0,0,6.3,104H97.7a6.289,6.289,0,0,0,6.3-6.3V6.3A6.417,6.417,0,0,0,97.612,0ZM42.844,97.016A35.9,35.9,0,1,1,78.788,61.156,35.879,35.879,0,0,1,42.844,97.016ZM97.271,35.859H92.842L92.586,37.9,96.93,39.1l-1.022,3.748-4.344-1.192c-.256.681-.511,1.278-.767,1.959l3.833,2.215-1.959,3.407-3.833-2.215c-.426.6-.852,1.107-1.278,1.7l3.152,3.152L87.987,54.6l-3.152-3.152c-.511.426-1.107.852-1.7,1.278l2.215,3.833-1.618.937a39.234,39.234,0,0,0-4.174-14.735,12.921,12.921,0,0,0,3.492-8.943A13.123,13.123,0,0,0,69.93,20.7a12.839,12.839,0,0,0-8.943,3.577,40.774,40.774,0,0,0-14.735-4.088l1.022-1.7L51.106,20.7c.426-.6.852-1.107,1.278-1.7l-3.152-3.152,2.726-2.726,3.152,3.152c.511-.426,1.107-.852,1.7-1.278l-2.3-3.748L57.92,9.284l2.215,3.833a13.384,13.384,0,0,1,1.959-.767L60.9,8.007l3.833-1.022,1.192,4.344a16.754,16.754,0,0,1,2.044-.256V6.559h3.918v4.429l2.044.256L75.125,6.9l3.748,1.022-1.192,4.344c.681.256,1.278.511,1.959.767L81.854,9.2l3.407,1.959-2.215,3.833c.6.426,1.107.852,1.7,1.278L87.9,13.117l2.726,2.726-3.152,3.152c.426.511.852,1.107,1.278,1.7l3.833-2.215,1.959,3.407L90.713,24.1a13.384,13.384,0,0,1,.767,1.959l4.344-1.192,1.022,3.748L92.5,29.812a16.754,16.754,0,0,1,.256,2.044h4.429v4Z"/><path class="a" d="M59.6,46.4A2.633,2.633,0,0,0,56.2,48L48.4,70.1,37.3,76.5a2.62,2.62,0,0,0-1,3.6,2.772,2.772,0,0,0,2.3,1.3,2.2,2.2,0,0,0,1.3-.4l12.8-7.3,8.5-23.9A2.716,2.716,0,0,0,59.6,46.4Z" transform="translate(-6.73 -9.627)"/><path class="a" d="M50.3,41.4a1.58,1.58,0,0,0,1.6-1.6V35.4a1.6,1.6,0,1,0-3.2,0v4.4A1.58,1.58,0,0,0,50.3,41.4Z" transform="translate(-7.414 -5.343)"/><path class="a" d="M18.2,70.3H13.8a1.6,1.6,0,1,0,0,3.2h4.4a1.6,1.6,0,1,0,0-3.2Z" transform="translate(0 -10.702)"/><path class="a" d="M50.3,102.2a1.58,1.58,0,0,0-1.6,1.6v4.4a1.6,1.6,0,0,0,3.2,0v-4.4A1.645,1.645,0,0,0,50.3,102.2Z" transform="translate(-7.414 -18.1)"/><path class="a" d="M82.4,73.4h4.4a1.6,1.6,0,0,0,0-3.2H82.4a1.58,1.58,0,0,0-1.6,1.6h0A1.58,1.58,0,0,0,82.4,73.4Z" transform="translate(-12.773 -10.686)"/></svg>