<svg xmlns="http://www.w3.org/2000/svg" viewBox="0 0 104 104"><defs><style>.a{fill:#f2f2f2;}</style></defs><path class="a" d="M97.612,0H6.3A6.289,6.289,0,0,0,0,6.3V97.7A6.289,6.289,0,0,0,6.3,104H97.7a6.289,6.289,0,0,0,6.3-6.3V6.3A6.417,6.417,0,0,0,97.612,0Zm-58,7.155a21.434,21.434,0,0,1,14.48,7.921A21.055,21.055,0,0,1,58.6,26.49L37.392,28.364ZM51.361,89.946a4.259,4.259,0,0,1-8.518,0V71.633a4.259,4.259,0,0,1,8.518,0Zm-4.6-41.055A21.337,21.337,0,1,1,20.187,15.5a20.992,20.992,0,0,1,15.5-4.514L33.474,32.2l21.209-1.874A21.093,21.093,0,0,1,46.762,48.891Zm19.25,41.055a4.259,4.259,0,1,1-8.518,0V65.756a4.259,4.259,0,0,1,8.518,0Zm14.565,0a4.259,4.259,0,0,1-8.518,0V58.771a4.259,4.259,0,0,1,8.518,0Zm14.65,0A4.217,4.217,0,0,1,90.968,94.2h0a4.217,4.217,0,0,1-4.259-4.259V48.976a4.217,4.217,0,0,1,4.259-4.259h0a4.217,4.217,0,0,1,4.259,4.259Z"/></svg>