<svg xmlns="http://www.w3.org/2000/svg" viewBox="0 0 104 104"><defs><style>.a{fill:#f2f2f2;}</style></defs><path class="a" d="M97.612,0H6.3A6.289,6.289,0,0,0,0,6.3V97.7A6.289,6.289,0,0,0,6.3,104H97.7a6.289,6.289,0,0,0,6.3-6.3V6.3A6.417,6.417,0,0,0,97.612,0Zm-.341,91.82a5.489,5.489,0,0,1-5.451,5.451H12.1A5.489,5.489,0,0,1,6.644,91.82V12.1A5.489,5.489,0,0,1,12.1,6.644h31.43A5.489,5.489,0,0,1,48.976,12.1V20.1H91.82a5.489,5.489,0,0,1,5.451,5.451V91.82Z"/><path class="a" d="M33.239,35.7h-13.2A3.235,3.235,0,0,0,16.8,38.937v8.518a3.235,3.235,0,0,0,3.237,3.237h13.2a3.235,3.235,0,0,0,3.237-3.237V38.937A3.235,3.235,0,0,0,33.239,35.7Z" transform="translate(-2.49 -5.292)"/><path class="a" d="M33.239,61h-13.2A3.235,3.235,0,0,0,16.8,64.237v8.518a3.235,3.235,0,0,0,3.237,3.237h13.2a3.235,3.235,0,0,0,3.237-3.237V64.237A3.235,3.235,0,0,0,33.239,61Z" transform="translate(-2.49 -9.043)"/><path class="a" d="M33.239,86.3h-13.2A3.235,3.235,0,0,0,16.8,89.537v8.518a3.235,3.235,0,0,0,3.237,3.237h13.2a3.235,3.235,0,0,0,3.237-3.237V89.537A3.291,3.291,0,0,0,33.239,86.3Z" transform="translate(-2.49 -12.793)"/><path class="a" d="M91.558,35.7H47.437A3.235,3.235,0,0,0,44.2,38.937v8.518a3.235,3.235,0,0,0,3.237,3.237H91.558a3.235,3.235,0,0,0,3.237-3.237V38.937A3.235,3.235,0,0,0,91.558,35.7Z" transform="translate(-6.552 -5.292)"/><path class="a" d="M91.558,61H47.437A3.235,3.235,0,0,0,44.2,64.237v8.518a3.235,3.235,0,0,0,3.237,3.237H91.558a3.235,3.235,0,0,0,3.237-3.237V64.237A3.235,3.235,0,0,0,91.558,61Z" transform="translate(-6.552 -9.043)"/><path class="a" d="M91.558,86.3H47.437A3.235,3.235,0,0,0,44.2,89.537v8.518a3.235,3.235,0,0,0,3.237,3.237H91.558a3.235,3.235,0,0,0,3.237-3.237V89.537A3.291,3.291,0,0,0,91.558,86.3Z" transform="translate(-6.552 -12.793)"/></svg>