<svg xmlns="http://www.w3.org/2000/svg" viewBox="0 0 104 104"><defs><style>.a{fill:#f2f2f2;}</style></defs><path class="a" d="M97.1,89.139l-4.644,4.644-1.9-1.9a1.777,1.777,0,0,0-2.512,2.512l4.416,4.416,7.157-7.157A1.777,1.777,0,1,0,97.1,89.139Z" transform="translate(-12.125 -12.404)"/><path class="a" d="M97.612,0H6.3A6.289,6.289,0,0,0,0,6.3V97.7A6.289,6.289,0,0,0,6.3,104H97.7a6.289,6.289,0,0,0,6.3-6.3V6.3A6.417,6.417,0,0,0,97.612,0ZM39.437,14.821H86.88a2.981,2.981,0,1,1,0,5.962H39.437a2.981,2.981,0,1,1,0-5.962Zm0,10.136H57.664a2.981,2.981,0,1,1,0,5.962H39.437a2.981,2.981,0,1,1,0-5.962Zm0,20.016H86.88a2.981,2.981,0,0,1,0,5.962H39.437a2.981,2.981,0,0,1,0-5.962ZM12.351,15.843a2.472,2.472,0,0,1,2.47-2.47H28.7a2.472,2.472,0,0,1,2.47,2.47V29.812a2.472,2.472,0,0,1-2.47,2.47H14.821a2.472,2.472,0,0,1-2.47-2.47Zm0,30.152a2.472,2.472,0,0,1,2.47-2.47H28.7A2.472,2.472,0,0,1,31.174,46V59.879a2.472,2.472,0,0,1-2.47,2.47H14.821a2.472,2.472,0,0,1-2.47-2.47ZM45.569,93.949H15.332a2.981,2.981,0,0,1,0-5.962H45.569a2.981,2.981,0,0,1,0,5.962ZM57.664,61.071H39.437a2.981,2.981,0,1,1,0-5.962H57.664a2.981,2.981,0,1,1,0,5.962ZM81.6,93.949A12.776,12.776,0,1,1,94.375,81.173,12.759,12.759,0,0,1,81.6,93.949Z"/></svg>