<svg xmlns="http://www.w3.org/2000/svg" viewBox="0 0 64 192"><defs><style>.a{fill:#fff;}</style></defs><g transform="translate(-0.023 0.077)"><g transform="translate(0.023 -0.077)"><g transform="translate(22.345 7.657)"><path class="a" d="M92.2,44.352H73.83a.521.521,0,0,1-.4-.213.481.481,0,0,1-.03-.456l9.2-18.34A.476.476,0,0,1,83,25.1a.439.439,0,0,1,.4.243l9.2,18.34a.487.487,0,0,1-.03.456A.423.423,0,0,1,92.2,44.352ZM74.561,43.44h16.91L83,26.56Z" transform="translate(-73.361 -25.1)"/></g><g transform="translate(22.357 25.997)"><path class="a" d="M92.229,104.652H73.857a.468.468,0,0,1-.457-.456V85.856a.468.468,0,0,1,.457-.456H92.229a.468.468,0,0,1,.457.456V104.2A.468.468,0,0,1,92.229,104.652Zm-17.915-.912H91.772V86.312H74.314Z" transform="translate(-73.4 -85.4)"/></g><g transform="translate(40.699 25.988)"><path class="a" d="M156.421,104.631H134.057a.468.468,0,0,1-.457-.456V85.834a.459.459,0,0,1,.274-.426.478.478,0,0,1,.488.061l22.364,18.34a.478.478,0,0,1,.152.517A.469.469,0,0,1,156.421,104.631Zm-21.876-.912h20.627l-20.627-16.91Z" transform="translate(-133.6 -85.369)"/></g><g transform="translate(31.543 0.03)"><path class="a" d="M113.193,26.9h0a.408.408,0,0,1-.4-.243l-9.2-18.34a.45.45,0,0,1,0-.4.432.432,0,0,1,.274-.243L127.879.047a.434.434,0,0,1,.488.152.457.457,0,0,1,.03.517L113.589,26.69A.521.521,0,0,1,113.193,26.9ZM104.632,8.38l8.562,17.093L127,1.263Z" transform="translate(-103.55 -0.023)"/></g><g transform="translate(7.514)"><path class="a" d="M39.986,26.833a.476.476,0,0,1-.4-.243L24.751.616A.46.46,0,0,1,24.782.1a.434.434,0,0,1,.487-.152L49.278,7.581a.372.372,0,0,1,.274.243.587.587,0,0,1,0,.4L40.382,26.59a.408.408,0,0,1-.4.243ZM26.153,1.194l13.8,24.21L48.517,8.311Z" transform="translate(-24.686 0.077)"/></g><g transform="translate(40.699 62.668)"><path class="a" d="M156.421,225.231H134.057a.468.468,0,0,1-.457-.456v-18.34a.459.459,0,0,1,.274-.426.478.478,0,0,1,.488.061l22.364,18.34a.478.478,0,0,1,.152.517A.469.469,0,0,1,156.421,225.231Zm-21.876-.912h20.627l-20.627-16.911Z" transform="translate(-133.6 -205.969)"/></g><g transform="translate(40.699 99.348)"><path class="a" d="M156.421,345.831H134.057a.468.468,0,0,1-.457-.456v-18.34a.459.459,0,0,1,.274-.426.478.478,0,0,1,.488.061l22.364,18.34a.478.478,0,0,1,.152.517A.469.469,0,0,1,156.421,345.831Zm-21.876-.912h20.627l-20.627-16.91Z" transform="translate(-133.6 -326.569)"/></g><g transform="translate(22.357 44.337)"><path class="a" d="M92.229,164.952H73.857a.468.468,0,0,1-.457-.456v-18.34a.468.468,0,0,1,.457-.456H92.229a.468.468,0,0,1,.457.456V164.5A.468.468,0,0,1,92.229,164.952Zm-17.915-.912H91.772V146.612H74.314Z" transform="translate(-73.4 -145.7)"/></g><g transform="translate(22.357 62.677)"><path class="a" d="M92.229,225.252H73.857a.468.468,0,0,1-.457-.456v-18.34a.468.468,0,0,1,.457-.456H92.229a.468.468,0,0,1,.457.456V224.8A.468.468,0,0,1,92.229,225.252Zm-17.915-.912H91.772V206.912H74.314Z" transform="translate(-73.4 -206)"/></g><g transform="translate(22.357 81.017)"><path class="a" d="M92.229,285.552H73.857a.468.468,0,0,1-.457-.456v-18.34a.468.468,0,0,1,.457-.456H92.229a.468.468,0,0,1,.457.456V285.1A.468.468,0,0,1,92.229,285.552Zm-17.915-.912H91.772V267.212H74.314Z" transform="translate(-73.4 -266.3)"/></g><g transform="translate(22.357 99.357)"><path class="a" d="M92.229,345.852H73.857a.468.468,0,0,1-.457-.456v-18.34a.468.468,0,0,1,.457-.456H92.229a.468.468,0,0,1,.457.456V345.4A.448.448,0,0,1,92.229,345.852Zm-17.915-.912H91.772V327.512H74.314Z" transform="translate(-73.4 -326.6)"/></g><g transform="translate(9.255 117.727)"><path class="a" d="M74.975,460.877l-13.01-72.995H44.324l-13.01,72.995-.914-.152,13.1-73.36a.459.459,0,0,1,.457-.365H62.331a.485.485,0,0,1,.457.365l13.1,73.36Z" transform="translate(-30.4 -387)"/></g><g transform="translate(15.532 25.982)"><path class="a" d="M89.725,251.368a.354.354,0,0,1-.3-.122L51,214.14l28.153-18.31L57.581,177.552l18.4-18.37-18.372-18.34L75.984,122.5l-18.372-18.34L76.319,85.487a.452.452,0,0,1,.64.639L58.922,104.161,77.294,122.5l-18.372,18.34,18.372,18.34-18.342,18.31,21.724,18.431-28.214,18.37,37.6,36.285a.44.44,0,0,1,0,.639A.49.49,0,0,1,89.725,251.368Z" transform="translate(-51 -85.35)"/></g><g transform="translate(9.24 25.982)"><path class="a" d="M30.822,251.368a.49.49,0,0,1-.335-.152.44.44,0,0,1,0-.639l37.6-36.285-28.214-18.37L61.6,177.491l-18.342-18.31,18.372-18.34L43.253,122.5l18.372-18.34L43.589,86.126a.452.452,0,0,1,.64-.639l18.708,18.675L44.564,122.5l18.372,18.34-18.372,18.34,18.4,18.37L41.395,195.831l28.153,18.31L31.127,251.216A.375.375,0,0,1,30.822,251.368Z" transform="translate(-30.35 -85.35)"/></g><g transform="translate(40.303 104.102)"><path class="a" d="M132.3,357.1l6.794-14.9,10.085,8.273Zm7.13-13.443-5.393,11.77,13.345-5.231Z" transform="translate(-132.3 -342.2)"/></g><g transform="translate(40.303 67.422)"><path class="a" d="M132.3,236.5l6.794-14.9,10.085,8.273Zm7.13-13.474-5.393,11.77,13.345-5.231Z" transform="translate(-132.3 -221.6)"/></g><g transform="translate(40.303 30.712)"><path class="a" d="M132.3,115.8l6.794-14.9,10.085,8.273Zm7.13-13.443-5.393,11.77,13.345-5.231Z" transform="translate(-132.3 -100.9)"/></g><g transform="translate(0 25.988)"><path class="a" d="M22.837,104.631H.473a.458.458,0,0,1-.427-.3.478.478,0,0,1,.152-.517l22.364-18.34a.47.47,0,0,1,.487-.061.477.477,0,0,1,.274.426v18.34A.52.52,0,0,1,22.837,104.631Zm-21.084-.912H22.38V86.808Z" transform="translate(-0.023 -85.369)"/></g><g transform="translate(0 62.668)"><path class="a" d="M22.837,225.231H.473a.458.458,0,0,1-.427-.3.478.478,0,0,1,.152-.517l22.364-18.34a.47.47,0,0,1,.487-.061.477.477,0,0,1,.274.426v18.34A.52.52,0,0,1,22.837,225.231Zm-21.084-.912H22.38V207.408Z" transform="translate(-0.023 -205.969)"/></g><g transform="translate(0 99.378)"><path class="a" d="M22.837,345.9H.473a.458.458,0,0,1-.427-.3.478.478,0,0,1,.152-.517l22.333-18.31a.47.47,0,0,1,.487-.061.477.477,0,0,1,.274.426v18.34A.442.442,0,0,1,22.837,345.9Zm-21.084-.912H22.38v-16.91Z" transform="translate(-0.023 -326.669)"/></g><g transform="translate(6.787 104.102)"><path class="a" d="M39.21,357.1l-16.91-6.63L32.385,342.2Zm-15.143-6.9,13.376,5.231L32.05,343.66Z" transform="translate(-22.3 -342.2)"/></g><g transform="translate(6.787 67.422)"><path class="a" d="M39.21,236.5l-16.91-6.63L32.385,221.6Zm-15.143-6.9,13.376,5.231L32.05,223.06Z" transform="translate(-22.3 -221.6)"/></g><g transform="translate(6.787 30.712)"><path class="a" d="M39.21,115.8l-16.91-6.63L32.385,100.9Zm-15.143-6.9,13.376,5.231L32.05,102.36Z" transform="translate(-22.3 -100.9)"/></g><g transform="translate(16.324 3.491)"><path class="a" d="M54.057,24.265a.575.575,0,0,1-.244-.061.443.443,0,0,1-.213-.4L54.24,11.4l.914.061-.609,11.618,14.5-7.421.427.821L54.27,24.2A.566.566,0,0,1,54.057,24.265Z" transform="translate(-53.6 -11.4)"/></g><g transform="translate(31.771 3.43)"><path class="a" d="M119.717,24.126a.565.565,0,0,1-.213-.061l-15.2-7.786.427-.821,14.5,7.421-.609-11.618.914-.061.64,12.409a.443.443,0,0,1-.213.4A.277.277,0,0,1,119.717,24.126Z" transform="translate(-104.3 -11.2)"/></g></g><g transform="translate(59.216 45.871)"><path class="a" d="M198.017,157.477H194.94a.643.643,0,0,1-.64-.639h0a.643.643,0,0,1,.64-.639h3.077a.643.643,0,0,1,.64.639h0A.664.664,0,0,1,198.017,157.477Z" transform="translate(-194.3 -154.617)"/><path class="a" d="M199.486,152.244H196.5A1.254,1.254,0,0,1,197.749,151h.457a1.241,1.241,0,0,1,1.28,1.247Z" transform="translate(-195.83 -150.996)"/><path class="a" d="M196.5,183.2h2.986a1.254,1.254,0,0,1-1.249,1.247h-.457a1.241,1.241,0,0,1-1.28-1.247Z" transform="translate(-195.83 -173.405)"/><path class="a" d="M198.017,162.877H194.94a.643.643,0,0,1-.64-.639h0a.643.643,0,0,1,.64-.639h3.077a.643.643,0,0,1,.64.639h0A.664.664,0,0,1,198.017,162.877Z" transform="translate(-194.3 -158.375)"/><path class="a" d="M198.017,168.277H194.94a.643.643,0,0,1-.64-.639h0a.643.643,0,0,1,.64-.639h3.077a.643.643,0,0,1,.64.639h0A.664.664,0,0,1,198.017,168.277Z" transform="translate(-194.3 -162.133)"/><path class="a" d="M198.017,173.677H194.94a.643.643,0,0,1-.64-.639h0a.643.643,0,0,1,.64-.639h3.077a.643.643,0,0,1,.64.639h0A.664.664,0,0,1,198.017,173.677Z" transform="translate(-194.3 -165.89)"/><path class="a" d="M198.017,179.077H194.94a.643.643,0,0,1-.64-.639h0a.643.643,0,0,1,.64-.639h3.077a.643.643,0,0,1,.64.639h0A.687.687,0,0,1,198.017,179.077Z" transform="translate(-194.3 -169.648)"/></g><g transform="translate(0.473 45.871)"><path class="a" d="M5.217,157.477H2.14a.643.643,0,0,1-.64-.639h0a.643.643,0,0,1,.64-.639H5.217a.643.643,0,0,1,.64.639h0A.664.664,0,0,1,5.217,157.477Z" transform="translate(-1.5 -154.617)"/><path class="a" d="M6.686,152.244H3.7A1.254,1.254,0,0,1,4.949,151h.457a1.241,1.241,0,0,1,1.28,1.247Z" transform="translate(-3.03 -150.996)"/><path class="a" d="M3.7,183.2H6.686a1.254,1.254,0,0,1-1.249,1.247H4.98A1.241,1.241,0,0,1,3.7,183.2Z" transform="translate(-3.03 -173.405)"/><path class="a" d="M5.217,162.877H2.14a.643.643,0,0,1-.64-.639h0a.643.643,0,0,1,.64-.639H5.217a.643.643,0,0,1,.64.639h0A.664.664,0,0,1,5.217,162.877Z" transform="translate(-1.5 -158.375)"/><path class="a" d="M5.217,168.277H2.14a.643.643,0,0,1-.64-.639h0A.643.643,0,0,1,2.14,167H5.217a.643.643,0,0,1,.64.639h0A.664.664,0,0,1,5.217,168.277Z" transform="translate(-1.5 -162.133)"/><path class="a" d="M5.217,173.677H2.14a.643.643,0,0,1-.64-.639h0a.643.643,0,0,1,.64-.639H5.217a.643.643,0,0,1,.64.639h0A.664.664,0,0,1,5.217,173.677Z" transform="translate(-1.5 -165.89)"/><path class="a" d="M5.217,179.077H2.14a.643.643,0,0,1-.64-.639h0a.643.643,0,0,1,.64-.639H5.217a.643.643,0,0,1,.64.639h0A.687.687,0,0,1,5.217,179.077Z" transform="translate(-1.5 -169.648)"/></g><g transform="translate(59.216 82.644)"><path class="a" d="M198.017,278.477H194.94a.643.643,0,0,1-.64-.639h0a.643.643,0,0,1,.64-.639h3.077a.643.643,0,0,1,.64.639h0A.664.664,0,0,1,198.017,278.477Z" transform="translate(-194.3 -275.588)"/><path class="a" d="M199.486,273.147H196.5a1.254,1.254,0,0,1,1.249-1.247h.457a1.26,1.26,0,0,1,1.28,1.247Z" transform="translate(-195.83 -271.9)"/><path class="a" d="M196.5,304.2h2.986a1.254,1.254,0,0,1-1.249,1.247h-.457a1.26,1.26,0,0,1-1.28-1.247Z" transform="translate(-195.83 -294.376)"/><path class="a" d="M198.017,283.877H194.94a.643.643,0,0,1-.64-.639h0a.643.643,0,0,1,.64-.639h3.077a.643.643,0,0,1,.64.639h0A.664.664,0,0,1,198.017,283.877Z" transform="translate(-194.3 -279.346)"/><path class="a" d="M198.017,289.277H194.94a.643.643,0,0,1-.64-.639h0a.643.643,0,0,1,.64-.639h3.077a.643.643,0,0,1,.64.639h0A.664.664,0,0,1,198.017,289.277Z" transform="translate(-194.3 -283.103)"/><path class="a" d="M198.017,294.677H194.94a.643.643,0,0,1-.64-.639h0a.643.643,0,0,1,.64-.639h3.077a.643.643,0,0,1,.64.639h0A.687.687,0,0,1,198.017,294.677Z" transform="translate(-194.3 -286.861)"/><path class="a" d="M198.017,300.077H194.94a.643.643,0,0,1-.64-.639h0a.643.643,0,0,1,.64-.639h3.077a.643.643,0,0,1,.64.639h0A.687.687,0,0,1,198.017,300.077Z" transform="translate(-194.3 -290.618)"/></g><g transform="translate(0.473 82.644)"><path class="a" d="M5.217,278.477H2.14a.643.643,0,0,1-.64-.639h0a.643.643,0,0,1,.64-.639H5.217a.643.643,0,0,1,.64.639h0A.664.664,0,0,1,5.217,278.477Z" transform="translate(-1.5 -275.588)"/><path class="a" d="M6.686,273.147H3.7A1.254,1.254,0,0,1,4.949,271.9h.457a1.26,1.26,0,0,1,1.28,1.247Z" transform="translate(-3.03 -271.9)"/><path class="a" d="M3.7,304.2H6.686a1.254,1.254,0,0,1-1.249,1.247H4.98A1.26,1.26,0,0,1,3.7,304.2Z" transform="translate(-3.03 -294.376)"/><path class="a" d="M5.217,283.877H2.14a.643.643,0,0,1-.64-.639h0a.643.643,0,0,1,.64-.639H5.217a.643.643,0,0,1,.64.639h0A.664.664,0,0,1,5.217,283.877Z" transform="translate(-1.5 -279.346)"/><path class="a" d="M5.217,289.277H2.14a.643.643,0,0,1-.64-.639h0A.643.643,0,0,1,2.14,288H5.217a.643.643,0,0,1,.64.639h0A.664.664,0,0,1,5.217,289.277Z" transform="translate(-1.5 -283.103)"/><path class="a" d="M5.217,294.677H2.14a.643.643,0,0,1-.64-.639h0a.643.643,0,0,1,.64-.639H5.217a.643.643,0,0,1,.64.639h0A.687.687,0,0,1,5.217,294.677Z" transform="translate(-1.5 -286.861)"/><path class="a" d="M5.217,300.077H2.14a.643.643,0,0,1-.64-.639h0a.643.643,0,0,1,.64-.639H5.217a.643.643,0,0,1,.64.639h0A.687.687,0,0,1,5.217,300.077Z" transform="translate(-1.5 -290.618)"/></g><g transform="translate(59.216 119.445)"><path class="a" d="M198.017,399.477H194.94a.643.643,0,0,1-.64-.639h0a.643.643,0,0,1,.64-.639h3.077a.643.643,0,0,1,.64.639h0A.664.664,0,0,1,198.017,399.477Z" transform="translate(-194.3 -396.588)"/><path class="a" d="M199.486,394.147H196.5a1.254,1.254,0,0,1,1.249-1.247h.457a1.26,1.26,0,0,1,1.28,1.247Z" transform="translate(-195.83 -392.9)"/><path class="a" d="M196.5,425.2h2.986a1.254,1.254,0,0,1-1.249,1.247h-.457a1.26,1.26,0,0,1-1.28-1.247Z" transform="translate(-195.83 -415.376)"/><path class="a" d="M198.017,404.877H194.94a.643.643,0,0,1-.64-.639h0a.643.643,0,0,1,.64-.639h3.077a.643.643,0,0,1,.64.639h0A.687.687,0,0,1,198.017,404.877Z" transform="translate(-194.3 -400.346)"/><path class="a" d="M198.017,410.277H194.94a.643.643,0,0,1-.64-.639h0a.643.643,0,0,1,.64-.639h3.077a.643.643,0,0,1,.64.639h0A.687.687,0,0,1,198.017,410.277Z" transform="translate(-194.3 -404.103)"/><path class="a" d="M198.017,415.577H194.94a.643.643,0,0,1-.64-.639h0a.643.643,0,0,1,.64-.639h3.077a.643.643,0,0,1,.64.639h0A.664.664,0,0,1,198.017,415.577Z" transform="translate(-194.3 -407.791)"/><path class="a" d="M198.017,420.977H194.94a.643.643,0,0,1-.64-.639h0a.643.643,0,0,1,.64-.639h3.077a.643.643,0,0,1,.64.639h0A.664.664,0,0,1,198.017,420.977Z" transform="translate(-194.3 -411.549)"/></g><g transform="translate(0.473 119.445)"><path class="a" d="M5.217,399.477H2.14a.643.643,0,0,1-.64-.639h0a.643.643,0,0,1,.64-.639H5.217a.643.643,0,0,1,.64.639h0A.664.664,0,0,1,5.217,399.477Z" transform="translate(-1.5 -396.588)"/><path class="a" d="M6.686,394.147H3.7A1.254,1.254,0,0,1,4.949,392.9h.457a1.26,1.26,0,0,1,1.28,1.247Z" transform="translate(-3.03 -392.9)"/><path class="a" d="M3.7,425.2H6.686a1.254,1.254,0,0,1-1.249,1.247H4.98A1.26,1.26,0,0,1,3.7,425.2Z" transform="translate(-3.03 -415.376)"/><path class="a" d="M5.217,404.877H2.14a.643.643,0,0,1-.64-.639h0a.643.643,0,0,1,.64-.639H5.217a.643.643,0,0,1,.64.639h0A.687.687,0,0,1,5.217,404.877Z" transform="translate(-1.5 -400.346)"/><path class="a" d="M5.217,410.277H2.14a.643.643,0,0,1-.64-.639h0A.643.643,0,0,1,2.14,409H5.217a.643.643,0,0,1,.64.639h0A.687.687,0,0,1,5.217,410.277Z" transform="translate(-1.5 -404.103)"/><path class="a" d="M5.217,415.577H2.14a.643.643,0,0,1-.64-.639h0a.643.643,0,0,1,.64-.639H5.217a.643.643,0,0,1,.64.639h0A.664.664,0,0,1,5.217,415.577Z" transform="translate(-1.5 -407.791)"/><path class="a" d="M5.217,420.977H2.14a.643.643,0,0,1-.64-.639h0a.643.643,0,0,1,.64-.639H5.217a.643.643,0,0,1,.64.639h0A.664.664,0,0,1,5.217,420.977Z" transform="translate(-1.5 -411.549)"/></g></g></svg>