<svg xmlns="http://www.w3.org/2000/svg" viewBox="0 0 192 480"><defs><style>.a{opacity:0.04;}.b{fill:#a6ce39;}</style></defs><g transform="translate(-296 -192)"><ellipse class="a" cx="96" cy="16" rx="96" ry="16" transform="translate(296 640)"/><g transform="translate(314.807 192.077)"><g transform="translate(0.023 -0.077)"><g transform="translate(53.904 18.505)"><path class="b" d="M118.814,71.627H74.492a1.256,1.256,0,0,1-.956-.515,1.164,1.164,0,0,1-.074-1.1l22.2-44.322a1.147,1.147,0,0,1,.956-.588,1.059,1.059,0,0,1,.956.588l22.2,44.322a1.178,1.178,0,0,1-.074,1.1A1.02,1.02,0,0,1,118.814,71.627ZM76.256,69.422H117.05L96.616,28.628Z" transform="translate(-73.361 -25.1)"/></g><g transform="translate(53.933 62.827)"><path class="b" d="M118.824,131.927H74.5a1.13,1.13,0,0,1-1.1-1.1V86.5a1.13,1.13,0,0,1,1.1-1.1h44.322a1.13,1.13,0,0,1,1.1,1.1v44.322A1.13,1.13,0,0,1,118.824,131.927Zm-43.219-2.205h42.117V87.605H75.605Z" transform="translate(-73.4 -85.4)"/></g><g transform="translate(98.181 62.804)"><path class="b" d="M188.653,131.918H134.7a1.13,1.13,0,0,1-1.1-1.1V86.494a1.109,1.109,0,0,1,.662-1.029,1.151,1.151,0,0,1,1.176.147l53.95,44.322a1.157,1.157,0,0,1,.368,1.25A1.131,1.131,0,0,1,188.653,131.918Zm-52.774-2.205h49.761L135.879,88.846Z" transform="translate(-133.6 -85.369)"/></g><g transform="translate(76.094 0.074)"><path class="b" d="M126.813,64.982h0a.985.985,0,0,1-.956-.588l-22.2-44.322a1.09,1.09,0,0,1,0-.956,1.043,1.043,0,0,1,.662-.588L162.241.08a1.046,1.046,0,0,1,1.176.368,1.1,1.1,0,0,1,.074,1.25L127.769,64.467A1.256,1.256,0,0,1,126.813,64.982ZM106.159,20.219l20.654,41.308L160.11,3.02Z" transform="translate(-103.55 -0.023)"/></g><g transform="translate(18.128)"><path class="b" d="M61.594,64.955a1.147,1.147,0,0,1-.956-.588L24.843,1.6a1.113,1.113,0,0,1,.074-1.25A1.046,1.046,0,0,1,26.093-.02L84.012,18.429a.9.9,0,0,1,.662.588,1.422,1.422,0,0,1,0,.956L62.55,64.367a.985.985,0,0,1-.956.588ZM28.224,2.993,61.521,61.5,82.175,20.193Z" transform="translate(-24.686 0.077)"/></g><g transform="translate(98.181 151.447)"><path class="b" d="M188.653,252.518H134.7a1.13,1.13,0,0,1-1.1-1.1V207.094a1.109,1.109,0,0,1,.662-1.029,1.151,1.151,0,0,1,1.176.147l53.95,44.322a1.157,1.157,0,0,1,.368,1.25A1.131,1.131,0,0,1,188.653,252.518Zm-52.774-2.205h49.761l-49.761-40.867Z" transform="translate(-133.6 -205.969)"/></g><g transform="translate(98.181 240.09)"><path class="b" d="M188.653,373.118H134.7a1.13,1.13,0,0,1-1.1-1.1V327.694a1.109,1.109,0,0,1,.662-1.029,1.151,1.151,0,0,1,1.176.147l53.95,44.322a1.157,1.157,0,0,1,.368,1.25A1.131,1.131,0,0,1,188.653,373.118Zm-52.774-2.205h49.761l-49.761-40.867Z" transform="translate(-133.6 -326.569)"/></g><g transform="translate(53.933 107.149)"><path class="b" d="M118.824,192.227H74.5a1.13,1.13,0,0,1-1.1-1.1V146.8a1.13,1.13,0,0,1,1.1-1.1h44.322a1.13,1.13,0,0,1,1.1,1.1v44.322A1.13,1.13,0,0,1,118.824,192.227Zm-43.219-2.205h42.117V147.905H75.605Z" transform="translate(-73.4 -145.7)"/></g><g transform="translate(53.933 151.47)"><path class="b" d="M118.824,252.527H74.5a1.13,1.13,0,0,1-1.1-1.1V207.1a1.13,1.13,0,0,1,1.1-1.1h44.322a1.13,1.13,0,0,1,1.1,1.1v44.322A1.13,1.13,0,0,1,118.824,252.527Zm-43.219-2.205h42.117V208.205H75.605Z" transform="translate(-73.4 -206)"/></g><g transform="translate(53.933 195.792)"><path class="b" d="M118.824,312.827H74.5a1.13,1.13,0,0,1-1.1-1.1V267.4a1.13,1.13,0,0,1,1.1-1.1h44.322a1.13,1.13,0,0,1,1.1,1.1v44.322A1.13,1.13,0,0,1,118.824,312.827Zm-43.219-2.205h42.117V268.505H75.605Z" transform="translate(-73.4 -266.3)"/></g><g transform="translate(53.933 240.113)"><path class="b" d="M118.824,373.127H74.5a1.13,1.13,0,0,1-1.1-1.1V327.7a1.13,1.13,0,0,1,1.1-1.1h44.322a1.13,1.13,0,0,1,1.1,1.1v44.322A1.082,1.082,0,0,1,118.824,373.127Zm-43.219-2.205h42.117V328.805H75.605Z" transform="translate(-73.4 -326.6)"/></g><g transform="translate(22.327 284.509)"><path class="b" d="M137.933,565.536l-31.385-176.4H63.99l-31.385,176.4-2.205-.368L62.006,387.882a1.108,1.108,0,0,1,1.1-.882H107.43a1.171,1.171,0,0,1,1.1.882l31.606,177.286Z" transform="translate(-30.4 -387)"/></g><g transform="translate(37.469 62.79)"><path class="b" d="M144.421,486.56a.852.852,0,0,1-.735-.294L51,396.594l67.916-44.248L66.876,308.171l44.4-44.4L66.95,219.454l44.322-44.322L66.95,130.811l45.13-45.13a1.091,1.091,0,1,1,1.544,1.544L70.11,130.811l44.322,44.322L70.11,219.454l44.322,44.322L70.184,308.024l52.407,44.542-68.063,44.4,90.7,87.688a1.066,1.066,0,0,1,0,1.544A1.18,1.18,0,0,1,144.421,486.56Z" transform="translate(-51 -85.35)"/></g><g transform="translate(22.291 62.79)"><path class="b" d="M31.489,486.56a1.18,1.18,0,0,1-.809-.368,1.066,1.066,0,0,1,0-1.543l90.7-87.688-68.063-44.4,52.407-44.542L61.478,263.776,105.8,219.454,61.478,175.133,105.8,130.811,62.287,87.224a1.091,1.091,0,1,1,1.544-1.544l45.13,45.13L64.639,175.133l44.322,44.322L64.639,263.776l44.4,44.4L56.994,352.346l67.916,44.248-92.686,89.6A.9.9,0,0,1,31.489,486.56Z" transform="translate(-30.35 -85.35)"/></g><g transform="translate(97.226 251.58)"><path class="b" d="M132.3,378.216,148.691,342.2l24.329,19.993Zm17.2-32.488-13.01,28.445,32.194-12.642Z" transform="translate(-132.3 -342.2)"/></g><g transform="translate(97.226 162.936)"><path class="b" d="M132.3,257.616,148.691,221.6l24.329,19.992Zm17.2-32.561L136.49,253.5l32.194-12.642Z" transform="translate(-132.3 -221.6)"/></g><g transform="translate(97.226 74.22)"><path class="b" d="M132.3,136.916,148.691,100.9l24.329,19.993Zm17.2-32.488-13.01,28.445,32.194-12.642Z" transform="translate(-132.3 -100.9)"/></g><g transform="translate(0 62.804)"><path class="b" d="M55.059,131.918H1.109a1.105,1.105,0,0,1-1.029-.735,1.157,1.157,0,0,1,.368-1.25L54.4,85.612a1.132,1.132,0,0,1,1.176-.147,1.153,1.153,0,0,1,.662,1.029v44.322A1.256,1.256,0,0,1,55.059,131.918ZM4.2,129.713H53.957V88.846Z" transform="translate(-0.023 -85.369)"/></g><g transform="translate(0 151.447)"><path class="b" d="M55.059,252.518H1.109a1.105,1.105,0,0,1-1.029-.735,1.157,1.157,0,0,1,.368-1.25L54.4,206.212a1.132,1.132,0,0,1,1.176-.147,1.153,1.153,0,0,1,.662,1.029v44.322A1.256,1.256,0,0,1,55.059,252.518ZM4.2,250.313H53.957V209.446Z" transform="translate(-0.023 -205.969)"/></g><g transform="translate(0 240.164)"><path class="b" d="M55.059,373.145H1.109A1.105,1.105,0,0,1,.08,372.41a1.157,1.157,0,0,1,.368-1.25l53.877-44.248a1.132,1.132,0,0,1,1.176-.147,1.153,1.153,0,0,1,.662,1.029v44.322A1.068,1.068,0,0,1,55.059,373.145ZM4.2,370.94H53.957V330.073Z" transform="translate(-0.023 -326.669)"/></g><g transform="translate(16.374 251.58)"><path class="b" d="M63.094,378.216,22.3,362.193,46.629,342.2Zm-36.53-16.685L58.83,374.173l-13.01-28.445Z" transform="translate(-22.3 -342.2)"/></g><g transform="translate(16.374 162.936)"><path class="b" d="M63.094,257.616,22.3,241.593,46.629,221.6Zm-36.53-16.685L58.83,253.573l-13.01-28.445Z" transform="translate(-22.3 -221.6)"/></g><g transform="translate(16.374 74.22)"><path class="b" d="M63.094,136.916,22.3,120.893,46.629,100.9Zm-36.53-16.685L58.83,132.873l-13.01-28.445Z" transform="translate(-22.3 -100.9)"/></g><g transform="translate(39.38 8.436)"><path class="b" d="M54.7,42.491a1.385,1.385,0,0,1-.588-.147,1.071,1.071,0,0,1-.515-.956L55.144,11.4l2.205.147-1.47,28.078L90.865,21.69l1.029,1.985L55.217,42.344A1.363,1.363,0,0,1,54.7,42.491Z" transform="translate(-53.6 -11.4)"/></g><g transform="translate(76.645 8.289)"><path class="b" d="M141.492,42.438a1.363,1.363,0,0,1-.515-.147L104.3,23.475l1.029-1.985,34.987,17.934-1.47-28.078,2.205-.147,1.544,29.989a1.071,1.071,0,0,1-.515.956A.668.668,0,0,1,141.492,42.438Z" transform="translate(-104.3 -11.2)"/></g></g><g transform="translate(142.82 110.965)"><path class="b" d="M203.267,159.287h-7.424a1.553,1.553,0,0,1-1.544-1.544h0a1.553,1.553,0,0,1,1.544-1.544h7.424a1.553,1.553,0,0,1,1.544,1.544h0A1.6,1.6,0,0,1,203.267,159.287Z" transform="translate(-194.3 -152.375)"/><path class="b" d="M203.7,154.013h-7.2A3.027,3.027,0,0,1,199.514,151h1.1a3,3,0,0,1,3.087,3.014Z" transform="translate(-194.883 -150.996)"/><path class="b" d="M196.5,183.2h7.2a3.027,3.027,0,0,1-3.014,3.014h-1.1A3,3,0,0,1,196.5,183.2Z" transform="translate(-194.883 -159.53)"/><path class="b" d="M203.267,164.687h-7.424a1.553,1.553,0,0,1-1.544-1.544h0a1.553,1.553,0,0,1,1.544-1.544h7.424a1.553,1.553,0,0,1,1.544,1.544h0A1.6,1.6,0,0,1,203.267,164.687Z" transform="translate(-194.3 -153.806)"/><path class="b" d="M203.267,170.087h-7.424a1.553,1.553,0,0,1-1.544-1.544h0A1.553,1.553,0,0,1,195.844,167h7.424a1.553,1.553,0,0,1,1.544,1.544h0A1.6,1.6,0,0,1,203.267,170.087Z" transform="translate(-194.3 -155.237)"/><path class="b" d="M203.267,175.487h-7.424a1.553,1.553,0,0,1-1.544-1.544h0a1.553,1.553,0,0,1,1.544-1.544h7.424a1.553,1.553,0,0,1,1.544,1.544h0A1.6,1.6,0,0,1,203.267,175.487Z" transform="translate(-194.3 -156.668)"/><path class="b" d="M203.267,180.887h-7.424a1.553,1.553,0,0,1-1.544-1.544h0a1.553,1.553,0,0,1,1.544-1.544h7.424a1.553,1.553,0,0,1,1.544,1.544h0A1.66,1.66,0,0,1,203.267,180.887Z" transform="translate(-194.3 -158.099)"/></g><g transform="translate(1.109 110.965)"><path class="b" d="M10.467,159.287H3.044A1.553,1.553,0,0,1,1.5,157.744h0A1.553,1.553,0,0,1,3.044,156.2h7.424a1.553,1.553,0,0,1,1.544,1.544h0A1.6,1.6,0,0,1,10.467,159.287Z" transform="translate(-1.5 -152.375)"/><path class="b" d="M10.9,154.013H3.7A3.027,3.027,0,0,1,6.714,151h1.1a3,3,0,0,1,3.087,3.014Z" transform="translate(-2.083 -150.996)"/><path class="b" d="M3.7,183.2h7.2a3.027,3.027,0,0,1-3.014,3.014h-1.1A3,3,0,0,1,3.7,183.2Z" transform="translate(-2.083 -159.53)"/><path class="b" d="M10.467,164.687H3.044A1.553,1.553,0,0,1,1.5,163.144h0A1.553,1.553,0,0,1,3.044,161.6h7.424a1.553,1.553,0,0,1,1.544,1.544h0A1.6,1.6,0,0,1,10.467,164.687Z" transform="translate(-1.5 -153.806)"/><path class="b" d="M10.467,170.087H3.044A1.553,1.553,0,0,1,1.5,168.544h0A1.553,1.553,0,0,1,3.044,167h7.424a1.553,1.553,0,0,1,1.544,1.544h0A1.6,1.6,0,0,1,10.467,170.087Z" transform="translate(-1.5 -155.237)"/><path class="b" d="M10.467,175.487H3.044A1.553,1.553,0,0,1,1.5,173.944h0A1.553,1.553,0,0,1,3.044,172.4h7.424a1.553,1.553,0,0,1,1.544,1.544h0A1.6,1.6,0,0,1,10.467,175.487Z" transform="translate(-1.5 -156.668)"/><path class="b" d="M10.467,180.887H3.044A1.553,1.553,0,0,1,1.5,179.344h0A1.553,1.553,0,0,1,3.044,177.8h7.424a1.553,1.553,0,0,1,1.544,1.544h0A1.66,1.66,0,0,1,10.467,180.887Z" transform="translate(-1.5 -158.099)"/></g><g transform="translate(142.82 199.831)"><path class="b" d="M203.267,280.287h-7.424a1.553,1.553,0,0,1-1.544-1.544h0a1.553,1.553,0,0,1,1.544-1.544h7.424a1.553,1.553,0,0,1,1.544,1.544h0A1.6,1.6,0,0,1,203.267,280.287Z" transform="translate(-194.3 -273.304)"/><path class="b" d="M203.7,274.914h-7.2a3.027,3.027,0,0,1,3.014-3.014h1.1a3.043,3.043,0,0,1,3.087,3.014Z" transform="translate(-194.883 -271.9)"/><path class="b" d="M196.5,304.2h7.2a3.027,3.027,0,0,1-3.014,3.014h-1.1A3.043,3.043,0,0,1,196.5,304.2Z" transform="translate(-194.883 -280.459)"/><path class="b" d="M203.267,285.687h-7.424a1.553,1.553,0,0,1-1.544-1.544h0a1.553,1.553,0,0,1,1.544-1.544h7.424a1.553,1.553,0,0,1,1.544,1.544h0A1.6,1.6,0,0,1,203.267,285.687Z" transform="translate(-194.3 -274.735)"/><path class="b" d="M203.267,291.087h-7.424a1.553,1.553,0,0,1-1.544-1.544h0A1.553,1.553,0,0,1,195.844,288h7.424a1.553,1.553,0,0,1,1.544,1.544h0A1.6,1.6,0,0,1,203.267,291.087Z" transform="translate(-194.3 -276.166)"/><path class="b" d="M203.267,296.487h-7.424a1.553,1.553,0,0,1-1.544-1.544h0a1.553,1.553,0,0,1,1.544-1.544h7.424a1.553,1.553,0,0,1,1.544,1.544h0A1.66,1.66,0,0,1,203.267,296.487Z" transform="translate(-194.3 -277.597)"/><path class="b" d="M203.267,301.887h-7.424a1.553,1.553,0,0,1-1.544-1.544h0a1.553,1.553,0,0,1,1.544-1.544h7.424a1.553,1.553,0,0,1,1.544,1.544h0A1.66,1.66,0,0,1,203.267,301.887Z" transform="translate(-194.3 -279.028)"/></g><g transform="translate(1.109 199.831)"><path class="b" d="M10.467,280.287H3.044A1.553,1.553,0,0,1,1.5,278.744h0A1.553,1.553,0,0,1,3.044,277.2h7.424a1.553,1.553,0,0,1,1.544,1.544h0A1.6,1.6,0,0,1,10.467,280.287Z" transform="translate(-1.5 -273.304)"/><path class="b" d="M10.9,274.914H3.7A3.027,3.027,0,0,1,6.714,271.9h1.1a3.043,3.043,0,0,1,3.087,3.014Z" transform="translate(-2.083 -271.9)"/><path class="b" d="M3.7,304.2h7.2a3.027,3.027,0,0,1-3.014,3.014h-1.1A3.043,3.043,0,0,1,3.7,304.2Z" transform="translate(-2.083 -280.459)"/><path class="b" d="M10.467,285.687H3.044A1.553,1.553,0,0,1,1.5,284.144h0A1.553,1.553,0,0,1,3.044,282.6h7.424a1.553,1.553,0,0,1,1.544,1.544h0A1.6,1.6,0,0,1,10.467,285.687Z" transform="translate(-1.5 -274.735)"/><path class="b" d="M10.467,291.087H3.044A1.553,1.553,0,0,1,1.5,289.544h0A1.553,1.553,0,0,1,3.044,288h7.424a1.553,1.553,0,0,1,1.544,1.544h0A1.6,1.6,0,0,1,10.467,291.087Z" transform="translate(-1.5 -276.166)"/><path class="b" d="M10.467,296.487H3.044A1.553,1.553,0,0,1,1.5,294.944h0A1.553,1.553,0,0,1,3.044,293.4h7.424a1.553,1.553,0,0,1,1.544,1.544h0A1.66,1.66,0,0,1,10.467,296.487Z" transform="translate(-1.5 -277.597)"/><path class="b" d="M10.467,301.887H3.044A1.553,1.553,0,0,1,1.5,300.344h0A1.553,1.553,0,0,1,3.044,298.8h7.424a1.553,1.553,0,0,1,1.544,1.544h0A1.66,1.66,0,0,1,10.467,301.887Z" transform="translate(-1.5 -279.028)"/></g><g transform="translate(142.82 288.768)"><path class="b" d="M203.267,401.287h-7.424a1.553,1.553,0,0,1-1.544-1.544h0a1.553,1.553,0,0,1,1.544-1.544h7.424a1.553,1.553,0,0,1,1.544,1.544h0A1.6,1.6,0,0,1,203.267,401.287Z" transform="translate(-194.3 -394.304)"/><path class="b" d="M203.7,395.914h-7.2a3.027,3.027,0,0,1,3.014-3.014h1.1a3.043,3.043,0,0,1,3.087,3.014Z" transform="translate(-194.883 -392.9)"/><path class="b" d="M196.5,425.2h7.2a3.027,3.027,0,0,1-3.014,3.014h-1.1A3.043,3.043,0,0,1,196.5,425.2Z" transform="translate(-194.883 -401.459)"/><path class="b" d="M203.267,406.687h-7.424a1.553,1.553,0,0,1-1.544-1.544h0a1.553,1.553,0,0,1,1.544-1.544h7.424a1.553,1.553,0,0,1,1.544,1.544h0A1.66,1.66,0,0,1,203.267,406.687Z" transform="translate(-194.3 -395.735)"/><path class="b" d="M203.267,412.087h-7.424a1.553,1.553,0,0,1-1.544-1.544h0A1.553,1.553,0,0,1,195.844,409h7.424a1.553,1.553,0,0,1,1.544,1.544h0A1.66,1.66,0,0,1,203.267,412.087Z" transform="translate(-194.3 -397.166)"/><path class="b" d="M203.267,417.387h-7.424a1.553,1.553,0,0,1-1.544-1.544h0a1.553,1.553,0,0,1,1.544-1.544h7.424a1.553,1.553,0,0,1,1.544,1.544h0A1.6,1.6,0,0,1,203.267,417.387Z" transform="translate(-194.3 -398.571)"/><path class="b" d="M203.267,422.787h-7.424a1.553,1.553,0,0,1-1.544-1.544h0a1.553,1.553,0,0,1,1.544-1.544h7.424a1.553,1.553,0,0,1,1.544,1.544h0A1.6,1.6,0,0,1,203.267,422.787Z" transform="translate(-194.3 -400.001)"/></g><g transform="translate(1.109 288.768)"><path class="b" d="M10.467,401.287H3.044A1.553,1.553,0,0,1,1.5,399.744h0A1.553,1.553,0,0,1,3.044,398.2h7.424a1.553,1.553,0,0,1,1.544,1.544h0A1.6,1.6,0,0,1,10.467,401.287Z" transform="translate(-1.5 -394.304)"/><path class="b" d="M10.9,395.914H3.7A3.027,3.027,0,0,1,6.714,392.9h1.1a3.043,3.043,0,0,1,3.087,3.014Z" transform="translate(-2.083 -392.9)"/><path class="b" d="M3.7,425.2h7.2a3.027,3.027,0,0,1-3.014,3.014h-1.1A3.043,3.043,0,0,1,3.7,425.2Z" transform="translate(-2.083 -401.459)"/><path class="b" d="M10.467,406.687H3.044A1.553,1.553,0,0,1,1.5,405.144h0A1.553,1.553,0,0,1,3.044,403.6h7.424a1.553,1.553,0,0,1,1.544,1.544h0A1.66,1.66,0,0,1,10.467,406.687Z" transform="translate(-1.5 -395.735)"/><path class="b" d="M10.467,412.087H3.044A1.553,1.553,0,0,1,1.5,410.544h0A1.553,1.553,0,0,1,3.044,409h7.424a1.553,1.553,0,0,1,1.544,1.544h0A1.66,1.66,0,0,1,10.467,412.087Z" transform="translate(-1.5 -397.166)"/><path class="b" d="M10.467,417.387H3.044A1.553,1.553,0,0,1,1.5,415.844h0A1.553,1.553,0,0,1,3.044,414.3h7.424a1.553,1.553,0,0,1,1.544,1.544h0A1.6,1.6,0,0,1,10.467,417.387Z" transform="translate(-1.5 -398.571)"/><path class="b" d="M10.467,422.787H3.044A1.553,1.553,0,0,1,1.5,421.244h0A1.553,1.553,0,0,1,3.044,419.7h7.424a1.553,1.553,0,0,1,1.544,1.544h0A1.6,1.6,0,0,1,10.467,422.787Z" transform="translate(-1.5 -400.001)"/></g></g></g></svg>