<svg xmlns="http://www.w3.org/2000/svg" xmlns:xlink="http://www.w3.org/1999/xlink" viewBox="0 0 512 512"><defs><style>.cls-1{fill:none;}.cls-2{fill:#a6ce39;}.cls-3{clip-path:url(#clip-path);}.cls-4{clip-path:url(#clip-path-2);}.cls-5{fill:#00a34b;}.cls-6{fill:#2376bc;}.cls-7{fill:#2cace3;}</style><clipPath id="clip-path"><rect class="cls-1" x="121.36" y="119.8" width="305.01" height="304.93"/></clipPath><clipPath id="clip-path-2"><rect class="cls-1" x="131.89" y="83.78" width="263.79" height="305.15"/></clipPath></defs><title>favicon</title><g id="Capa_2" data-name="Capa 2"><g id="Capa_1-2" data-name="Capa 1"><rect class="cls-1" width="512" height="512"/><path class="cls-2" d="M143.32,397.7a2.54,2.54,0,0,1-1.62-.58c-35.95-28.93-56.39-72.63-56.08-119.92s21.28-90.64,57.54-119.06a2.6,2.6,0,0,1,3.2,4.09c-35,27.43-55.25,69.35-55.55,115S110.24,365.15,145,393.08a2.6,2.6,0,0,1,.39,3.65,2.57,2.57,0,0,1-2,1"/><g class="cls-3"><path class="cls-2" d="M274,424.73A152.52,152.52,0,0,1,121.36,279a2.59,2.59,0,1,1,5.18-.23,147.39,147.39,0,0,0,3.91,27.82,149.06,149.06,0,0,0,10.68,29.82c35.36,73.13,123.63,103.87,196.77,68.5A147.35,147.35,0,0,0,279.9,125a2.59,2.59,0,1,1,.22-5.18A152.53,152.53,0,0,1,274,424.73"/></g><g class="cls-4"><path class="cls-5" d="M284.52,388.94A152.5,152.5,0,1,1,373,112.13a151,151,0,0,1,22,19.05,2.6,2.6,0,1,1-3.76,3.58A146.52,146.52,0,0,0,370,116.35a148.49,148.49,0,0,0-27.63-15.46,147.33,147.33,0,1,0,34.27,250.52,2.59,2.59,0,1,1,3.23,4,152.49,152.49,0,0,1-95.32,33.48"/></g><path class="cls-5" d="M87.28,219.43a68.66,68.66,0,1,1,68.66,68.66,68.66,68.66,0,0,1-68.66-68.66"/><path class="cls-5" d="M242.54,183.79a68.66,68.66,0,1,1,68.66,68.66,68.65,68.65,0,0,1-68.66-68.66"/><path class="cls-2" d="M297.33,377.59a52.28,52.28,0,1,1,57.49,46.5,52.28,52.28,0,0,1-57.49-46.5"/><path class="cls-2" d="M250.85,89a52.28,52.28,0,1,1,52.27,52.28A52.28,52.28,0,0,1,250.85,89"/><path class="cls-2" d="M124,437.23a52.28,52.28,0,1,1,52.28,52.28A52.28,52.28,0,0,1,124,437.23"/><path class="cls-6" d="M225.32,326.47a17.85,17.85,0,1,1,17.84,17.85,17.85,17.85,0,0,1-17.84-17.85"/><path class="cls-7" d="M460,137.18a2.59,2.59,0,0,1-2.57-2.29C449,64,388.67,8.28,317.26,5.18a2.59,2.59,0,0,1-2.48-2.7A2.63,2.63,0,0,1,317.48,0C391.41,3.2,453.8,60.93,462.6,134.28a2.59,2.59,0,0,1-2.27,2.88l-.31,0"/><path class="cls-7" d="M364.78,324.23a59.65,59.65,0,1,1,59.64,59.64,59.64,59.64,0,0,1-59.64-59.64"/><path class="cls-7" d="M412.06,112.73a39.76,39.76,0,1,1,39.76,39.76,39.77,39.77,0,0,1-39.76-39.76"/><path class="cls-7" d="M150,89a17.85,17.85,0,1,1,17.85,17.85A17.85,17.85,0,0,1,150,89"/><path class="cls-5" d="M322.65,511.05a12.62,12.62,0,1,1,16.47-6.88,12.62,12.62,0,0,1-16.47,6.88"/><path class="cls-6" d="M258.05,416.73a39.76,39.76,0,1,1,39.76,39.76,39.76,39.76,0,0,1-39.76-39.76"/><path class="cls-6" d="M54.33,344.63a39.76,39.76,0,1,1,39.76,39.76,39.76,39.76,0,0,1-39.76-39.76"/><path class="cls-5" d="M28.35,142.21a12.77,12.77,0,1,1,16.67-7,12.78,12.78,0,0,1-16.67,7"/></g></g></svg>