<?xml version="1.0" encoding="utf-8"?>
<!-- Generator: Adobe Illustrator 22.1.0, SVG Export Plug-In . SVG Version: 6.00 Build 0)  -->
<svg version="1.1" id="Capa_1" xmlns="http://www.w3.org/2000/svg" xmlns:xlink="http://www.w3.org/1999/xlink" x="0px" y="0px"
	 viewBox="0 0 512 512" style="enable-background:new 0 0 512 512;" xml:space="preserve">
<style type="text/css">
	.st0{fill:none;}
	.st1{fill:#FFFFFF;}
</style>
<title>favicon</title>
<g>
	<rect class="st0" width="512" height="512"/>
	<g>
		<path class="st1" d="M91.3,277.2c0.1-9.3,1-18.4,2.6-27.2c-1.3-2.7-2.5-5.6-3.5-8.5c-2.7,11.5-4.2,23.5-4.3,35.7
			c-0.1,9.2,0.7,18.3,2.2,27.2c1.7-0.3,3.4-0.4,5.2-0.5C92,295.2,91.3,286.3,91.3,277.2z"/>
		<path class="st1" d="M145.5,393.1c-7.8-6.3-14.8-13.3-21-20.8c-1.2,1.3-2.4,2.5-3.7,3.6c6.3,7.6,13.4,14.7,21.2,21.1
			c1.3-1.1,2.6-2.2,4-3.2C145.9,393.5,145.7,393.3,145.5,393.1z"/>
		<path class="st1" d="M222.5,410c1.3,2.1,2.5,4.4,3.4,6.7c10.5,3.5,21.3,5.9,32.3,7c-0.3-1.7-0.5-3.5-0.6-5.2
			C245.6,417.1,233.8,414.3,222.5,410z"/>
		<path class="st1" d="M406.9,208.1c8.6,17.7,13.4,36.6,14.5,55.7c1.2-0.1,2.3-0.2,3.5-0.2c0.6,0,1.1,0.1,1.7,0.1
			c-1.1-19.8-6.1-39.4-15-57.8c-8.6-17.9-20.5-33.5-34.7-46.4c1.2,3.3,2.3,6.6,3,10.1C390.7,180.7,399.9,193.6,406.9,208.1z"/>
		<path class="st1" d="M141.6,336.4c-4.6-9.6-8.2-19.6-10.7-29.8c-1.9-7.8-3-15.8-3.6-23.9c-1.9-0.9-3.7-1.8-5.5-2.8
			c0.5,9.4,1.8,18.8,4,27.9c2.5,10.6,6.3,21,11,30.9c8.6,17.8,20.2,33,33.9,45.7c1.9-0.2,3.9-0.3,5.8-0.3c0.5,0,1.1,0.1,1.6,0.1
			C163.4,371.2,150.7,355.2,141.6,336.4z"/>
		<path class="st1" d="M370.5,116.3c7.6,5.4,14.8,11.6,21.2,18.4c1,1,2.6,1.1,3.7,0.1c1-1,1.1-2.6,0.1-3.7c-6.7-7-14.1-13.4-22-19.1
			c-5.7-4.1-11.8-7.7-18-10.9c-0.4,1.7-0.9,3.4-1.5,5.1C359.7,109.3,365.2,112.6,370.5,116.3z"/>
		<path class="st1" d="M230.1,99.7c6.7-2.7,13.6-4.7,20.5-6.4c-0.1-1.4-0.2-2.9-0.2-4.3c0-0.3,0-0.6,0-1c-7.5,1.8-15,3.9-22.2,6.9
			c-28.3,11.4-52,30.5-68.8,55.1c2.1,0.1,4.1,0.2,6.1,0.5C181.6,127.9,203.7,110.3,230.1,99.7z"/>
		<path class="st1" d="M148.3,291.3c-0.4-0.9-0.6-1.9-1-2.9c-2-0.3-3.9-0.6-5.8-1c0.7,1.9,1.2,3.9,2,5.8
			c15.2,37.8,44.2,67.4,81.6,83.4c14.3,6.1,29.2,9.9,44.2,11.5c1.7-1.7,3.6-3.3,5.6-4.7c-16.2-1.1-32.4-4.9-47.8-11.5
			C191,356.4,162.9,327.8,148.3,291.3z"/>
		<circle class="st1" cx="156.4" cy="219.4" r="67.6"/>
		<path class="st1" d="M244.1,183.8c0,37.3,30.3,67.7,67.6,67.7c37.3,0,67.6-30.4,67.6-67.7c0-25.8-14.5-48.2-35.8-59.6
			c-9.8,11.1-24,18.1-39.9,18.1c-12.6,0-24.2-4.4-33.4-11.8C254.3,142.8,244.1,162.1,244.1,183.8z"/>
		<path class="st1" d="M344.4,321.1c-13.6,1.4-25.9,8.1-34.5,18.7c-8.3,10.3-12.2,23-11.2,36.1c22.3,0.2,40.3,18.4,40.3,40.7
			c0,1.8-0.2,3.6-0.4,5.4c5.3,1.2,10.8,1.6,16.5,1c23.7-2.5,41.9-20.9,45.3-43.4c-21.3-9.4-36.2-30.7-36.2-55.5
			c0-0.4,0.1-0.8,0.1-1.2c-4.7-1.4-9.5-2.2-14.4-2.2C348.1,320.8,346.3,320.9,344.4,321.1z"/>
		<path class="st1" d="M252.4,89c0,28.3,23,51.3,51.3,51.3c28.3,0,51.3-23,51.3-51.3c0-28.3-23-51.3-51.3-51.3
			C275.4,37.7,252.4,60.7,252.4,89z"/>
		<path class="st1" d="M176.7,386c-28.3,0-51.3,23-51.3,51.3c0,28.3,23,51.3,51.3,51.3s51.3-23,51.3-51.3C228,409,205,386,176.7,386
			z"/>
		<path class="st1" d="M243.7,308.6c-9.9,0-17.8,8-17.8,17.8c0,9.9,8,17.8,17.8,17.8c9.9,0,17.9-8,17.9-17.8
			C261.5,316.6,253.5,308.6,243.7,308.6z"/>
		<path class="st1" d="M317.8,5.2c49.5,2.1,93.6,29.6,118.9,69.9c1.6-0.7,3.3-1.2,5-1.7C415.6,31.2,369.7,2.2,318,0
			c-1.4,0-2.6,1-2.7,2.5C315.2,3.9,316.3,5.1,317.8,5.2z"/>
		<path class="st1" d="M424.9,265.6c-32.3,0-58.6,26.3-58.6,58.6c0,32.3,26.3,58.6,58.6,58.6c32.3,0,58.6-26.3,58.6-58.6
			C483.6,291.9,457.3,265.6,424.9,265.6z"/>
		<path class="st1" d="M452.3,74c-21.4,0-38.8,17.4-38.8,38.8c0,21.4,17.4,38.8,38.8,38.8c21.4,0,38.8-17.4,38.8-38.8
			C491.1,91.4,473.7,74,452.3,74z"/>
		<path class="st1" d="M168.3,106.8c9.9,0,17.9-8,17.9-17.8c0-9.9-8-17.8-17.9-17.8c-9.9,0-17.8,8-17.8,17.8
			C150.5,98.8,158.5,106.8,168.3,106.8z"/>
		<path class="st1" d="M332.7,487.7c-6.4-2.6-13.8,0.4-16.5,6.9c-2.6,6.4,0.4,13.8,6.9,16.5c6.4,2.6,13.8-0.4,16.5-6.9
			C342.3,497.7,339.2,490.3,332.7,487.7z"/>
		<circle class="st1" cx="298.3" cy="416.7" r="38.8"/>
		<path class="st1" d="M94.6,305.9c-21.4,0-38.8,17.4-38.8,38.8c0,21.4,17.4,38.8,38.8,38.8c21.4,0,38.8-17.4,38.8-38.8
			C133.3,323.3,116,305.9,94.6,305.9z"/>
		<path class="st1" d="M38.5,118.6c-6.5-2.7-14,0.4-16.7,7c-2.7,6.5,0.4,14,7,16.7c6.5,2.7,14-0.4,16.7-7
			C48.2,128.7,45.1,121.3,38.5,118.6z"/>
	</g>
</g>
</svg>
