<svg xmlns="http://www.w3.org/2000/svg" xmlns:xlink="http://www.w3.org/1999/xlink" viewBox="0 0 99.825 48"><defs><style>.a{fill:#a6ce39;}.b{clip-path:url(#a);}.c{clip-path:url(#b);}.d{fill:#00a34b;}.e{fill:#2376bc;}.f{fill:#2cace3;}</style><clipPath id="a"><rect width="28.618" height="28.618"/></clipPath><clipPath id="b"><rect width="24.71" height="28.618"/></clipPath></defs><g transform="translate(0.038)"><g transform="translate(-0.038)"><path class="a" d="M15.61,47.059a.221.221,0,0,1-.18-.06A14.058,14.058,0,0,1,10.2,35.756,14.1,14.1,0,0,1,15.61,24.574a.259.259,0,1,1,.3.421A13.56,13.56,0,0,0,10.68,35.756a13.9,13.9,0,0,0,5.05,10.882c.12.06.12.24.06.361a.221.221,0,0,1-.18.06" transform="translate(-4.044 -9.784)"/><g transform="translate(9.462 11.243)"><g class="b"><path class="a" d="M30.049,47.218a14.264,14.264,0,0,1-12.866-8.056,16.472,16.472,0,0,1-1.022-2.886A10.461,10.461,0,0,1,15.8,33.57a.24.24,0,1,1,.481,0,17.849,17.849,0,0,0,.361,2.585,10.892,10.892,0,0,0,1.022,2.766A13.821,13.821,0,1,0,30.71,19.081a.24.24,0,1,1,0-.481,14.261,14.261,0,0,1,12.265,8.056,14.117,14.117,0,0,1,.6,10.942A14.33,14.33,0,0,1,36.3,45.775a13.782,13.782,0,0,1-6.253,1.443" transform="translate(-15.74 -18.66)"/></g></g><g transform="translate(10.484 7.876)"><g class="c"><path class="d" d="M31.749,41.742A13.892,13.892,0,0,1,26.157,40.6a14.115,14.115,0,0,1-7.635-7.816,14.37,14.37,0,0,1,.12-10.942A14.3,14.3,0,0,1,37.4,14.327a14.818,14.818,0,0,1,2.705,1.5,14.628,14.628,0,0,1,2.044,1.8c.12.12.06.24,0,.361-.12.12-.24.06-.361,0A13.735,13.735,0,0,0,39.8,16.251a10.928,10.928,0,0,0-2.585-1.443,13.831,13.831,0,1,0,3.186,23.508.259.259,0,1,1,.3.421,15.283,15.283,0,0,1-8.958,3.006" transform="translate(-17.44 -13.124)"/></g></g><path class="d" d="M10.4,29.933a6.433,6.433,0,1,1,6.433,6.433A6.44,6.44,0,0,1,10.4,29.933" transform="translate(-4.124 -9.371)"/><path class="d" d="M34.6,24.433A6.44,6.44,0,0,1,41.033,18a6.365,6.365,0,0,1,6.433,6.433,6.433,6.433,0,0,1-12.866,0" transform="translate(-13.775 -7.178)"/><path class="a" d="M43.18,55.291a4.926,4.926,0,1,1,5.411,4.389,4.925,4.925,0,0,1-5.411-4.389" transform="translate(-17.185 -19.879)"/><path class="a" d="M35.9,10.63a4.93,4.93,0,1,1,4.93,4.93,4.952,4.952,0,0,1-4.93-4.93" transform="translate(-14.293 -2.273)"/><path class="a" d="M16.1,64.93a4.93,4.93,0,1,1,4.93,4.93,4.952,4.952,0,0,1-4.93-4.93" transform="translate(-6.398 -23.927)"/><path class="e" d="M32,49.783a1.683,1.683,0,1,1,1.683,1.683A1.68,1.68,0,0,1,32,49.783" transform="translate(-12.738 -19.181)"/><path class="f" d="M59.548,12.866a.259.259,0,0,1-.24-.24A14.056,14.056,0,0,0,46.14.481.259.259,0,0,1,45.9.24.259.259,0,0,1,46.14,0,14.465,14.465,0,0,1,59.788,12.565a.275.275,0,0,1-.24.3h0" transform="translate(-18.281)"/><path class="f" d="M53.7,46.891a5.591,5.591,0,1,1,5.591,5.591A5.619,5.619,0,0,1,53.7,46.891" transform="translate(-21.392 -16.47)"/><path class="f" d="M61.1,15.128a3.728,3.728,0,1,1,3.728,3.728A3.708,3.708,0,0,1,61.1,15.128" transform="translate(-24.343 -4.546)"/><path class="f" d="M20.2,12.783a1.683,1.683,0,1,1,1.683,1.683A1.68,1.68,0,0,1,20.2,12.783" transform="translate(-8.033 -4.426)"/><path class="d" d="M46.606,78.169a1.2,1.2,0,1,1,1.563-.661,1.22,1.22,0,0,1-1.563.661" transform="translate(-18.266 -30.252)"/><path class="e" d="M37.1,62.528a3.728,3.728,0,1,1,3.728,3.728A3.708,3.708,0,0,1,37.1,62.528" transform="translate(-14.772 -23.448)"/><path class="e" d="M5.3,51.228a3.728,3.728,0,1,1,3.728,3.728A3.708,3.708,0,0,1,5.3,51.228" transform="translate(-2.091 -18.942)"/><path class="d" d="M.706,20.669a1.22,1.22,0,0,1-.661-1.563,1.22,1.22,0,0,1,1.563-.661,1.22,1.22,0,0,1,.661,1.563,1.2,1.2,0,0,1-1.563.661" transform="translate(0.038 -7.322)"/></g><g transform="translate(50.848 3.908)"><path d="M91.033,12.212h2.946c.421,0,.481.06.481.541v4.209c0,.361-.06.481-.361.6a9.074,9.074,0,0,1-3.667.721c-4.088,0-5.832-2.4-5.832-5.832C84.6,8.9,86.283,6.5,90.492,6.5a6.106,6.106,0,0,1,3.427.842,1.1,1.1,0,0,1,.421.842c0,.24-.06.361-.24.24a7.108,7.108,0,0,0-3.607-.9C87,7.522,85.8,9.506,85.8,12.452c0,2.766,1.142,4.81,4.569,4.81a7.061,7.061,0,0,0,2.886-.541V13.294H91.394a.775.775,0,0,1-.842-.782c.06-.3.12-.3.481-.3" transform="translate(-84.6 -6.5)"/><path d="M105.482,17.248v3.006c0,.361-.06.421-.421.421h-.24c-.361,0-.421-.06-.421-.421V13.641c0-.3,0-.421.24-.421.661,0,.9.3.9.9v.541a1.99,1.99,0,0,1,2.044-1.563c.9,0,1.2.361,1.2.842,0,.24-.06.3-.24.3a4.641,4.641,0,0,0-.9-.12c-1.443,0-2.164,1.142-2.164,3.126" transform="translate(-92.496 -9.132)"/><path d="M118.65,19.913v-.18a2.791,2.791,0,0,1-2.465,1.142c-1.864,0-2.585-1.082-2.585-2.826V13.721c0-.3,0-.421.24-.421.661,0,.9.3.9.9v3.788a1.6,1.6,0,0,0,1.744,1.8,2.057,2.057,0,0,0,2.225-1.924V13.721c0-.3,0-.421.24-.421.661,0,.9.3.9.9v6.193c0,.3,0,.421-.24.421-.661,0-.962-.24-.962-.9" transform="translate(-96.165 -9.212)"/><path d="M128.682,19.533v4.389c0,.361-.06.421-.421.421h-.24c-.361,0-.421-.06-.421-.421V13.641c0-.3,0-.421.24-.421.661,0,.9.3.9.9v.361a3.014,3.014,0,0,1,2.766-1.383c2.285,0,3.487,1.563,3.487,3.848s-1.263,3.788-3.547,3.788a2.917,2.917,0,0,1-2.766-1.2m2.525.24a2.479,2.479,0,0,0,2.585-2.766c0-1.563-.842-2.826-2.525-2.826a2.552,2.552,0,0,0-2.585,2.826,2.424,2.424,0,0,0,2.525,2.766" transform="translate(-101.748 -9.132)"/><path d="M145.948,13.2a3.54,3.54,0,0,1,3.848,3.848,3.848,3.848,0,0,1-7.7,0,3.511,3.511,0,0,1,3.848-3.848m0,6.674a2.515,2.515,0,0,0,2.645-2.826c0-1.683-.9-2.886-2.645-2.886a2.607,2.607,0,0,0-2.705,2.886,2.559,2.559,0,0,0,2.705,2.826" transform="translate(-107.53 -9.172)"/><g transform="translate(0.721 14.549)"><path class="d" d="M85.8,41.742v-10.4c0-.481.06-.541.541-.541h5.471c.3,0,.361,0,.361.18,0,.421-.3.782-1.082.782H86.942V35.73H90.85c.3,0,.361,0,.361.18,0,.421-.3.782-1.082.782H86.942v4.449h4.689c.361,0,.421.06.421.361v.24c0,.3-.06.361-.421.361H86.221c-.361.06-.421,0-.421-.361" transform="translate(-85.8 -30.74)"/><path class="d" d="M104.651,44.675h-.24c-.361,0-.421-.06-.421-.421V40.106c0-1.142-.481-1.984-1.8-1.984a2.006,2.006,0,0,0-2.1,2.044v4.088c0,.361-.06.421-.421.421h-.24c-.361,0-.421-.06-.421-.421V37.641c0-.3,0-.421.24-.421.661,0,.9.3.9.9v.12a2.817,2.817,0,0,1,2.4-1.142c1.864,0,2.645,1.142,2.645,2.886v4.209c-.12.421-.18.481-.541.481" transform="translate(-91.064 -33.252)"/><path class="d" d="M113.163,41.529c.12,1.744,1.082,2.285,2.645,2.285a7.055,7.055,0,0,0,2.826-.6q.361-.18.361.18a.93.93,0,0,1-.661.9,6.3,6.3,0,0,1-2.705.541c-2.285,0-3.728-1.022-3.728-3.667,0-2.585,1.263-3.968,3.607-3.968,2.4,0,3.487,1.5,3.487,3.667,0,.361-.12.661-.6.661Zm0-.9h4.75c-.06-1.5-.782-2.465-2.345-2.465-1.5,0-2.225.962-2.4,2.465" transform="translate(-96.208 -33.292)"/><path class="d" d="M127.882,41.248v3.006c0,.361-.06.421-.421.421h-.24c-.361,0-.421-.06-.421-.421V37.641c0-.3,0-.421.24-.421.661,0,.9.3.9.9v.541a1.99,1.99,0,0,1,2.044-1.563c.9,0,1.2.361,1.2.842,0,.24-.06.3-.24.3a4.641,4.641,0,0,0-.9-.12c-1.443,0-2.1,1.142-2.164,3.126" transform="translate(-102.15 -33.252)"/><path class="d" d="M135.542,47.8a.829.829,0,0,1-.6-.842q0-.451.361-.18a5.981,5.981,0,0,0,2.826.6c1.323,0,2.886-.421,2.886-3.186v-.782a3.18,3.18,0,0,1-2.766,1.323c-2.225,0-3.547-1.5-3.547-3.788s1.323-3.848,3.487-3.848a3.082,3.082,0,0,1,2.766,1.383v-.24c0-.661.24-.962.9-.962.18,0,.24.12.24.421v6.674c0,3.247-1.924,3.968-3.908,3.968a5.815,5.815,0,0,1-2.645-.541m2.946-9.619c-1.744,0-2.525,1.263-2.525,2.826a2.591,2.591,0,1,0,5.17,0c-.06-1.443-.782-2.826-2.645-2.826" transform="translate(-105.3 -33.252)"/><path class="d" d="M151.519,31c.18-.3.3-.3.6-.3h.6c.24,0,.3.12.12.361l-1.563,1.623a.546.546,0,0,1-.421.18h-.541c-.12,0-.18-.06-.06-.18Zm.18,4.629V41.7c0,.361-.06.421-.421.421h-.24c-.361,0-.421-.06-.421-.421V35.089c0-.3,0-.421.24-.421.6.06.842.3.842.962" transform="translate(-111.478 -30.7)"/><path class="d" d="M158.386,40.687c.661,0,1.563.06,2.345.12v-.962c0-1.563-1.263-1.744-2.164-1.744a6.668,6.668,0,0,0-2.044.3c-.421.12-.481.06-.481-.12a.731.731,0,0,1,.541-.782,8.762,8.762,0,0,1,2.1-.3c1.082,0,3.126.24,3.126,2.525v4.689c0,.3,0,.421-.24.421-.6,0-.842-.24-.9-.721a4.473,4.473,0,0,1-2.705.782c-1.683,0-2.465-.721-2.465-2.164,0-1.5.962-2.044,2.886-2.044m2.285,1.022a12.713,12.713,0,0,0-2.1-.12c-1.2,0-1.984.12-1.984,1.082,0,.9.6,1.263,1.623,1.263a3.732,3.732,0,0,0,2.465-.721Z" transform="translate(-113.595 -33.292)"/></g><g transform="translate(0.721 28.979)"><path class="d" d="M86.221,66.163c-.361,0-.421-.06-.421-.421v-10.4c0-.421.06-.541.541-.541h3.126c2.225,0,3.126,1.263,3.126,2.826a2.451,2.451,0,0,1-1.683,2.585A2.651,2.651,0,0,1,93.375,63.1c0,1.864-1.142,3.126-3.607,3.126H86.221Zm.661-10.341V59.79h2.465a1.823,1.823,0,0,0,2.044-1.984c0-1.082-.541-1.984-2.224-1.984Zm0,4.93V65.2h2.645c1.864,0,2.645-.9,2.645-2.225,0-1.5-.9-2.225-2.645-2.225Z" transform="translate(-85.8 -54.74)"/><path class="d" d="M104.548,61.2a3.54,3.54,0,0,1,3.848,3.848,3.848,3.848,0,0,1-7.7,0,3.54,3.54,0,0,1,3.848-3.848m0,6.674a2.515,2.515,0,0,0,2.645-2.826c0-1.683-.9-2.886-2.645-2.886a2.607,2.607,0,0,0-2.705,2.886,2.559,2.559,0,0,0,2.705,2.826" transform="translate(-91.742 -57.292)"/><path class="d" d="M116.542,71.8a.829.829,0,0,1-.6-.842q0-.451.361-.18a5.981,5.981,0,0,0,2.826.6c1.323,0,2.886-.421,2.886-3.186v-.782a3.18,3.18,0,0,1-2.766,1.323c-2.225,0-3.547-1.5-3.547-3.788s1.323-3.848,3.487-3.848a3.082,3.082,0,0,1,2.766,1.383v-.24c0-.661.24-.962.9-.962.18,0,.24.12.24.421v6.674c0,3.247-1.924,3.968-3.908,3.968a5.414,5.414,0,0,1-2.645-.541m2.886-9.619c-1.744,0-2.525,1.263-2.525,2.826a2.591,2.591,0,1,0,5.17,0,2.566,2.566,0,0,0-2.645-2.826" transform="translate(-97.724 -57.252)"/><path class="d" d="M134.948,61.2a3.54,3.54,0,0,1,3.848,3.848,3.848,3.848,0,0,1-7.7,0,3.511,3.511,0,0,1,3.848-3.848m0,6.674a2.515,2.515,0,0,0,2.645-2.826c0-1.683-.9-2.886-2.645-2.886a2.607,2.607,0,0,0-2.705,2.886,2.559,2.559,0,0,0,2.705,2.826" transform="translate(-103.865 -57.292)"/><path class="d" d="M147.8,58.161V59.9h1.924c.3,0,.361.06.361.361v.24c0,.361-.06.361-.361.361H147.8v4.148c0,1.082.6,1.383,1.082,1.383a2.076,2.076,0,0,0,1.082-.3c.18-.06.24-.06.24.24a1.133,1.133,0,0,1-.12.481,1.74,1.74,0,0,1-1.563.6c-1.263,0-1.864-.782-1.864-2.345V60.866h-.9c-.3,0-.361-.06-.361-.361v-.18c0-.3.06-.361.361-.361h.9v-.541c0-1.142.361-1.623.9-1.623.18,0,.24.06.24.361" transform="translate(-109.567 -55.936)"/><path class="d" d="M157.586,62.095c.661,0,1.563.06,2.345.12v-.962c0-1.563-1.263-1.744-2.164-1.744a6.668,6.668,0,0,0-2.044.3c-.421.12-.481.06-.481-.12a.731.731,0,0,1,.541-.782,8.762,8.762,0,0,1,2.1-.3c1.082,0,3.126.24,3.126,2.525v4.689c0,.3,0,.421-.24.421-.6,0-.842-.24-.9-.721a4.473,4.473,0,0,1-2.705.782c-1.683,0-2.465-.721-2.465-2.164.06-1.5,1.022-2.044,2.886-2.044m2.345,1.022a12.713,12.713,0,0,0-2.1-.12c-1.2,0-1.984.12-1.984,1.082,0,.9.6,1.263,1.623,1.263a3.732,3.732,0,0,0,2.465-.721ZM158.428,55c.18-.3.3-.3.6-.3h.6c.24,0,.3.12.12.361l-1.563,1.623a.546.546,0,0,1-.421.18h-.541c-.12,0-.18-.06-.06-.18Z" transform="translate(-113.276 -54.7)"/></g></g></g></svg>