<svg xmlns="http://www.w3.org/2000/svg" xmlns:xlink="http://www.w3.org/1999/xlink" viewBox="0 0 274.272 56"><defs><style>.a{fill:#00a34b;}.b{fill:#a6ce39;}.c{clip-path:url(#a);}.d{clip-path:url(#b);}.e{fill:#2376bc;}.f{fill:#2cace3;}</style><clipPath id="a"><rect width="33.37" height="33.37"/></clipPath><clipPath id="b"><rect width="28.846" height="33.37"/></clipPath></defs><g transform="translate(-0.001)"><g transform="translate(61.694 17.577)"><path d="M151.328,48.884h4.394c.653,0,.7.087.7.783v6.265c0,.566-.087.7-.522.87a13.2,13.2,0,0,1-5.438,1.088c-6.091,0-8.658-3.568-8.658-8.658,0-5.264,2.523-8.832,8.745-8.832a8.712,8.712,0,0,1,5.134,1.305,1.6,1.6,0,0,1,.653,1.262c0,.348-.087.522-.348.392a10.3,10.3,0,0,0-5.351-1.392c-5.177,0-6.961,2.915-6.961,7.309,0,4.133,1.653,7.135,6.787,7.135a10.025,10.025,0,0,0,4.264-.827V50.407h-2.784a1.121,1.121,0,0,1-1.218-1.131c0-.348.131-.392.609-.392" transform="translate(-141.8 -40.4)"/><path d="M184.053,60.122v4.438c0,.566-.087.653-.653.653h-.348c-.566,0-.653-.087-.653-.653V54.727c0-.435,0-.609.348-.609.957,0,1.349.392,1.349,1.349v.783a3.035,3.035,0,0,1,3.089-2.349c1.349,0,1.74.522,1.74,1.305,0,.392-.044.479-.392.392a4.693,4.693,0,0,0-1.305-.174c-2.132-.044-3.133,1.74-3.176,4.7" transform="translate(-164.736 -48.026)"/><path d="M208.927,64.233v-.3a4.259,4.259,0,0,1-3.7,1.7c-2.741,0-3.829-1.61-3.829-4.177V55.009c0-.435,0-.609.348-.609.957,0,1.349.392,1.349,1.349V61.4a2.339,2.339,0,0,0,2.567,2.654,2.977,2.977,0,0,0,3.263-2.872V55.009c0-.435,0-.609.348-.609.957,0,1.349.392,1.349,1.349v9.224c0,.435-.044.609-.348.609-.914,0-1.349-.392-1.349-1.349" transform="translate(-175.469 -48.309)"/><path d="M231.853,63.585v6.57c0,.566-.087.653-.653.653h-.348c-.566,0-.653-.087-.653-.653V54.84c0-.435,0-.609.348-.609.957,0,1.349.392,1.349,1.349v.566a4.541,4.541,0,0,1,4.09-2.045c3.35,0,5.221,2.349,5.221,5.743S239.38,65.5,235.943,65.5a4.658,4.658,0,0,1-4.09-1.914m3.742.392c2.567,0,3.829-1.784,3.829-4.09,0-2.349-1.262-4.22-3.785-4.22-2.741,0-3.829,2.088-3.829,4.22-.044,2.045,1.044,4.09,3.785,4.09" transform="translate(-191.739 -48.139)"/><path d="M265.743,54.1c3.655,0,5.7,2.262,5.7,5.743s-2.088,5.656-5.7,5.656c-3.7,0-5.743-2.219-5.743-5.656,0-3.481,2.045-5.743,5.743-5.743m0,9.92c2.567,0,3.959-1.7,3.959-4.177s-1.392-4.264-3.959-4.264-4,1.784-4,4.264,1.436,4.177,4,4.177" transform="translate(-208.574 -48.139)"/><path class="a" d="M292.7,57.272V41.827c0-.7.131-.827.783-.827h8.179c.392,0,.522.044.522.3,0,.609-.479,1.175-1.61,1.175H294.44v5.874h5.874c.392,0,.522.044.522.3,0,.609-.479,1.175-1.61,1.175h-4.742V56.4h7c.522,0,.609.087.609.566v.348c0,.479-.087.566-.609.566H293.44c-.609.044-.74-.044-.74-.609" transform="translate(-227.047 -40.739)"/><path class="a" d="M328.184,65.325h-.348c-.566,0-.653-.087-.653-.653V58.494c0-1.74-.7-2.959-2.7-2.959s-2.959,1.262-3.133,3.046v6.048c0,.566-.087.653-.653.653h-.348c-.566,0-.653-.087-.653-.653V54.84c0-.435,0-.609.348-.609.957,0,1.349.392,1.349,1.349v.174a4.143,4.143,0,0,1,3.568-1.653c2.785,0,3.959,1.653,3.959,4.307v6.265c-.087.566-.218.653-.74.653" transform="translate(-242.3 -48.139)"/><path class="a" d="M348.584,60.639c.174,2.567,1.653,3.394,3.959,3.394a9.96,9.96,0,0,0,4.22-.914q.522-.2.522.261a1.511,1.511,0,0,1-.957,1.392,9.336,9.336,0,0,1-4,.827c-3.35,0-5.525-1.523-5.525-5.438,0-3.829,1.914-5.961,5.351-5.961,3.524,0,5.177,2.219,5.177,5.482,0,.522-.131,1-.914,1h-7.831Zm0-1.392h7.048c-.087-2.262-1.131-3.7-3.524-3.7-2.219.044-3.35,1.436-3.524,3.7" transform="translate(-257.609 -48.196)"/><path class="a" d="M378.753,60.122v4.438c0,.566-.087.653-.653.653h-.348c-.566,0-.653-.087-.653-.653V54.727c0-.435,0-.609.348-.609.957,0,1.349.392,1.349,1.349v.783a3.035,3.035,0,0,1,3.089-2.349c1.349,0,1.74.522,1.74,1.305,0,.392-.044.479-.392.392a4.693,4.693,0,0,0-1.305-.174c-2.132-.044-3.133,1.74-3.176,4.7" transform="translate(-274.726 -48.026)"/><path class="a" d="M394.718,69.924a1.327,1.327,0,0,1-.914-1.262c0-.435.174-.522.566-.3a9.635,9.635,0,0,0,4.22.914c2,0,4.264-.653,4.264-4.742L402.9,63.4a4.636,4.636,0,0,1-4.133,2c-3.35,0-5.264-2.262-5.264-5.656S395.458,54,398.721,54a4.619,4.619,0,0,1,4.133,2.045V55.61c0-1,.392-1.479,1.349-1.479.3,0,.348.131.348.653V64.7c0,4.873-2.828,5.961-5.83,5.961a7.681,7.681,0,0,1-4-.74m4.351-14.358c-2.567,0-3.785,1.827-3.785,4.22,0,2.349,1.262,4.133,3.829,4.133,2.741,0,3.829-2.045,3.829-4.133,0-2.132-1.131-4.22-3.872-4.22" transform="translate(-283.991 -48.083)"/><path class="a" d="M427.12,41.235a.817.817,0,0,1,.87-.435h.87c.348,0,.435.218.131.522l-2.306,2.436a.8.8,0,0,1-.653.218h-.783c-.174,0-.261-.087-.131-.3Zm.3,6.831v9.05c0,.566-.087.653-.653.653h-.348c-.566,0-.653-.087-.653-.653V47.326c0-.435.043-.609.348-.609.914.044,1.305.435,1.305,1.349" transform="translate(-301.818 -40.626)"/><path class="a" d="M440.419,59.377a33.92,33.92,0,0,1,3.481.218V58.159c0-2.349-1.827-2.567-3.22-2.567a11.263,11.263,0,0,0-3,.435c-.609.174-.7.087-.7-.218a1.07,1.07,0,0,1,.827-1.175,11.09,11.09,0,0,1,3.176-.435c1.61,0,4.655.392,4.655,3.742V64.9c0,.435-.044.609-.348.609-.87,0-1.305-.348-1.349-1.088a6.448,6.448,0,0,1-4.046,1.131c-2.48,0-3.7-1.088-3.7-3.22-.044-2.175,1.392-2.959,4.22-2.959M443.9,60.9a19.713,19.713,0,0,0-3.133-.174c-1.827,0-2.959.218-2.959,1.61s.914,1.827,2.393,1.827a5.472,5.472,0,0,0,3.655-1.088V60.9Z" transform="translate(-308.112 -48.196)"/><path class="a" d="M467.253,57.924c-.566,0-.653-.087-.653-.609V41.783c0-.653.131-.783.783-.783h4.655c3.307,0,4.7,1.871,4.7,4.177,0,2.175-1,3.35-2.48,3.829,2.48.392,3.7,1.74,3.7,4.264,0,2.784-1.653,4.655-5.395,4.655h-5.308Zm1-15.445V48.4h3.655a2.689,2.689,0,0,0,3-3c0-1.653-.827-2.959-3.307-2.959h-3.35Zm0,7.353v6.613h3.916c2.828,0,3.916-1.349,3.916-3.307,0-2.219-1.349-3.307-3.916-3.307Z" transform="translate(-325.287 -40.739)"/><path class="a" d="M503.043,54.1c3.655,0,5.7,2.262,5.7,5.743s-2.088,5.656-5.7,5.656c-3.7,0-5.743-2.219-5.743-5.656,0-3.481,2.045-5.743,5.743-5.743m0,9.92c2.567,0,3.959-1.7,3.959-4.177s-1.392-4.264-3.959-4.264-4,1.784-4,4.264,1.436,4.177,4,4.177" transform="translate(-342.63 -48.139)"/><path class="a" d="M529.418,69.924a1.327,1.327,0,0,1-.914-1.262c0-.435.174-.522.566-.3a9.635,9.635,0,0,0,4.22.914c2,0,4.264-.653,4.264-4.742L537.6,63.4a4.636,4.636,0,0,1-4.133,2c-3.35,0-5.264-2.262-5.264-5.656S530.158,54,533.421,54a4.619,4.619,0,0,1,4.133,2.045V55.61c0-1,.392-1.479,1.349-1.479.3,0,.348.131.348.653V64.7c0,4.873-2.828,5.961-5.786,5.961a7.762,7.762,0,0,1-4.046-.74m4.351-14.358c-2.567,0-3.785,1.827-3.785,4.22,0,2.349,1.262,4.133,3.829,4.133,2.741,0,3.829-2.045,3.829-4.133,0-2.132-1.131-4.22-3.872-4.22" transform="translate(-360.086 -48.083)"/><path class="a" d="M565.543,54.1c3.655,0,5.7,2.262,5.7,5.743s-2.088,5.656-5.7,5.656c-3.7,0-5.743-2.219-5.743-5.656,0-3.481,2.045-5.743,5.743-5.743m0,9.92c2.567,0,3.959-1.7,3.959-4.177s-1.392-4.264-3.959-4.264-4,1.784-4,4.264,1.436,4.177,4,4.177" transform="translate(-377.938 -48.139)"/><path class="a" d="M592.868,47.609v2.61h2.871c.435,0,.522.087.522.566v.348c0,.522-.087.566-.522.566h-2.871V57.92c0,1.61.87,2.045,1.566,2.045a3.461,3.461,0,0,0,1.653-.435c.261-.087.392-.044.392.392a1.1,1.1,0,0,1-.174.7c-.348.566-1.088.87-2.306.87-1.871,0-2.828-1.131-2.828-3.524V51.7h-1.349c-.435,0-.522-.044-.522-.566v-.348c0-.479.087-.566.522-.566h1.349v-.783c0-1.74.566-2.436,1.349-2.436.3.044.348.131.348.609" transform="translate(-394.603 -44.128)"/><path class="a" d="M612.919,51.807a33.92,33.92,0,0,1,3.481.218V50.589c0-2.349-1.827-2.567-3.22-2.567a11.263,11.263,0,0,0-3,.435c-.609.174-.7.087-.7-.218a1.069,1.069,0,0,1,.827-1.175,11.338,11.338,0,0,1,3.176-.435c1.61,0,4.655.392,4.655,3.742v6.961c0,.435-.044.609-.348.609-.87,0-1.305-.348-1.349-1.088a6.448,6.448,0,0,1-4.046,1.131c-2.48,0-3.7-1.088-3.7-3.22-.044-2.175,1.349-2.959,4.22-2.959M616.4,53.33a19.713,19.713,0,0,0-3.133-.174c-1.827,0-2.958.218-2.958,1.61s.914,1.827,2.393,1.827a5.471,5.471,0,0,0,3.655-1.088V53.33Zm-2.306-12.1a.817.817,0,0,1,.87-.435h.87c.348,0,.435.218.131.522l-2.306,2.436a.8.8,0,0,1-.653.218h-.7c-.174,0-.261-.087-.13-.3Z" transform="translate(-405.561 -40.626)"/></g><path class="b" d="M22.708,65.969a.262.262,0,0,1-.174-.044A16.614,16.614,0,0,1,16.4,52.83a16.413,16.413,0,0,1,6.309-13.009.279.279,0,1,1,.348.435,16.26,16.26,0,0,0-.174,25.234.275.275,0,0,1,.044.392.332.332,0,0,1-.218.087" transform="translate(-9.263 -22.462)"/><g transform="translate(11.051 13.096)"><g class="c"><path class="b" d="M42.107,63.47a16.725,16.725,0,0,1-15.054-9.4,17.678,17.678,0,0,1-1.218-3.394,15.513,15.513,0,0,1-.435-3.133.284.284,0,0,1,.566-.044,14.284,14.284,0,0,0,.435,3.046,14.626,14.626,0,0,0,1.175,3.263,16.14,16.14,0,0,0,29.759-1.74,15.931,15.931,0,0,0-.7-12.313,16.323,16.323,0,0,0-13.922-9.093c-.174,0-.261-.131-.261-.3s.131-.261.3-.261a16.67,16.67,0,0,1,14.314,9.4,16.675,16.675,0,0,1-7.744,22.276,16.712,16.712,0,0,1-7.222,1.7" transform="translate(-25.4 -30.1)"/></g></g><g transform="translate(12.183 9.18)"><g class="d"><path class="a" d="M44.72,54.483a16.677,16.677,0,1,1,6.526-32.022,16.93,16.93,0,0,1,3.133,1.74,15.54,15.54,0,0,1,2.393,2.088.277.277,0,0,1-.392.392,14.362,14.362,0,0,0-2.306-2,20.434,20.434,0,0,0-3-1.7A16.11,16.11,0,0,0,38.411,52.613a16.106,16.106,0,0,0,16.4-2.219.279.279,0,1,1,.348.435A16.859,16.859,0,0,1,44.72,54.483" transform="translate(-28.013 -21.113)"/></g></g><path class="a" d="M16.8,45.427a7.527,7.527,0,1,1,7.527,7.527A7.529,7.529,0,0,1,16.8,45.427" transform="translate(-9.49 -21.411)"/><path class="a" d="M55.8,36.427a7.527,7.527,0,1,1,7.527,7.527A7.529,7.529,0,0,1,55.8,36.427" transform="translate(-31.522 -16.326)"/><path class="b" d="M69.555,86.663a5.732,5.732,0,1,1,6.309,5.09,5.75,5.75,0,0,1-6.309-5.09" transform="translate(-39.273 -45.375)"/><path class="b" d="M57.9,15a5.7,5.7,0,1,1,5.7,5.7A5.691,5.691,0,0,1,57.9,15" transform="translate(-32.709 -5.254)"/><path class="b" d="M26,102.5a5.7,5.7,0,1,1,5.7,5.7,5.691,5.691,0,0,1-5.7-5.7" transform="translate(-14.688 -54.685)"/><path class="e" d="M51.5,79.558a1.958,1.958,0,1,1,1.958,1.958A1.95,1.95,0,0,1,51.5,79.558" transform="translate(-29.093 -43.838)"/><path class="f" d="M89.88,15.01a.251.251,0,0,1-.261-.261A16.321,16.321,0,0,0,74.261.566.291.291,0,0,1,74,.261.291.291,0,0,1,74.3,0a16.842,16.842,0,0,1,15.88,14.706c0,.131-.087.261-.3.3h0" transform="translate(-41.804)"/><path class="f" d="M86.6,73.026a6.526,6.526,0,1,1,6.526,6.526A6.517,6.517,0,0,1,86.6,73.026" transform="translate(-48.922 -37.567)"/><path class="f" d="M98.5,22.651A4.351,4.351,0,1,1,102.851,27,4.309,4.309,0,0,1,98.5,22.651" transform="translate(-55.644 -10.338)"/><path class="f" d="M32.6,19.858a1.958,1.958,0,1,1,1.958,1.958A1.978,1.978,0,0,1,32.6,19.858" transform="translate(-18.416 -10.112)"/><path class="a" d="M74.9,125.08a1.365,1.365,0,1,1,1.784-.74,1.38,1.38,0,0,1-1.784.74" transform="translate(-41.829 -69.172)"/><path class="e" d="M59.7,99.151a4.351,4.351,0,1,1,4.351,4.351A4.364,4.364,0,0,1,59.7,99.151" transform="translate(-33.725 -53.555)"/><path class="e" d="M8.5,80.951A4.351,4.351,0,1,1,12.851,85.3,4.364,4.364,0,0,1,8.5,80.951" transform="translate(-4.801 -43.273)"/><path class="a" d="M.871,32.3a1.45,1.45,0,0,1-.783-1.827,1.45,1.45,0,0,1,1.827-.783A1.45,1.45,0,0,1,2.7,31.515,1.468,1.468,0,0,1,.871,32.3" transform="translate(0 -16.722)"/></g></svg>